# Blender v2.90.1 OBJ File: 'armero.blend'
# www.blender.org
o Armero_Cylinder.003
v 0.872595 -0.038204 -0.030985
v 0.764146 -0.038204 -0.030985
v 0.872595 -0.019991 -0.025068
v 0.764146 -0.019991 -0.025068
v 0.872595 -0.008735 -0.009575
v 0.764146 -0.008735 -0.009575
v 0.872595 -0.008735 0.009575
v 0.764146 -0.008735 0.009575
v 0.872595 -0.019991 0.025068
v 0.764146 -0.019991 0.025068
v 0.872595 -0.038204 0.030985
v 0.764146 -0.038204 0.030985
v 0.872595 -0.056416 0.025068
v 0.764146 -0.056416 0.025068
v 0.872595 -0.067672 0.009575
v 0.764146 -0.067672 0.009575
v 0.872595 -0.067672 -0.009575
v 0.764146 -0.067672 -0.009575
v 0.872595 -0.056416 -0.025068
v 0.764146 -0.056416 -0.025068
v -0.764154 -0.537786 0.116195
v -0.764154 1.321331 0.116195
v -0.764154 -0.537786 -0.116195
v -0.764154 1.321331 -0.116195
v -0.717676 -0.537786 0.116195
v -0.717676 1.321331 0.116195
v -0.717676 -0.537786 -0.116195
v -0.717676 1.321331 -0.116195
v 0.717668 -0.537786 0.116195
v 0.717668 1.321331 0.116195
v 0.717668 -0.537786 -0.116195
v 0.717668 1.321331 -0.116195
v 0.764146 -0.537786 0.116195
v 0.764146 1.321331 0.116195
v 0.764146 -0.537786 -0.116195
v 0.764146 1.321331 -0.116195
v -0.717676 1.020711 0.116195
v -0.717676 1.067189 0.116195
v -0.717676 1.020711 -0.116195
v -0.717676 1.067189 -0.116195
v 0.717717 1.020711 0.116195
v 0.717717 1.067189 0.116195
v 0.717717 1.020711 -0.116195
v 0.717717 1.067189 -0.116195
v -0.717676 0.086466 0.023239
v -0.717676 0.132944 0.023239
v -0.717676 0.086466 -0.023239
v -0.717676 0.132944 -0.023239
v 0.717717 0.086466 0.023239
v 0.717717 0.132944 0.023239
v 0.717717 0.086466 -0.023239
v 0.717717 0.132944 -0.023239
v 0.764146 -0.537786 0.387316
v 0.764146 -0.453944 0.387316
v 0.764146 -0.537786 -0.387316
v 0.764146 -0.453944 -0.387316
v 0.810624 -0.537786 0.387316
v 0.810624 -0.453944 0.387316
v 0.810624 -0.537786 -0.387316
v 0.810624 -0.453944 -0.387316
v 0.764146 -0.537786 0.000000
v 0.764146 -0.305396 0.000000
v 0.810624 -0.537786 0.000000
v 0.810624 -0.305396 0.000000
v 0.764146 -0.305396 -0.193658
v 0.810624 -0.537786 -0.193658
v 0.764146 -0.537786 -0.193658
v 0.810624 -0.305396 -0.193658
v 0.764146 -0.537786 0.193658
v 0.810624 -0.305396 0.193658
v 0.764146 -0.305396 0.193658
v 0.810624 -0.537786 0.193658
v -0.810632 -0.537786 0.387316
v -0.810632 -0.453944 0.387316
v -0.810632 -0.537786 -0.387316
v -0.810632 -0.453944 -0.387316
v -0.764154 -0.537786 0.387316
v -0.764154 -0.453944 0.387316
v -0.764154 -0.537786 -0.387316
v -0.764154 -0.453944 -0.387316
v -0.810632 -0.537786 0.000000
v -0.810632 -0.305396 0.000000
v -0.764154 -0.537786 0.000000
v -0.764154 -0.305396 0.000000
v -0.810632 -0.305396 -0.193658
v -0.764154 -0.537786 -0.193658
v -0.810632 -0.537786 -0.193658
v -0.764154 -0.305396 -0.193658
v -0.810632 -0.537786 0.193658
v -0.764154 -0.305396 0.193658
v -0.810632 -0.305396 0.193658
v -0.764154 -0.537786 0.193658
v -0.717676 -0.061443 0.023239
v -0.717676 -0.014965 0.023239
v -0.717676 -0.061443 -0.023239
v -0.717676 -0.014965 -0.023239
v 0.717718 -0.061443 0.023239
v 0.717718 -0.014965 0.023239
v 0.717718 -0.061443 -0.023239
v 0.717718 -0.014965 -0.023239
v -0.764154 0.109705 -0.030985
v -0.872602 0.109705 -0.030985
v -0.764154 0.127917 -0.025068
v -0.872602 0.127917 -0.025068
v -0.764154 0.139174 -0.009575
v -0.872602 0.139174 -0.009575
v -0.764154 0.139174 0.009575
v -0.872602 0.139174 0.009575
v -0.764154 0.127917 0.025068
v -0.872602 0.127917 0.025068
v -0.764154 0.109705 0.030985
v -0.872602 0.109705 0.030985
v -0.764154 0.091492 0.025068
v -0.872602 0.091492 0.025068
v -0.764154 0.080236 0.009575
v -0.872602 0.080236 0.009575
v -0.764154 0.080236 -0.009575
v -0.872602 0.080236 -0.009575
v -0.764154 0.091492 -0.025068
v -0.872602 0.091492 -0.025068
v 0.872595 0.109705 -0.030985
v 0.764146 0.109705 -0.030985
v 0.872595 0.127917 -0.025068
v 0.764146 0.127917 -0.025068
v 0.872595 0.139174 -0.009575
v 0.764146 0.139174 -0.009575
v 0.872595 0.139174 0.009575
v 0.764146 0.139174 0.009575
v 0.872595 0.127917 0.025068
v 0.764146 0.127917 0.025068
v 0.872595 0.109705 0.030985
v 0.764146 0.109705 0.030985
v 0.872595 0.091492 0.025068
v 0.764146 0.091492 0.025068
v 0.872595 0.080236 0.009575
v 0.764146 0.080236 0.009575
v 0.872595 0.080236 -0.009575
v 0.764146 0.080236 -0.009575
v 0.872595 0.091492 -0.025068
v 0.764146 0.091492 -0.025068
v -0.764154 -0.038204 -0.030985
v -0.872602 -0.038204 -0.030985
v -0.764154 -0.019991 -0.025068
v -0.872602 -0.019991 -0.025068
v -0.764154 -0.008735 -0.009575
v -0.872602 -0.008735 -0.009575
v -0.764154 -0.008735 0.009575
v -0.872602 -0.008735 0.009575
v -0.764154 -0.019991 0.025068
v -0.872602 -0.019991 0.025068
v -0.764154 -0.038204 0.030985
v -0.872602 -0.038204 0.030985
v -0.764154 -0.056416 0.025068
v -0.872602 -0.056416 0.025068
v -0.764154 -0.067672 0.009575
v -0.872602 -0.067672 0.009575
v -0.764154 -0.067672 -0.009575
v -0.872602 -0.067672 -0.009575
v -0.764154 -0.056416 -0.025068
v -0.872602 -0.056416 -0.025068
vt 0.657218 0.074220
vt 0.672540 0.130816
vt 0.657218 0.130816
vt 0.473180 0.130816
vt 0.460146 0.074220
vt 0.473180 0.074220
vt 0.460146 0.130816
vt 0.444035 0.074220
vt 0.444035 0.130816
vt 0.431001 0.074220
vt 0.358150 0.130816
vt 0.372807 0.187412
vt 0.358150 0.187412
vt 0.372807 0.130816
vt 0.388596 0.187412
vt 0.644149 0.017623
vt 0.657183 0.074220
vt 0.644149 0.074220
vt 0.657183 0.017623
vt 0.673294 0.074220
vt 0.396228 0.054666
vt 0.371436 0.074220
vt 0.346644 0.054666
vt 0.673293 0.017623
vt 0.686327 0.074220
vt 0.641895 0.074220
vt 0.641895 0.130816
vt 0.544980 0.054666
vt 0.520188 0.074220
vt 0.504866 0.023028
vt 0.022444 0.212580
vt 0.110759 0.979545
vt 0.022444 0.979545
vt 0.221166 0.233234
vt 0.231036 0.983234
vt 0.221166 0.983234
vt 0.132269 0.325027
vt 0.207589 0.979132
vt 0.132270 0.979132
vt 0.260646 0.978373
vt 0.250776 0.233234
vt 0.260646 0.233234
vt 0.187200 0.209085
vt 0.177330 0.302835
vt 0.177330 0.209085
vt 0.157590 0.209085
vt 0.147720 0.302835
vt 0.147720 0.209085
vt 0.132269 0.325027
vt 0.207589 0.979132
vt 0.132270 0.979132
vt 0.231036 0.233234
vt 0.240906 0.983234
vt 0.231036 0.983234
vt 0.022444 0.212580
vt 0.110759 0.979545
vt 0.022444 0.979545
vt 0.250776 0.978373
vt 0.240906 0.233234
vt 0.250776 0.233234
vt 0.177330 0.209085
vt 0.167460 0.302835
vt 0.167460 0.209085
vt 0.157590 0.302835
vt 0.167460 0.209085
vt 0.167460 0.302835
vt 0.672089 0.463716
vt 0.695118 0.338716
vt 0.695118 0.463716
vt 0.562691 0.695361
vt 0.585721 0.254171
vt 0.585721 0.695361
vt 0.672089 0.338716
vt 0.649059 0.463716
vt 0.649059 0.338716
vt 0.608751 0.699573
vt 0.631631 0.258382
vt 0.631631 0.699573
vt 0.413332 0.692190
vt 0.298183 0.251000
vt 0.413332 0.251000
vt 0.540784 0.699573
vt 0.425636 0.258382
vt 0.540784 0.258382
vt 0.672904 0.205229
vt 0.633802 0.162782
vt 0.672904 0.162782
vt 0.799259 0.027192
vt 0.776229 0.468383
vt 0.776229 0.027192
vt 0.672904 0.162782
vt 0.712006 0.205229
vt 0.672904 0.205229
vt 0.845170 0.468383
vt 0.868050 0.027192
vt 0.868050 0.468383
vt 0.947289 0.466646
vt 0.924259 0.025455
vt 0.947289 0.025455
vt 0.901229 0.466646
vt 0.878200 0.025455
vt 0.901229 0.025455
vt 0.788294 0.738138
vt 0.760660 0.668848
vt 0.788294 0.668848
vt 0.688911 0.777728
vt 0.697664 0.807726
vt 0.688911 0.807726
vt 0.722819 0.599613
vt 0.750453 0.668904
vt 0.722819 0.668904
vt 0.688911 0.807726
vt 0.697664 0.837530
vt 0.688911 0.837530
vt 0.958868 0.871772
vt 0.945708 0.975938
vt 0.945708 0.871772
vt 0.889752 0.661273
vt 0.902912 0.557106
vt 0.902912 0.661273
vt 0.889752 0.869606
vt 0.902912 0.765439
vt 0.902912 0.869606
vt 0.958868 0.663438
vt 0.945708 0.767605
vt 0.945708 0.663438
vt 0.205683 0.029286
vt 0.135456 0.092815
vt 0.135456 0.029286
vt 0.711698 0.876720
vt 0.788294 0.807429
vt 0.788294 0.876720
vt 0.644460 0.794475
vt 0.616826 0.863766
vt 0.616826 0.794475
vt 0.958868 0.559272
vt 0.945708 0.559272
vt 0.889752 0.973773
vt 0.902912 0.973773
vt 0.711698 0.807429
vt 0.760660 0.946010
vt 0.788294 0.946010
vt 0.889752 0.765439
vt 0.958868 0.767605
vt 0.205683 0.092815
vt 0.135456 0.156344
vt 0.711698 0.738138
vt 0.684064 0.668848
vt 0.711698 0.668848
vt 0.697664 0.777728
vt 0.688911 0.747729
vt 0.697664 0.747729
vt 0.788294 0.860407
vt 0.815928 0.929697
vt 0.788294 0.929697
vt 0.668582 0.785475
vt 0.659828 0.755671
vt 0.668582 0.755671
vt 0.916072 0.869606
vt 0.902912 0.973773
vt 0.902912 0.869606
vt 0.958868 0.663438
vt 0.972028 0.559272
vt 0.972028 0.663438
vt 0.958868 0.871772
vt 0.972028 0.767605
vt 0.972028 0.871772
vt 0.916072 0.661273
vt 0.902912 0.765439
vt 0.902912 0.661273
vt 0.864890 0.721825
vt 0.788294 0.791116
vt 0.788294 0.721825
vt 0.052032 0.156777
vt 0.122259 0.093248
vt 0.122259 0.156777
vt 0.815928 0.652535
vt 0.788294 0.652535
vt 0.916072 0.557106
vt 0.902912 0.557106
vt 0.958868 0.975938
vt 0.972028 0.975938
vt 0.052032 0.093248
vt 0.122259 0.029719
vt 0.684064 0.946010
vt 0.711698 0.876720
vt 0.711698 0.946010
vt 0.958868 0.767605
vt 0.916072 0.765439
vt 0.864890 0.791116
vt 0.594700 0.205229
vt 0.633802 0.162782
vt 0.633802 0.205229
vt 0.970319 0.025455
vt 0.947289 0.466646
vt 0.947289 0.025455
vt 0.555598 0.162782
vt 0.594700 0.205229
vt 0.555598 0.205229
vt 0.822289 0.468383
vt 0.845169 0.027192
vt 0.845170 0.468383
vt 0.924259 0.466646
vt 0.901229 0.025455
vt 0.924259 0.025455
vt 0.776229 0.468383
vt 0.753200 0.027192
vt 0.776229 0.027192
vt 0.312382 0.130816
vt 0.327704 0.187412
vt 0.312382 0.187412
vt 0.388822 0.130816
vt 0.375788 0.074220
vt 0.388822 0.074220
vt 0.375788 0.130816
vt 0.359678 0.074220
vt 0.359678 0.130816
vt 0.346644 0.074220
vt 0.419269 0.187412
vt 0.404611 0.130816
vt 0.419269 0.130816
vt 0.404611 0.187412
vt 0.388822 0.130816
vt 0.641895 0.130816
vt 0.628861 0.074220
vt 0.641895 0.074220
vt 0.628861 0.130816
vt 0.612750 0.074220
vt 0.337174 0.068815
vt 0.306529 0.068815
vt 0.297059 0.037177
vt 0.612750 0.130816
vt 0.599716 0.074220
vt 0.297059 0.130816
vt 0.297059 0.187412
vt 0.396228 0.037177
vt 0.445812 0.037177
vt 0.436342 0.068815
vt 0.525044 0.198768
vt 0.509722 0.142172
vt 0.525044 0.142172
vt 0.515359 0.130816
vt 0.502325 0.074220
vt 0.515359 0.074220
vt 0.502325 0.130816
vt 0.486214 0.074220
vt 0.486214 0.130816
vt 0.473180 0.074220
vt 0.327704 0.130816
vt 0.342361 0.187412
vt 0.327704 0.187412
vt 0.342361 0.130816
vt 0.358150 0.187412
vt 0.388822 0.074220
vt 0.401856 0.130816
vt 0.388822 0.130816
vt 0.401856 0.074220
vt 0.417967 0.130816
vt 0.554450 0.023028
vt 0.585095 0.023028
vt 0.594564 0.054666
vt 0.417967 0.074220
vt 0.431001 0.130816
vt 0.540367 0.198768
vt 0.540367 0.142172
vt 0.297059 0.093773
vt 0.346644 0.093773
vt 0.337174 0.125411
vt 0.480299 0.201407
vt 0.464977 0.144811
vt 0.480299 0.144811
vt 0.599716 0.130816
vt 0.586682 0.074220
vt 0.599716 0.074220
vt 0.586682 0.130816
vt 0.570572 0.074220
vt 0.570572 0.130816
vt 0.557538 0.074220
vt 0.419269 0.130816
vt 0.433926 0.187412
vt 0.419269 0.187412
vt 0.433926 0.130816
vt 0.449715 0.187412
vt 0.515359 0.074220
vt 0.528393 0.130816
vt 0.515359 0.130816
vt 0.528393 0.074220
vt 0.544504 0.130816
vt 0.644149 0.054666
vt 0.594564 0.054666
vt 0.604034 0.023028
vt 0.544504 0.074220
vt 0.557538 0.130816
vt 0.495622 0.201407
vt 0.495622 0.144811
vt 0.445812 0.037177
vt 0.470604 0.017623
vt 0.495396 0.037177
vt 0.672540 0.074220
vt 0.431001 0.130816
vt 0.388596 0.130816
vt 0.356113 0.023028
vt 0.371436 0.017623
vt 0.386758 0.023028
vt 0.396228 0.037177
vt 0.386758 0.068815
vt 0.356113 0.068815
vt 0.346644 0.037177
vt 0.686327 0.017623
vt 0.535511 0.023028
vt 0.544980 0.037177
vt 0.535511 0.068815
vt 0.504866 0.068815
vt 0.495396 0.054666
vt 0.495396 0.037177
vt 0.520188 0.017623
vt 0.110759 0.212580
vt 0.231036 0.233234
vt 0.207589 0.325027
vt 0.250776 0.978373
vt 0.187200 0.302835
vt 0.157590 0.302835
vt 0.207589 0.325027
vt 0.240906 0.233234
vt 0.110759 0.212580
vt 0.240906 0.978373
vt 0.177330 0.302835
vt 0.157590 0.209085
vt 0.672089 0.338716
vt 0.562691 0.254171
vt 0.672089 0.463716
vt 0.608751 0.258382
vt 0.298183 0.692190
vt 0.425636 0.699573
vt 0.633802 0.205229
vt 0.799259 0.468383
vt 0.712006 0.162782
vt 0.845169 0.027192
vt 0.924259 0.466646
vt 0.878200 0.466646
vt 0.711698 0.738138
vt 0.697664 0.777728
vt 0.799414 0.599613
vt 0.697664 0.807726
vt 0.958868 0.975938
vt 0.889752 0.557106
vt 0.693421 0.863766
vt 0.205683 0.156344
vt 0.635103 0.738138
vt 0.688911 0.777728
vt 0.864890 0.860407
vt 0.659828 0.785475
vt 0.916072 0.973773
vt 0.958868 0.559272
vt 0.052032 0.029719
vt 0.635103 0.876720
vt 0.594700 0.162782
vt 0.970319 0.466646
vt 0.594700 0.162782
vt 0.822289 0.027192
vt 0.901229 0.466646
vt 0.753200 0.468383
vt 0.327704 0.130816
vt 0.346644 0.130816
vt 0.388822 0.187412
vt 0.321852 0.017623
vt 0.337174 0.023028
vt 0.346644 0.037177
vt 0.346644 0.054666
vt 0.321852 0.074220
vt 0.297059 0.054666
vt 0.306529 0.023028
vt 0.599716 0.130816
vt 0.421020 0.074220
vt 0.405698 0.068815
vt 0.396228 0.054666
vt 0.405698 0.023028
vt 0.421020 0.017623
vt 0.436342 0.023028
vt 0.445812 0.054666
vt 0.509722 0.198768
vt 0.473180 0.130816
vt 0.358150 0.130816
vt 0.569772 0.074220
vt 0.554450 0.068815
vt 0.544980 0.054666
vt 0.544980 0.037177
vt 0.569772 0.017623
vt 0.594564 0.037177
vt 0.585095 0.068815
vt 0.431001 0.074220
vt 0.321852 0.130816
vt 0.306529 0.125411
vt 0.297059 0.111262
vt 0.306529 0.079624
vt 0.321852 0.074220
vt 0.337174 0.079624
vt 0.346644 0.111262
vt 0.464977 0.201407
vt 0.557538 0.130816
vt 0.449715 0.130816
vt 0.619357 0.017623
vt 0.634679 0.023028
vt 0.644149 0.037177
vt 0.634679 0.068815
vt 0.619357 0.074220
vt 0.604034 0.068815
vt 0.594564 0.037177
vt 0.557538 0.074220
vt 0.455282 0.023028
vt 0.485926 0.023028
vt 0.495396 0.054666
vt 0.485926 0.068815
vt 0.470604 0.074220
vt 0.455282 0.068815
vt 0.445812 0.054666
vn 0.0000 0.3090 -0.9511
vn 0.0000 0.8090 -0.5878
vn 0.0000 1.0000 0.0000
vn 0.0000 0.8090 0.5878
vn 0.0000 0.3090 0.9511
vn 0.0000 -0.3090 0.9511
vn -0.0000 -0.8090 0.5878
vn -0.0000 -1.0000 0.0000
vn -1.0000 -0.0000 0.0000
vn -0.0000 -0.8090 -0.5878
vn -0.0000 -0.3090 -0.9511
vn 1.0000 -0.0000 0.0000
vn 0.0000 0.0000 -1.0000
vn 0.0000 0.0000 1.0000
vn 0.0000 0.7935 0.6086
vn 0.0000 0.7935 -0.6086
s off
f 2/1/1 3/2/1 1/3/1
f 4/4/2 5/5/2 3/6/2
f 6/7/3 7/8/3 5/5/3
f 8/9/4 9/10/4 7/8/4
f 10/11/5 11/12/5 9/13/5
f 12/14/6 13/15/6 11/12/6
f 14/16/7 15/17/7 13/18/7
f 16/19/8 17/20/8 15/17/8
f 18/21/9 14/22/9 10/23/9
f 18/24/10 19/25/10 17/20/10
f 20/26/11 1/3/11 19/27/11
f 3/28/12 7/29/12 15/30/12
f 22/31/9 23/32/9 21/33/9
f 24/34/13 27/35/13 23/36/13
f 28/37/12 25/38/12 27/39/12
f 26/40/14 21/41/14 25/42/14
f 27/43/8 21/44/8 23/45/8
f 24/46/3 26/47/3 28/48/3
f 30/49/9 31/50/9 29/51/9
f 32/52/13 35/53/13 31/54/13
f 36/55/12 33/56/12 35/57/12
f 34/58/14 29/59/14 33/60/14
f 35/61/8 29/62/8 31/63/8
f 32/64/3 34/65/3 36/66/3
f 38/67/9 39/68/9 37/69/9
f 40/70/13 43/71/13 39/72/13
f 44/73/12 41/74/12 43/75/12
f 42/76/14 37/77/14 41/78/14
f 43/79/8 37/80/8 39/81/8
f 40/82/3 42/83/3 44/84/3
f 46/85/9 47/86/9 45/87/9
f 48/88/13 51/89/13 47/90/13
f 52/91/12 49/92/12 51/93/12
f 50/94/14 45/95/14 49/96/14
f 51/97/8 45/98/8 47/99/8
f 48/100/3 50/101/3 52/102/3
f 67/103/9 56/104/9 55/105/9
f 56/106/13 59/107/13 55/108/13
f 72/109/12 58/110/12 57/111/12
f 58/112/14 53/113/14 57/114/14
f 72/115/8 53/116/8 69/117/8
f 71/118/15 58/119/15 70/120/15
f 65/121/3 64/122/3 68/123/3
f 66/124/8 61/125/8 67/126/8
f 68/127/12 63/128/12 66/129/12
f 71/130/9 61/131/9 69/132/9
f 60/133/12 66/134/12 59/135/12
f 59/136/8 67/126/8 55/137/8
f 56/138/16 68/123/16 60/139/16
f 62/140/9 67/103/9 61/131/9
f 54/141/9 69/132/9 53/142/9
f 62/143/3 70/120/3 64/122/3
f 63/144/8 69/117/8 61/125/8
f 64/145/12 72/146/12 63/128/12
f 87/147/9 76/148/9 75/149/9
f 76/150/13 79/151/13 75/152/13
f 92/153/12 78/154/12 77/155/12
f 78/156/14 73/157/14 77/158/14
f 92/159/8 73/160/8 89/161/8
f 91/162/15 78/163/15 90/164/15
f 85/165/3 84/166/3 88/167/3
f 86/168/8 81/169/8 87/170/8
f 88/171/12 83/172/12 86/173/12
f 91/174/9 81/175/9 89/176/9
f 80/177/12 86/173/12 79/178/12
f 79/179/8 87/170/8 75/180/8
f 76/181/16 88/167/16 80/182/16
f 82/183/9 87/184/9 81/175/9
f 74/185/9 89/186/9 73/187/9
f 82/188/3 90/164/3 84/166/3
f 83/189/8 89/161/8 81/169/8
f 84/190/12 92/153/12 83/172/12
f 94/191/9 95/192/9 93/193/9
f 96/194/13 99/195/13 95/196/13
f 100/197/12 97/198/12 99/199/12
f 98/200/14 93/201/14 97/202/14
f 99/203/8 93/204/8 95/205/8
f 96/206/3 98/207/3 100/208/3
f 102/209/1 103/210/1 101/211/1
f 104/212/2 105/213/2 103/214/2
f 106/215/3 107/216/3 105/213/3
f 108/217/4 109/218/4 107/216/4
f 110/219/5 111/220/5 109/221/5
f 112/222/6 113/223/6 111/220/6
f 114/224/7 115/225/7 113/226/7
f 116/227/8 117/228/8 115/225/8
f 118/229/9 114/230/9 110/231/9
f 118/232/10 119/233/10 117/228/10
f 120/234/11 101/211/11 119/235/11
f 107/236/12 115/237/12 119/238/12
f 122/239/1 123/240/1 121/241/1
f 124/242/2 125/243/2 123/244/2
f 126/245/3 127/246/3 125/243/3
f 128/247/4 129/248/4 127/246/4
f 130/249/5 131/250/5 129/251/5
f 132/252/6 133/253/6 131/250/6
f 134/254/7 135/255/7 133/256/7
f 136/257/8 137/258/8 135/255/8
f 138/259/9 134/260/9 130/261/9
f 138/262/10 139/263/10 137/258/10
f 140/264/11 121/241/11 139/265/11
f 127/266/12 135/267/12 139/268/12
f 142/269/1 143/270/1 141/271/1
f 144/272/2 145/273/2 143/274/2
f 146/275/3 147/276/3 145/273/3
f 148/277/4 149/278/4 147/276/4
f 150/279/5 151/280/5 149/281/5
f 152/282/6 153/283/6 151/280/6
f 154/284/7 155/285/7 153/286/7
f 156/287/8 157/288/8 155/285/8
f 158/289/9 150/290/9 146/291/9
f 158/292/10 159/293/10 157/288/10
f 160/294/11 141/271/11 159/295/11
f 159/296/12 143/297/12 147/298/12
f 2/1/1 4/299/1 3/2/1
f 4/4/2 6/7/2 5/5/2
f 6/7/3 8/9/3 7/8/3
f 8/9/4 10/300/4 9/10/4
f 10/11/5 12/14/5 11/12/5
f 12/14/6 14/301/6 13/15/6
f 14/16/7 16/19/7 15/17/7
f 16/19/8 18/24/8 17/20/8
f 6/302/9 4/303/9 2/304/9
f 2/304/9 20/305/9 18/21/9
f 18/21/9 16/306/9 14/22/9
f 14/22/9 12/307/9 10/23/9
f 10/23/9 8/308/9 6/302/9
f 6/302/9 2/304/9 10/23/9
f 2/304/9 18/21/9 10/23/9
f 18/24/10 20/309/10 19/25/10
f 20/26/11 2/1/11 1/3/11
f 19/310/12 1/311/12 3/28/12
f 3/28/12 5/312/12 7/29/12
f 7/29/12 9/313/12 15/30/12
f 9/313/12 11/314/12 15/30/12
f 11/314/12 13/315/12 15/30/12
f 15/30/12 17/316/12 19/310/12
f 19/310/12 3/28/12 15/30/12
f 22/31/9 24/317/9 23/32/9
f 24/34/13 28/318/13 27/35/13
f 28/37/12 26/319/12 25/38/12
f 26/40/14 22/320/14 21/41/14
f 27/43/8 25/321/8 21/44/8
f 24/46/3 22/322/3 26/47/3
f 30/49/9 32/323/9 31/50/9
f 32/52/13 36/324/13 35/53/13
f 36/55/12 34/325/12 33/56/12
f 34/58/14 30/326/14 29/59/14
f 35/61/8 33/327/8 29/62/8
f 32/64/3 30/328/3 34/65/3
f 38/67/9 40/329/9 39/68/9
f 40/70/13 44/330/13 43/71/13
f 44/73/12 42/331/12 41/74/12
f 42/76/14 38/332/14 37/77/14
f 43/79/8 41/333/8 37/80/8
f 40/82/3 38/334/3 42/83/3
f 46/85/9 48/335/9 47/86/9
f 48/88/13 52/336/13 51/89/13
f 52/91/12 50/337/12 49/92/12
f 50/94/14 46/338/14 45/95/14
f 51/97/8 49/339/8 45/98/8
f 48/100/3 46/340/3 50/101/3
f 67/103/9 65/341/9 56/104/9
f 56/106/13 60/342/13 59/107/13
f 72/109/12 70/343/12 58/110/12
f 58/112/14 54/344/14 53/113/14
f 72/115/8 57/345/8 53/116/8
f 71/118/15 54/346/15 58/119/15
f 65/121/3 62/143/3 64/122/3
f 66/124/8 63/144/8 61/125/8
f 68/127/12 64/145/12 63/128/12
f 71/130/9 62/140/9 61/131/9
f 60/133/12 68/347/12 66/134/12
f 59/136/8 66/124/8 67/126/8
f 56/138/16 65/121/16 68/123/16
f 62/140/9 65/341/9 67/103/9
f 54/141/9 71/130/9 69/132/9
f 62/143/3 71/118/3 70/120/3
f 63/144/8 72/115/8 69/117/8
f 64/145/12 70/348/12 72/146/12
f 87/147/9 85/349/9 76/148/9
f 76/150/13 80/350/13 79/151/13
f 92/153/12 90/351/12 78/154/12
f 78/156/14 74/352/14 73/157/14
f 92/159/8 77/353/8 73/160/8
f 91/162/15 74/354/15 78/163/15
f 85/165/3 82/188/3 84/166/3
f 86/168/8 83/189/8 81/169/8
f 88/171/12 84/190/12 83/172/12
f 91/174/9 82/183/9 81/175/9
f 80/177/12 88/171/12 86/173/12
f 79/179/8 86/168/8 87/170/8
f 76/181/16 85/165/16 88/167/16
f 82/183/9 85/355/9 87/184/9
f 74/185/9 91/356/9 89/186/9
f 82/188/3 91/162/3 90/164/3
f 83/189/8 92/159/8 89/161/8
f 84/190/12 90/351/12 92/153/12
f 94/191/9 96/357/9 95/192/9
f 96/194/13 100/358/13 99/195/13
f 100/197/12 98/359/12 97/198/12
f 98/200/14 94/360/14 93/201/14
f 99/203/8 97/361/8 93/204/8
f 96/206/3 94/362/3 98/207/3
f 102/209/1 104/363/1 103/210/1
f 104/212/2 106/215/2 105/213/2
f 106/215/3 108/217/3 107/216/3
f 108/217/4 110/364/4 109/218/4
f 110/219/5 112/222/5 111/220/5
f 112/222/6 114/365/6 113/223/6
f 114/224/7 116/227/7 115/225/7
f 116/227/8 118/232/8 117/228/8
f 106/366/9 104/367/9 102/368/9
f 102/368/9 120/369/9 106/366/9
f 120/369/9 118/229/9 106/366/9
f 118/229/9 116/370/9 114/230/9
f 114/230/9 112/371/9 110/231/9
f 110/231/9 108/372/9 118/229/9
f 108/372/9 106/366/9 118/229/9
f 118/232/10 120/373/10 119/233/10
f 120/234/11 102/209/11 101/211/11
f 119/238/12 101/374/12 103/375/12
f 103/375/12 105/376/12 119/238/12
f 105/376/12 107/236/12 119/238/12
f 107/236/12 109/377/12 111/378/12
f 111/378/12 113/379/12 107/236/12
f 113/379/12 115/237/12 107/236/12
f 115/237/12 117/380/12 119/238/12
f 122/239/1 124/381/1 123/240/1
f 124/242/2 126/245/2 125/243/2
f 126/245/3 128/247/3 127/246/3
f 128/247/4 130/382/4 129/248/4
f 130/249/5 132/252/5 131/250/5
f 132/252/6 134/383/6 133/253/6
f 134/254/7 136/257/7 135/255/7
f 136/257/8 138/262/8 137/258/8
f 126/384/9 124/385/9 122/386/9
f 122/386/9 140/387/9 126/384/9
f 140/387/9 138/259/9 126/384/9
f 138/259/9 136/388/9 134/260/9
f 134/260/9 132/389/9 130/261/9
f 130/261/9 128/390/9 138/259/9
f 128/390/9 126/384/9 138/259/9
f 138/262/10 140/391/10 139/263/10
f 140/264/11 122/239/11 121/241/11
f 139/268/12 121/392/12 123/393/12
f 123/393/12 125/394/12 139/268/12
f 125/394/12 127/266/12 139/268/12
f 127/266/12 129/395/12 131/396/12
f 131/396/12 133/397/12 127/266/12
f 133/397/12 135/267/12 127/266/12
f 135/267/12 137/398/12 139/268/12
f 142/269/1 144/399/1 143/270/1
f 144/272/2 146/275/2 145/273/2
f 146/275/3 148/277/3 147/276/3
f 148/277/4 150/400/4 149/278/4
f 150/279/5 152/282/5 151/280/5
f 152/282/6 154/401/6 153/283/6
f 154/284/7 156/287/7 155/285/7
f 156/287/8 158/292/8 157/288/8
f 146/291/9 144/402/9 158/289/9
f 144/402/9 142/403/9 158/289/9
f 142/403/9 160/404/9 158/289/9
f 158/289/9 156/405/9 154/406/9
f 154/406/9 152/407/9 150/290/9
f 150/290/9 148/408/9 146/291/9
f 158/289/9 154/406/9 150/290/9
f 158/292/10 160/409/10 159/293/10
f 160/294/11 142/269/11 141/271/11
f 159/296/12 141/410/12 143/297/12
f 143/297/12 145/411/12 147/298/12
f 147/298/12 149/412/12 151/413/12
f 151/413/12 153/414/12 147/298/12
f 153/414/12 155/415/12 147/298/12
f 155/415/12 157/416/12 147/298/12
f 157/416/12 159/296/12 147/298/12
