# Blender v2.90.1 OBJ File: 'estructura.blend'
# www.blender.org
mtllib estructura.mtl
o Estructura_Cube.004
v 13.325865 3.117970 14.071362
v 13.325865 3.257971 14.071362
v -18.814135 3.117970 14.071364
v -18.814135 3.257971 14.071364
v 13.325863 3.117970 -29.928637
v 13.325863 3.257971 -29.928637
v -18.814137 3.117970 -29.928637
v -18.814137 3.257971 -29.928637
v 13.325861 -3.321009 14.071358
v 13.325861 -3.181009 14.071358
v -18.814138 -3.321009 14.071360
v -18.814138 -3.181009 14.071360
v 13.325859 -3.321009 -29.928642
v 13.325859 -3.181009 -29.928642
v -18.814140 -3.321009 -29.928642
v -18.814140 -3.181009 -29.928642
v -18.685297 -3.321010 14.778096
v -18.685297 3.117972 14.778096
v -20.023962 -3.321010 14.778096
v -20.023962 3.117972 14.778096
v -18.685299 -3.321010 -31.057817
v -18.685299 3.117972 -31.057817
v -20.023964 -3.321010 -31.057817
v -20.023964 3.117972 -31.057817
v -20.023962 -3.321010 -9.923018
v -20.023962 3.117972 -9.923018
v -18.685297 -3.321010 -9.923018
v -18.685297 3.117972 -9.923018
v -18.685297 -0.129764 14.778096
v -20.023962 -0.129764 14.778096
v -20.023964 -0.129764 -31.057817
v -18.685299 -0.129764 -31.057817
v -18.685297 0.632149 -9.923018
v -20.023962 0.632149 -9.923018
v -20.023962 -3.321010 -6.361814
v -18.685297 3.117972 -6.361814
v -20.023962 3.117972 -6.361814
v -18.685297 -3.321010 -6.361814
v -20.023962 0.632149 -6.361814
v -18.685297 0.632149 -6.361814
v 14.432939 -3.321010 13.856133
v 14.432939 3.117972 13.856133
v 14.432939 -3.321010 15.194800
v 14.432939 3.117972 15.194800
v -19.943996 -3.321010 13.856135
v -19.943996 3.117972 13.856135
v -19.943996 -3.321010 15.194802
v -19.943996 3.117972 15.194802
v -1.105376 -3.321010 15.194801
v -1.105376 3.117972 15.194801
v -1.105376 -3.321010 13.856134
v -1.105376 3.117972 13.856134
v -4.736103 3.117972 15.194801
v -4.736103 -3.321010 13.856134
v -4.736103 -3.321010 15.194801
v -4.736103 3.117972 13.856134
v 14.432939 0.658447 13.856133
v 14.432939 0.658447 15.194800
v -19.943996 0.658447 15.194802
v -19.943996 0.658447 13.856135
v -1.105376 0.658447 13.856134
v -1.105376 0.658447 15.194801
v -4.736103 0.658447 13.856134
v -4.736103 0.658447 15.194801
v 14.432933 -3.321010 -31.116768
v 14.432933 3.117972 -31.116768
v 14.432933 -3.321010 -29.778103
v 14.432933 3.117972 -29.778103
v -19.944002 -3.321010 -31.116768
v -19.944002 3.117972 -31.116768
v -19.944002 -3.321010 -29.778101
v -19.944002 3.117972 -29.778101
v -1.105382 -3.321010 -29.778101
v -1.105382 3.117972 -29.778101
v -1.105382 -3.321010 -31.116768
v -1.105382 3.117972 -31.116768
v -4.736109 3.117972 -29.778101
v -4.736109 -3.321010 -31.116768
v -4.736108 -3.321010 -29.778101
v -4.736108 3.117972 -31.116768
v 14.432933 0.658447 -31.116768
v 14.432933 0.658447 -29.778103
v -19.944002 0.658447 -29.778101
v -19.944002 0.658447 -31.116768
v -1.105382 0.658447 -31.116768
v -1.105382 0.658447 -29.778101
v -4.736108 0.658447 -31.116768
v -4.736108 0.658447 -29.778101
v 14.623363 -3.321010 14.778090
v 14.623363 3.117972 14.778090
v 13.284696 -3.321010 14.778090
v 13.284696 3.117972 14.778090
v 14.623361 -3.321010 -31.057821
v 14.623361 3.117972 -31.057821
v 13.284694 -3.321010 -31.057821
v 13.284694 3.117972 -31.057821
v 13.284695 -3.321010 -9.770196
v 13.284695 3.117972 -9.923025
v 14.623362 -3.321010 -9.770196
v 14.623362 3.117972 -9.923025
v 14.623363 -0.129764 14.778090
v 13.284696 -0.129764 14.778090
v 13.284694 -0.129764 -31.057821
v 14.623361 -0.129764 -31.057821
v 14.623362 0.632149 -9.770196
v 13.284695 0.632149 -9.770196
v 13.284695 -3.321010 -6.535517
v 14.623362 3.117972 -6.361821
v 13.284695 3.117972 -6.361821
v 14.623362 -3.321010 -6.535517
v 13.284695 0.632149 -6.535517
v 14.623362 0.632149 -6.535517
v 20.655104 -3.321009 -4.779655
v 20.655104 3.116991 -4.779655
v 13.995104 -3.321009 -4.779655
v 13.995104 3.116991 -4.779655
v 20.655104 -3.321009 -5.659655
v 20.655104 3.116991 -5.659655
v 13.995104 -3.321009 -5.659654
v 13.995104 3.116991 -5.659654
v 20.655104 -3.321009 -10.712510
v 20.655104 3.116991 -10.712510
v 13.995103 -3.321009 -10.712510
v 13.995103 3.116991 -10.712510
v 20.655104 -3.321009 -11.592509
v 20.655104 3.116991 -11.592509
v 13.995103 -3.321009 -11.592509
v 13.995103 3.116991 -11.592509
v 20.933056 -3.321009 -11.590466
v 20.933056 3.116991 -11.590466
v 20.933056 -3.321009 -4.930465
v 20.933056 3.116991 -4.930465
v 20.053055 -3.321009 -11.590466
v 20.053055 3.116991 -11.590466
v 20.053055 -3.321009 -4.930465
v 20.053055 3.116991 -4.930465
v 1.303781 -3.321009 13.826347
v 1.303781 3.116991 13.826347
v 1.303782 -3.321009 31.366348
v 1.303782 3.116991 31.366348
v 0.423782 -3.321009 13.826347
v 0.423782 3.116991 13.826347
v 0.423784 -3.321009 31.366348
v 0.423784 3.116991 31.366348
v 1.182059 -3.321009 31.461130
v 1.182059 3.116991 31.461130
v -16.357941 -3.321009 31.461130
v -16.357941 3.116991 31.461130
v 1.182059 -3.321009 30.581131
v 1.182059 3.116991 30.581131
v -16.357941 -3.321009 30.581131
v -16.357941 3.116991 30.581131
v -6.167683 -3.321009 13.883471
v -6.167683 3.116991 13.883471
v -6.167682 -3.321009 23.283472
v -6.167682 3.116991 23.283472
v -7.047682 -3.321009 13.883471
v -7.047682 3.116991 13.883471
v -7.047681 -3.321009 23.283472
v -7.047681 3.116991 23.283472
v -6.257642 -3.321009 23.312393
v -6.257642 3.116991 23.312393
v -16.637640 -3.321009 23.312393
v -16.637640 3.116991 23.312393
v -6.257642 -3.321009 22.432394
v -6.257642 3.116991 22.432394
v -16.637640 -3.321009 22.432394
v -16.637640 3.116991 22.432394
v -16.083479 -3.321009 22.886179
v -16.083479 3.116991 22.886179
v -16.083479 -3.321009 31.166182
v -16.083479 3.116991 31.166182
v -16.963476 -3.321009 22.886179
v -16.963476 3.116991 22.886179
v -16.963476 -3.321009 31.166182
v -16.963476 3.116991 31.166182
v 0.989758 -3.321009 30.507824
v 0.989758 -3.181009 30.507824
v -16.990238 -3.321009 30.507824
v -16.990238 -3.181009 30.507824
v 0.989757 -3.321009 13.927824
v 0.989757 -3.181009 13.927824
v -16.990240 -3.321009 13.927825
v -16.990240 -3.181009 13.927825
v 20.349533 -3.321009 -5.451102
v 20.349533 -3.181009 -5.451102
v 12.729533 -3.321009 -5.451102
v 12.729533 -3.181009 -5.451102
v 20.349533 -3.321009 -10.971104
v 20.349533 -3.181009 -10.971104
v 12.729532 -3.321009 -10.971104
v 12.729532 -3.181009 -10.971104
v 0.989758 3.116991 30.507824
v 0.989758 3.256991 30.507824
v -16.990238 3.116991 30.507824
v -16.990238 3.256991 30.507824
v 0.989757 3.116991 13.927824
v 0.989757 3.256991 13.927824
v -16.990240 3.116991 13.927825
v -16.990240 3.256991 13.927825
v 20.349533 3.116991 -5.451102
v 20.349533 3.256991 -5.451102
v 12.729533 3.116991 -5.451102
v 12.729533 3.256991 -5.451102
v 20.349533 3.116991 -10.971104
v 20.349533 3.256991 -10.971104
v 12.729532 3.116991 -10.971104
v 12.729532 3.256991 -10.971104
v 13.325861 -3.181009 14.071358
v -18.814138 -3.181009 14.071360
v 13.325859 -3.181009 -29.928642
v -18.814140 -3.181009 -29.928642
v 0.989758 -3.181009 30.507824
v -16.990238 -3.181009 30.507824
v 0.989757 -3.181009 13.927824
v -16.990240 -3.181009 13.927825
v 20.349533 -3.181009 -5.451102
v 12.729533 -3.181009 -5.451102
v 20.349533 -3.181009 -10.971104
v 12.729532 -3.181009 -10.971104
vt 0.375000 0.000000
vt 0.625000 0.000000
vt 0.625000 0.250000
vt 0.375000 0.250000
vt 0.625000 0.500000
vt 0.375000 0.500000
vt 0.625000 0.750000
vt 0.375000 0.750000
vt 0.625000 1.000000
vt 0.375000 1.000000
vt 0.125000 0.500000
vt 0.125000 0.750000
vt 0.875000 0.500000
vt 0.875000 0.750000
vt 0.375000 0.000000
vt 0.625000 0.000000
vt 0.625000 0.250000
vt 0.375000 0.250000
vt 0.625000 0.500000
vt 0.375000 0.500000
vt 0.625000 0.750000
vt 0.375000 0.750000
vt 0.625000 1.000000
vt 0.375000 1.000000
vt 0.125000 0.500000
vt 0.125000 0.750000
vt 0.498903 0.000000
vt 0.625000 0.000000
vt 0.625000 0.250000
vt 0.498903 0.250000
vt 0.498903 0.384726
vt 0.625000 0.384726
vt 0.625000 0.500000
vt 0.498903 0.500000
vt 0.625000 0.750000
vt 0.498903 0.750000
vt 0.498903 0.884698
vt 0.625000 0.884698
vt 0.625000 1.000000
vt 0.498903 1.000000
vt 0.259726 0.500000
vt 0.375000 0.500000
vt 0.375000 0.750000
vt 0.259726 0.750000
vt 0.759698 0.500000
vt 0.875000 0.500000
vt 0.875000 0.750000
vt 0.759698 0.750000
vt 0.740274 0.500000
vt 0.740274 0.750000
vt 0.625000 0.865274
vt 0.498903 0.865274
vt 0.498903 0.365302
vt 0.625000 0.365302
vt 0.375000 0.865274
vt 0.375000 0.884698
vt 0.375000 1.000000
vt 0.375000 0.384726
vt 0.375000 0.000000
vt 0.375000 0.250000
vt 0.375000 0.365302
vt 0.125000 0.500000
vt 0.240302 0.500000
vt 0.240302 0.750000
vt 0.125000 0.750000
vt 0.529506 0.000000
vt 0.625000 0.000000
vt 0.625000 0.250000
vt 0.529506 0.250000
vt 0.529506 0.389403
vt 0.625000 0.389403
vt 0.625000 0.500000
vt 0.529506 0.500000
vt 0.625000 0.750000
vt 0.529506 0.750000
vt 0.529506 0.887000
vt 0.625000 0.887000
vt 0.625000 1.000000
vt 0.529506 1.000000
vt 0.264403 0.500000
vt 0.375000 0.500000
vt 0.375000 0.750000
vt 0.264403 0.750000
vt 0.762000 0.500000
vt 0.875000 0.500000
vt 0.875000 0.750000
vt 0.762000 0.750000
vt 0.735597 0.500000
vt 0.735597 0.750000
vt 0.125000 0.500000
vt 0.238000 0.500000
vt 0.238000 0.750000
vt 0.125000 0.750000
vt 0.529506 0.860597
vt 0.625000 0.860597
vt 0.625000 0.363000
vt 0.529506 0.363000
vt 0.375000 0.860597
vt 0.375000 0.250000
vt 0.375000 0.363000
vt 0.375000 0.887000
vt 0.375000 1.000000
vt 0.375000 0.389403
vt 0.375000 0.000000
vt 0.529506 0.000000
vt 0.625000 0.000000
vt 0.625000 0.250000
vt 0.529506 0.250000
vt 0.529506 0.389403
vt 0.625000 0.389403
vt 0.625000 0.500000
vt 0.529506 0.500000
vt 0.625000 0.750000
vt 0.529506 0.750000
vt 0.529506 0.887000
vt 0.625000 0.887000
vt 0.625000 1.000000
vt 0.529506 1.000000
vt 0.264403 0.500000
vt 0.375000 0.500000
vt 0.375000 0.750000
vt 0.264403 0.750000
vt 0.762000 0.500000
vt 0.875000 0.500000
vt 0.875000 0.750000
vt 0.762000 0.750000
vt 0.735597 0.500000
vt 0.735597 0.750000
vt 0.125000 0.500000
vt 0.238000 0.500000
vt 0.238000 0.750000
vt 0.125000 0.750000
vt 0.529506 0.860597
vt 0.625000 0.860597
vt 0.625000 0.363000
vt 0.529506 0.363000
vt 0.375000 0.860597
vt 0.375000 0.250000
vt 0.375000 0.363000
vt 0.375000 0.887000
vt 0.375000 1.000000
vt 0.375000 0.389403
vt 0.375000 0.000000
vt 0.498903 0.000000
vt 0.625000 0.000000
vt 0.625000 0.250000
vt 0.498903 0.250000
vt 0.498903 0.384726
vt 0.625000 0.384726
vt 0.625000 0.500000
vt 0.498903 0.500000
vt 0.625000 0.750000
vt 0.498903 0.750000
vt 0.498903 0.884698
vt 0.625000 0.884698
vt 0.625000 1.000000
vt 0.498903 1.000000
vt 0.259726 0.500000
vt 0.375000 0.500000
vt 0.375000 0.750000
vt 0.259726 0.750000
vt 0.759698 0.500000
vt 0.875000 0.500000
vt 0.875000 0.750000
vt 0.759698 0.750000
vt 0.740274 0.500000
vt 0.740274 0.750000
vt 0.625000 0.865274
vt 0.498903 0.865274
vt 0.498903 0.365302
vt 0.625000 0.365302
vt 0.375000 0.865274
vt 0.375000 0.884698
vt 0.375000 1.000000
vt 0.375000 0.384726
vt 0.375000 0.000000
vt 0.375000 0.250000
vt 0.375000 0.365302
vt 0.125000 0.500000
vt 0.240302 0.500000
vt 0.240302 0.750000
vt 0.125000 0.750000
vt 0.375000 0.000000
vt 0.625000 0.000000
vt 0.625000 0.250000
vt 0.375000 0.250000
vt 0.625000 0.500000
vt 0.375000 0.500000
vt 0.625000 0.750000
vt 0.375000 0.750000
vt 0.625000 1.000000
vt 0.375000 1.000000
vt 0.125000 0.500000
vt 0.125000 0.750000
vt 0.875000 0.500000
vt 0.875000 0.750000
vt 0.375000 0.000000
vt 0.625000 0.000000
vt 0.625000 0.250000
vt 0.375000 0.250000
vt 0.625000 0.500000
vt 0.375000 0.500000
vt 0.625000 0.750000
vt 0.375000 0.750000
vt 0.625000 1.000000
vt 0.375000 1.000000
vt 0.125000 0.500000
vt 0.125000 0.750000
vt 0.875000 0.500000
vt 0.875000 0.750000
vt 0.375000 0.000000
vt 0.625000 0.000000
vt 0.625000 0.250000
vt 0.375000 0.250000
vt 0.625000 0.500000
vt 0.375000 0.500000
vt 0.625000 0.750000
vt 0.375000 0.750000
vt 0.625000 1.000000
vt 0.375000 1.000000
vt 0.125000 0.500000
vt 0.125000 0.750000
vt 0.875000 0.500000
vt 0.875000 0.750000
vt 0.375000 0.000000
vt 0.625000 0.000000
vt 0.625000 0.250000
vt 0.375000 0.250000
vt 0.625000 0.500000
vt 0.375000 0.500000
vt 0.625000 0.750000
vt 0.375000 0.750000
vt 0.625000 1.000000
vt 0.375000 1.000000
vt 0.125000 0.500000
vt 0.125000 0.750000
vt 0.875000 0.500000
vt 0.875000 0.750000
vt 0.375000 0.000000
vt 0.625000 0.000000
vt 0.625000 0.250000
vt 0.375000 0.250000
vt 0.625000 0.500000
vt 0.375000 0.500000
vt 0.625000 0.750000
vt 0.375000 0.750000
vt 0.625000 1.000000
vt 0.375000 1.000000
vt 0.125000 0.500000
vt 0.125000 0.750000
vt 0.875000 0.500000
vt 0.875000 0.750000
vt 0.375000 0.000000
vt 0.625000 0.000000
vt 0.625000 0.250000
vt 0.375000 0.250000
vt 0.625000 0.500000
vt 0.375000 0.500000
vt 0.625000 0.750000
vt 0.375000 0.750000
vt 0.625000 1.000000
vt 0.375000 1.000000
vt 0.125000 0.500000
vt 0.125000 0.750000
vt 0.875000 0.500000
vt 0.875000 0.750000
vt 0.375000 0.000000
vt 0.625000 0.000000
vt 0.625000 0.250000
vt 0.375000 0.250000
vt 0.625000 0.500000
vt 0.375000 0.500000
vt 0.625000 0.750000
vt 0.375000 0.750000
vt 0.625000 1.000000
vt 0.375000 1.000000
vt 0.125000 0.500000
vt 0.125000 0.750000
vt 0.875000 0.500000
vt 0.875000 0.750000
vt 0.375000 0.000000
vt 0.625000 0.000000
vt 0.625000 0.250000
vt 0.375000 0.250000
vt 0.625000 0.500000
vt 0.375000 0.500000
vt 0.625000 0.750000
vt 0.375000 0.750000
vt 0.625000 1.000000
vt 0.375000 1.000000
vt 0.125000 0.500000
vt 0.125000 0.750000
vt 0.875000 0.500000
vt 0.875000 0.750000
vt 0.375000 0.000000
vt 0.625000 0.000000
vt 0.625000 0.250000
vt 0.375000 0.250000
vt 0.625000 0.500000
vt 0.375000 0.500000
vt 0.625000 0.750000
vt 0.375000 0.750000
vt 0.625000 1.000000
vt 0.375000 1.000000
vt 0.125000 0.500000
vt 0.125000 0.750000
vt 0.375000 0.000000
vt 0.625000 0.000000
vt 0.625000 0.250000
vt 0.375000 0.250000
vt 0.625000 0.500000
vt 0.375000 0.500000
vt 0.625000 0.750000
vt 0.375000 0.750000
vt 0.625000 1.000000
vt 0.375000 1.000000
vt 0.125000 0.500000
vt 0.125000 0.750000
vt 0.375000 0.000000
vt 0.625000 0.000000
vt 0.625000 0.250000
vt 0.375000 0.250000
vt 0.625000 0.500000
vt 0.375000 0.500000
vt 0.625000 0.750000
vt 0.375000 0.750000
vt 0.625000 1.000000
vt 0.375000 1.000000
vt 0.125000 0.500000
vt 0.125000 0.750000
vt 0.875000 0.500000
vt 0.875000 0.750000
vt 0.375000 0.000000
vt 0.625000 0.000000
vt 0.625000 0.250000
vt 0.375000 0.250000
vt 0.625000 0.500000
vt 0.375000 0.500000
vt 0.625000 0.750000
vt 0.375000 0.750000
vt 0.625000 1.000000
vt 0.375000 1.000000
vt 0.125000 0.500000
vt 0.125000 0.750000
vt 0.875000 0.500000
vt 0.875000 0.750000
vt 0.625000 0.500000
vt 0.875000 0.500000
vt 0.875000 0.750000
vt 0.625000 0.750000
vt 0.625000 0.500000
vt 0.875000 0.500000
vt 0.875000 0.750000
vt 0.625000 0.750000
vt 0.625000 0.500000
vt 0.875000 0.500000
vt 0.875000 0.750000
vt 0.625000 0.750000
vn 0.0000 0.0000 1.0000
vn -1.0000 0.0000 0.0000
vn 0.0000 0.0000 -1.0000
vn 1.0000 0.0000 -0.0000
vn 0.0000 -1.0000 0.0000
vn 0.0000 1.0000 -0.0000
usemtl Material.001
s off
f 1/1/1 2/2/1 4/3/1 3/4/1
f 3/4/2 4/3/2 8/5/2 7/6/2
f 7/6/3 8/5/3 6/7/3 5/8/3
f 5/8/4 6/7/4 2/9/4 1/10/4
f 3/11/5 7/6/5 5/8/5 1/12/5
f 8/5/6 4/13/6 2/14/6 6/7/6
f 9/15/1 10/16/1 12/17/1 11/18/1
f 11/18/2 12/17/2 16/19/2 15/20/2
f 15/20/3 16/19/3 14/21/3 13/22/3
f 13/22/4 14/21/4 10/23/4 9/24/4
f 11/25/5 15/20/5 13/22/5 9/26/5
f 29/27/1 18/28/1 20/29/1 30/30/1
f 34/31/2 26/32/2 24/33/2 31/34/2
f 31/34/3 24/33/3 22/35/3 32/36/3
f 40/37/4 36/38/4 18/39/4 29/40/4
f 25/41/5 23/42/5 21/43/5 27/44/5
f 37/45/6 20/46/6 18/47/6 36/48/6
f 24/33/6 26/49/6 28/50/6 22/35/6
f 32/36/4 22/35/4 28/51/4 33/52/4
f 39/53/2 37/54/2 26/32/2 34/31/2
f 21/43/4 32/36/4 33/52/4 27/55/4
f 38/56/4 40/37/4 29/40/4 17/57/4
f 23/42/3 31/34/3 32/36/3 21/43/3
f 25/58/2 34/31/2 31/34/2 23/42/2
f 17/59/1 29/27/1 30/30/1 19/60/1
f 19/60/2 30/30/2 39/53/2 35/61/2
f 30/30/2 20/29/2 37/54/2 39/53/2
f 19/62/5 35/63/5 38/64/5 17/65/5
f 26/49/6 37/45/6 36/48/6 28/50/6
f 33/52/4 28/51/4 36/38/4 40/37/4
f 25/58/1 27/55/1 33/52/1 34/31/1
f 38/64/3 35/63/3 39/53/3 40/37/3
f 57/66/4 42/67/4 44/68/4 58/69/4
f 64/70/1 53/71/1 48/72/1 59/73/1
f 59/73/2 48/72/2 46/74/2 60/75/2
f 61/76/3 52/77/3 42/78/3 57/79/3
f 55/80/5 47/81/5 45/82/5 54/83/5
f 50/84/6 44/85/6 42/86/6 52/87/6
f 53/88/6 50/84/6 52/87/6 56/89/6
f 43/90/5 49/91/5 51/92/5 41/93/5
f 63/94/3 56/95/3 52/77/3 61/76/3
f 58/69/1 44/68/1 50/96/1 62/97/1
f 60/75/3 46/74/3 56/95/3 63/94/3
f 48/72/6 53/88/6 56/89/6 46/74/6
f 63/94/4 64/70/4 55/80/4 54/98/4
f 62/97/1 50/96/1 53/71/1 64/70/1
f 45/82/3 60/75/3 63/94/3 54/98/3
f 43/99/1 58/69/1 62/97/1 49/100/1
f 51/101/3 61/76/3 57/79/3 41/102/3
f 47/81/2 59/73/2 60/75/2 45/82/2
f 55/103/1 64/70/1 59/73/1 47/81/1
f 41/104/4 57/66/4 58/69/4 43/99/4
f 62/97/5 64/70/5 63/94/5 61/76/5
f 61/76/2 51/101/2 49/91/2 62/97/2
f 81/105/4 66/106/4 68/107/4 82/108/4
f 88/109/1 77/110/1 72/111/1 83/112/1
f 83/112/2 72/111/2 70/113/2 84/114/2
f 85/115/3 76/116/3 66/117/3 81/118/3
f 79/119/5 71/120/5 69/121/5 78/122/5
f 74/123/6 68/124/6 66/125/6 76/126/6
f 77/127/6 74/123/6 76/126/6 80/128/6
f 67/129/5 73/130/5 75/131/5 65/132/5
f 87/133/3 80/134/3 76/116/3 85/115/3
f 82/108/1 68/107/1 74/135/1 86/136/1
f 84/114/3 70/113/3 80/134/3 87/133/3
f 72/111/6 77/127/6 80/128/6 70/113/6
f 87/133/4 88/109/4 79/119/4 78/137/4
f 86/136/1 74/135/1 77/110/1 88/109/1
f 69/121/3 84/114/3 87/133/3 78/137/3
f 67/138/1 82/108/1 86/136/1 73/139/1
f 75/140/3 85/115/3 81/118/3 65/141/3
f 71/120/2 83/112/2 84/114/2 69/121/2
f 79/142/1 88/109/1 83/112/1 71/120/1
f 65/143/4 81/105/4 82/108/4 67/138/4
f 85/115/2 75/140/2 73/130/2 86/136/2
f 86/136/5 88/109/5 87/133/5 85/115/5
f 101/144/1 90/145/1 92/146/1 102/147/1
f 106/148/2 98/149/2 96/150/2 103/151/2
f 103/151/3 96/150/3 94/152/3 104/153/3
f 112/154/4 108/155/4 90/156/4 101/157/4
f 97/158/5 95/159/5 93/160/5 99/161/5
f 109/162/6 92/163/6 90/164/6 108/165/6
f 96/150/6 98/166/6 100/167/6 94/152/6
f 104/153/4 94/152/4 100/168/4 105/169/4
f 111/170/2 109/171/2 98/149/2 106/148/2
f 93/160/4 104/153/4 105/169/4 99/172/4
f 110/173/4 112/154/4 101/157/4 89/174/4
f 95/159/3 103/151/3 104/153/3 93/160/3
f 97/175/2 106/148/2 103/151/2 95/159/2
f 89/176/1 101/144/1 102/147/1 91/177/1
f 91/177/2 102/147/2 111/170/2 107/178/2
f 102/147/2 92/146/2 109/171/2 111/170/2
f 91/179/5 107/180/5 110/181/5 89/182/5
f 98/166/6 109/162/6 108/165/6 100/167/6
f 105/169/4 100/168/4 108/155/4 112/154/4
f 97/175/1 99/172/1 105/169/1 106/148/1
f 111/170/5 106/148/5 105/169/5 112/154/5
f 110/181/3 107/180/3 111/170/3 112/154/3
f 113/183/1 114/184/1 116/185/1 115/186/1
f 115/186/2 116/185/2 120/187/2 119/188/2
f 119/188/3 120/187/3 118/189/3 117/190/3
f 117/190/4 118/189/4 114/191/4 113/192/4
f 115/193/5 119/188/5 117/190/5 113/194/5
f 120/187/6 116/195/6 114/196/6 118/189/6
f 121/197/1 122/198/1 124/199/1 123/200/1
f 123/200/2 124/199/2 128/201/2 127/202/2
f 127/202/3 128/201/3 126/203/3 125/204/3
f 125/204/4 126/203/4 122/205/4 121/206/4
f 123/207/5 127/202/5 125/204/5 121/208/5
f 128/201/6 124/209/6 122/210/6 126/203/6
f 129/211/4 130/212/4 132/213/4 131/214/4
f 131/214/1 132/213/1 136/215/1 135/216/1
f 135/216/2 136/215/2 134/217/2 133/218/2
f 133/218/3 134/217/3 130/219/3 129/220/3
f 131/221/5 135/216/5 133/218/5 129/222/5
f 136/215/6 132/223/6 130/224/6 134/217/6
f 137/225/4 138/226/4 140/227/4 139/228/4
f 139/228/1 140/227/1 144/229/1 143/230/1
f 143/230/2 144/229/2 142/231/2 141/232/2
f 141/232/3 142/231/3 138/233/3 137/234/3
f 139/235/5 143/230/5 141/232/5 137/236/5
f 144/229/6 140/237/6 138/238/6 142/231/6
f 145/239/1 146/240/1 148/241/1 147/242/1
f 147/242/2 148/241/2 152/243/2 151/244/2
f 151/244/3 152/243/3 150/245/3 149/246/3
f 149/246/4 150/245/4 146/247/4 145/248/4
f 147/249/5 151/244/5 149/246/5 145/250/5
f 152/243/6 148/251/6 146/252/6 150/245/6
f 153/253/4 154/254/4 156/255/4 155/256/4
f 155/256/1 156/255/1 160/257/1 159/258/1
f 159/258/2 160/257/2 158/259/2 157/260/2
f 157/260/3 158/259/3 154/261/3 153/262/3
f 155/263/5 159/258/5 157/260/5 153/264/5
f 160/257/6 156/265/6 154/266/6 158/259/6
f 161/267/1 162/268/1 164/269/1 163/270/1
f 163/270/2 164/269/2 168/271/2 167/272/2
f 167/272/3 168/271/3 166/273/3 165/274/3
f 165/274/4 166/273/4 162/275/4 161/276/4
f 163/277/5 167/272/5 165/274/5 161/278/5
f 168/271/6 164/279/6 162/280/6 166/273/6
f 169/281/4 170/282/4 172/283/4 171/284/4
f 171/284/1 172/283/1 176/285/1 175/286/1
f 175/286/2 176/285/2 174/287/2 173/288/2
f 173/288/3 174/287/3 170/289/3 169/290/3
f 171/291/5 175/286/5 173/288/5 169/292/5
f 176/285/6 172/293/6 170/294/6 174/287/6
f 177/295/1 178/296/1 180/297/1 179/298/1
f 179/298/2 180/297/2 184/299/2 183/300/2
f 183/300/3 184/299/3 182/301/3 181/302/3
f 181/302/4 182/301/4 178/303/4 177/304/4
f 179/305/5 183/300/5 181/302/5 177/306/5
f 185/307/1 186/308/1 188/309/1 187/310/1
f 187/310/2 188/309/2 192/311/2 191/312/2
f 191/312/3 192/311/3 190/313/3 189/314/3
f 189/314/4 190/313/4 186/315/4 185/316/4
f 187/317/5 191/312/5 189/314/5 185/318/5
f 193/319/1 194/320/1 196/321/1 195/322/1
f 195/322/2 196/321/2 200/323/2 199/324/2
f 199/324/3 200/323/3 198/325/3 197/326/3
f 197/326/4 198/325/4 194/327/4 193/328/4
f 195/329/5 199/324/5 197/326/5 193/330/5
f 200/323/6 196/331/6 194/332/6 198/325/6
f 201/333/1 202/334/1 204/335/1 203/336/1
f 203/336/2 204/335/2 208/337/2 207/338/2
f 207/338/3 208/337/3 206/339/3 205/340/3
f 205/340/4 206/339/4 202/341/4 201/342/4
f 203/343/5 207/338/5 205/340/5 201/344/5
f 208/337/6 204/345/6 202/346/6 206/339/6
f 39/53/5 34/31/5 33/52/5 40/37/5
usemtl Material.002
f 212/347/6 210/348/6 209/349/6 211/350/6
f 216/351/6 214/352/6 213/353/6 215/354/6
f 220/355/6 218/356/6 217/357/6 219/358/6
