# Blender v2.92.0 OBJ File: 'escenaNivel4.blend'
# www.blender.org
o Flecha_1_Cono.001
v 0.656034 -0.039423 0.002884
v 0.823976 0.000000 0.003622
v 0.655869 -0.012182 0.040376
v 0.655932 0.031894 0.026055
v 0.656136 0.031894 -0.020288
v 0.656199 -0.012182 -0.034609
v -0.761985 0.021254 -0.003349
v -0.761919 0.015029 -0.018378
v -0.761985 0.021254 -0.003349
v -0.762051 0.015029 0.011680
v -0.762051 0.015029 0.011680
v -0.762051 -0.015029 0.011680
v -0.762078 0.000000 0.017905
v -0.762051 -0.015029 0.011680
v -0.761891 -0.000000 -0.024603
v -0.761919 -0.015029 -0.018378
v -0.761891 -0.000000 -0.024603
v -0.761985 -0.021254 -0.003349
v -0.761985 -0.021254 -0.003349
v -0.761919 0.015029 -0.018378
v -0.762078 0.000000 0.017905
v -0.761919 -0.015029 -0.018378
v 0.724347 0.000651 0.002534
v 0.724341 0.000651 0.003835
v 0.724341 -0.000651 0.003835
v 0.657757 0.015029 0.017920
v 0.657757 -0.015029 0.017920
v 0.657889 -0.015029 -0.012137
v -0.524772 -0.002386 -0.067584
v -0.789193 0.002386 -0.068746
v -0.789193 -0.002386 -0.068746
v -0.625648 0.002386 -0.002750
v -0.789767 -0.002386 0.061806
v -0.625648 -0.002386 -0.002750
v -0.789767 0.002386 0.061806
v -0.525346 -0.002386 0.062969
v -0.443373 0.002386 -0.001949
v -0.443373 -0.002386 -0.001949
v -0.524772 0.002386 -0.067584
v -0.525346 0.002386 0.062969
v 0.724344 0.000920 0.003184
v 0.724340 0.000000 0.004104
v 0.724344 -0.000920 0.003184
v 0.724347 -0.000651 0.002534
v 0.724348 -0.000000 0.002264
v 0.657889 0.015029 -0.012137
v 0.657823 0.021254 0.002891
v 0.657729 0.000000 0.024145
v 0.657823 -0.021254 0.002891
v 0.657916 -0.000000 -0.018362
v -0.761985 0.021254 -0.003349
v -0.709514 0.015029 0.011911
v -0.709448 0.021254 -0.003118
v -0.762051 0.015029 0.011680
v -0.709542 0.000000 0.018135
v -0.762078 0.000000 0.017905
v -0.709514 -0.015029 0.011911
v -0.762051 -0.015029 0.011680
v -0.709448 -0.021254 -0.003118
v -0.761985 -0.021254 -0.003349
v -0.709382 -0.015029 -0.018147
v -0.761891 -0.000000 -0.024603
v -0.709355 -0.000000 -0.024372
v -0.761919 0.015029 -0.018378
v -0.709382 0.015029 -0.018147
v -0.687869 -0.015029 -0.018053
v -0.687842 -0.000000 -0.024278
v -0.687869 0.015029 -0.018053
v -0.687935 0.021254 -0.003024
v -0.687935 -0.021254 -0.003024
v -0.688001 -0.015029 0.012005
v -0.459473 0.015029 0.013010
v -0.459407 0.021254 -0.002019
v -0.688001 0.015029 0.012005
v -0.459500 0.000000 0.019235
v -0.688029 0.000000 0.018230
v -0.459473 -0.015029 0.013010
v -0.459407 -0.021254 -0.002019
v -0.459340 -0.015029 -0.017048
v -0.459313 -0.000000 -0.023273
v -0.459340 0.015029 -0.017048
v -0.761891 -0.000000 -0.024603
v -0.761985 -0.021254 -0.003349
v -0.762078 0.000000 0.017905
v 0.657889 0.015029 -0.012137
v -0.015057 0.021254 -0.000066
v 0.657823 0.021254 0.002891
v -0.014963 -0.000000 -0.021320
v 0.657916 -0.000000 -0.018362
v -0.014991 -0.015029 -0.015095
v 0.657889 -0.015029 -0.012137
v -0.015057 -0.021254 -0.000066
v 0.657823 -0.021254 0.002891
v -0.015123 -0.015029 0.014963
v 0.657757 -0.015029 0.017920
v -0.015150 0.000000 0.021188
v 0.657729 0.000000 0.024145
v 0.657757 0.015029 0.017920
v -0.431358 0.021254 -0.001896
v -0.015123 0.015029 0.014963
v -0.431424 0.015029 0.013133
v -0.431451 0.000000 0.019358
v -0.431424 -0.015029 0.013133
v -0.431358 -0.021254 -0.001896
v -0.431292 -0.015029 -0.016925
v -0.431264 -0.000000 -0.023150
v -0.014991 0.015029 -0.015095
v -0.431292 0.015029 -0.016925
v -0.761919 -0.015029 -0.018378
v -0.762051 0.015029 0.011680
v -0.761985 0.021254 -0.003349
v -0.761919 0.015029 -0.018378
v -0.761919 -0.015029 -0.018378
v -0.762051 -0.015029 0.011680
vt 0.259431 0.818693
vt 0.348329 0.925515
vt 0.170534 0.842848
vt 0.327608 0.645660
vt 0.327608 0.776784
vt 0.211755 0.665190
vt 0.087465 0.691747
vt 0.204298 0.586688
vt 0.204298 0.711164
vt 0.071389 0.769950
vt 0.256029 0.734281
vt 0.256029 0.803707
vt 0.071389 0.945426
vt 0.151943 0.825751
vt 0.187914 0.945426
vt 0.348329 0.794537
vt 0.000000 0.000000
vt 0.000000 0.000000
vt 0.000000 0.000000
vt 0.000000 0.000000
vt 0.000000 0.000000
vt 0.000000 0.000000
vt 0.000000 0.000000
vt 0.000000 0.000000
vt 0.000000 0.000000
vt 0.000000 0.000000
vt 0.000000 0.000000
vt 0.000000 0.000000
vt 0.000000 0.000000
vt 0.000000 0.000000
vt 0.000000 0.000000
vt 0.000000 0.000000
vt 0.196439 0.879567
vt 0.194761 0.879117
vt 0.195456 0.877227
vt 0.497874 0.949277
vt 0.513927 0.905623
vt 0.552683 0.916005
vt 0.405661 0.022165
vt 0.257522 0.082459
vt 0.254377 0.070506
vt 0.351060 0.030149
vt 0.204511 0.063969
vt 0.347142 0.018393
vt 0.257522 0.082459
vt 0.438666 0.037726
vt 0.261339 0.094388
vt 0.343640 0.068090
vt 0.448860 0.047621
vt 0.347453 0.080024
vt 0.390505 0.261347
vt 0.375209 0.446153
vt 0.268261 0.300409
vt 0.482505 0.591786
vt 0.497826 0.406972
vt 0.604794 0.552711
vt 0.602154 0.733472
vt 0.424753 0.790158
vt 0.270880 0.119654
vt 0.448217 0.062988
vt 0.265148 0.106324
vt 0.204511 0.063969
vt 0.313403 0.016026
vt 0.317094 0.027994
vt 0.141915 0.825751
vt 0.141915 0.713419
vt 0.195456 0.879733
vt 0.194761 0.878079
vt 0.196439 0.877061
vt 0.197134 0.877677
vt 0.197134 0.878715
vt 0.536630 0.959659
vt 0.513927 0.963509
vt 0.497874 0.925300
vt 0.536630 0.901772
vt 0.552683 0.939982
vt 0.408807 0.034118
vt 0.208429 0.075725
vt 0.434849 0.025796
vt 0.445046 0.035687
vt 0.552546 0.389487
vt 0.320425 0.463659
vt 0.261335 0.094390
vt 0.200819 0.052001
vt 0.803900 0.000000
vt 0.843358 0.037239
vt 0.803900 0.036989
vt 1.000000 0.856825
vt 0.958322 0.828054
vt 1.000000 0.825270
vt 0.958322 0.859609
vt 0.922255 0.821227
vt 0.685526 0.000000
vt 0.724984 0.037003
vt 0.685526 0.037003
vt 0.724984 0.000000
vt 0.764442 0.037003
vt 0.922255 0.962595
vt 0.883168 0.999867
vt 0.883168 0.962879
vt 0.843358 0.999611
vt 0.843358 0.962624
vt 0.764442 0.037239
vt 0.922255 0.947450
vt 0.883168 0.947734
vt 0.764442 0.052386
vt 0.803900 0.052136
vt 0.724984 0.052155
vt 0.764442 0.052155
vt 0.685526 0.052155
vt 0.922255 0.808306
vt 0.843358 0.213286
vt 0.803900 0.213036
vt 1.000000 0.812349
vt 0.958322 0.677871
vt 1.000000 0.675087
vt 0.958322 0.815133
vt 0.922255 0.671044
vt 0.724984 0.213112
vt 0.685526 0.213112
vt 0.764442 0.213112
vt 0.883168 0.786843
vt 0.922255 0.786559
vt 0.843358 0.786588
vt 0.764442 0.213286
vt 0.843358 0.052386
vt 0.843358 0.947478
vt 0.565988 0.955298
vt 0.595792 0.913915
vt 0.667746 0.931582
vt 0.764442 0.999892
vt 0.803900 0.525889
vt 0.803900 0.999642
vt 0.883168 0.474009
vt 0.843358 0.000029
vt 0.883168 0.000284
vt 0.922255 0.473725
vt 0.922255 0.000000
vt 0.724984 0.526077
vt 0.764442 1.000000
vt 0.724984 1.000000
vt 0.685526 0.526077
vt 0.685526 1.000000
vt 0.958322 0.410980
vt 0.922255 0.000000
vt 0.958322 0.006826
vt 1.000000 0.004043
vt 0.843358 0.999892
vt 0.803900 0.232784
vt 0.843358 0.526139
vt 1.000000 0.658240
vt 1.000000 0.408196
vt 0.958322 0.661024
vt 0.922255 0.404153
vt 0.685526 0.232868
vt 0.724984 0.232868
vt 0.764442 0.526077
vt 0.922255 0.766812
vt 0.883168 0.767096
vt 0.843358 0.473754
vt 0.764442 0.526139
vt 0.843358 0.766841
vt 0.764442 0.232868
vt 0.922255 0.654197
vt 0.843358 0.233034
vt 0.764442 0.233034
vt 0.843358 0.000250
vt 0.922255 0.852783
vt 0.764442 0.000000
vt 0.922255 0.999583
vt 0.764442 0.000250
vt 0.667746 0.955932
vt 0.637942 0.972965
vt 0.595792 0.972702
vt 0.565988 0.930948
vt 0.637942 0.914178
vn 0.1840 -0.7948 0.5783
vn 0.1825 0.3036 0.9352
vn 0.1866 0.9824 0.0008
vn -1.0000 0.0000 -0.0044
vn 0.1907 0.3036 -0.9335
vn 0.1891 -0.7948 -0.5766
vn 0.0000 0.0000 1.0000
vn 1.0000 -0.0000 0.0044
vn -0.0044 0.0000 1.0000
vn 0.3660 0.0000 0.9306
vn 0.0044 0.0000 -1.0000
vn -0.6277 0.0000 0.7785
vn 0.0000 1.0000 -0.0000
vn -0.0000 -1.0000 0.0000
vn -0.6208 0.0000 -0.7839
vn 0.3742 0.0000 -0.9273
vn 1.0000 -0.0002 0.0044
vn -0.0017 0.9239 0.3827
vn -0.0041 0.3827 0.9239
vn -0.0041 -0.3827 0.9239
vn -0.0017 -0.9239 0.3827
vn 0.0017 -0.9239 -0.3827
vn 0.0041 -0.3827 -0.9239
vn 0.0041 0.3827 -0.9239
vn 0.0017 0.9239 -0.3827
s 1
f 1/1/1 2/2/1 3/3/1
f 3/4/2 2/5/2 4/6/2
f 4/7/3 2/8/3 5/9/3
f 3/10/4 5/11/4 6/12/4
f 5/13/5 2/14/5 6/15/5
f 6/16/6 2/2/6 1/1/6
f 7/17/7 8/18/7 9/19/7
f 10/20/7 9/19/7 11/21/7
f 12/22/7 13/23/7 14/24/7
f 15/25/7 16/26/7 17/27/7
f 18/28/7 14/24/7 19/29/7
f 20/30/7 17/27/7 8/18/7
f 21/31/7 11/21/7 13/23/7
f 22/32/7 19/29/7 16/26/7
f 23/33/8 24/34/8 25/35/8
f 26/36/8 27/37/8 28/38/8
f 29/39/9 30/40/9 31/41/9
f 32/42/10 33/43/10 34/44/10
f 35/45/11 36/46/11 33/47/11
f 37/48/12 29/49/12 38/50/12
f 34/51/13 36/52/13 38/53/13
f 32/54/14 39/55/14 37/56/14
f 32/54/14 40/57/14 35/58/14
f 34/51/13 29/59/13 31/60/13
f 36/61/15 37/48/15 38/50/15
f 31/62/16 32/63/16 34/64/16
f 6/12/4 1/65/4 3/10/4
f 3/10/4 4/66/4 5/11/4
f 7/17/7 20/30/7 8/18/7
f 10/20/7 7/17/7 9/19/7
f 12/22/7 21/31/7 13/23/7
f 15/25/7 22/32/7 16/26/7
f 18/28/7 12/22/7 14/24/7
f 20/30/7 15/25/7 17/27/7
f 21/31/7 10/20/7 11/21/7
f 22/32/7 18/28/7 19/29/7
f 23/33/8 41/67/17 24/34/8
f 24/34/8 42/68/8 25/35/8
f 25/35/8 43/69/8 23/33/8
f 43/69/8 44/70/8 23/33/8
f 44/70/8 45/71/8 23/33/8
f 46/72/8 47/73/8 26/36/8
f 26/36/8 48/74/8 27/37/8
f 27/37/8 49/75/8 28/38/8
f 28/38/8 50/76/8 46/72/8
f 46/72/8 26/36/8 28/38/8
f 29/39/9 39/77/9 30/40/9
f 32/42/10 35/78/10 33/43/10
f 35/45/11 40/79/11 36/46/11
f 37/48/12 39/80/12 29/49/12
f 34/51/13 33/81/13 36/52/13
f 32/54/14 30/82/14 39/55/14
f 32/54/14 37/56/14 40/57/14
f 34/51/13 38/53/13 29/59/13
f 36/61/15 40/83/15 37/48/15
f 31/62/16 30/84/16 32/63/16
f 51/85/18 52/86/18 53/87/18
f 54/88/19 55/89/19 52/90/19
f 56/91/20 57/92/20 55/89/20
f 58/93/21 59/94/21 57/95/21
f 60/96/22 61/97/22 59/94/22
f 61/98/23 62/99/23 63/100/23
f 63/100/24 64/101/24 65/102/24
f 65/103/25 51/85/25 53/87/25
f 66/104/23 63/100/23 67/105/23
f 68/106/25 53/87/25 69/107/25
f 70/108/22 61/97/22 66/109/22
f 71/110/21 59/94/21 70/108/21
f 71/111/20 55/89/20 57/92/20
f 69/107/18 72/112/18 73/113/18
f 74/114/19 75/115/19 72/116/19
f 76/117/20 77/118/20 75/115/20
f 71/110/21 78/119/21 77/120/21
f 70/108/22 79/121/22 78/119/22
f 66/104/23 80/122/23 79/123/23
f 67/105/24 81/124/24 80/122/24
f 68/106/25 73/113/25 81/125/25
f 69/107/18 52/86/18 74/126/18
f 67/105/24 65/102/24 68/127/24
f 74/114/19 55/89/19 76/117/19
f 82/128/4 83/129/4 84/130/4
f 85/131/25 86/132/25 87/133/25
f 88/134/24 85/135/24 89/136/24
f 90/137/23 89/136/23 91/138/23
f 92/139/22 91/140/22 93/141/22
f 94/142/21 93/141/21 95/143/21
f 96/144/20 95/145/20 97/146/20
f 98/147/19 96/144/19 97/146/19
f 86/132/18 98/148/18 87/133/18
f 99/149/18 100/150/18 86/132/18
f 101/151/19 96/144/19 100/152/19
f 102/153/20 94/154/20 96/144/20
f 103/155/21 92/139/21 94/142/21
f 104/156/22 90/157/22 92/139/22
f 105/158/23 88/134/23 90/137/23
f 106/159/24 107/160/24 88/134/24
f 107/161/25 99/149/25 86/132/25
f 106/159/24 81/124/24 108/162/24
f 105/158/23 80/122/23 106/159/23
f 104/156/22 79/121/22 105/163/22
f 104/156/21 77/120/21 78/119/21
f 103/164/20 75/115/20 77/118/20
f 102/153/19 72/116/19 75/115/19
f 99/149/18 72/112/18 101/165/18
f 108/166/25 73/113/25 99/149/25
f 51/85/18 54/167/18 52/86/18
f 54/88/19 56/91/19 55/89/19
f 56/91/20 58/168/20 57/92/20
f 58/93/21 60/96/21 59/94/21
f 60/96/22 109/169/22 61/97/22
f 61/98/23 109/170/23 62/99/23
f 63/100/24 62/99/24 64/101/24
f 65/103/25 64/171/25 51/85/25
f 66/104/23 61/98/23 63/100/23
f 68/106/25 65/103/25 53/87/25
f 70/108/22 59/94/22 61/97/22
f 71/110/21 57/95/21 59/94/21
f 71/111/20 76/117/20 55/89/20
f 69/107/18 74/126/18 72/112/18
f 74/114/19 76/117/19 75/115/19
f 76/117/20 71/111/20 77/118/20
f 71/110/21 70/108/21 78/119/21
f 70/108/22 66/109/22 79/121/22
f 66/104/23 67/105/23 80/122/23
f 67/105/24 68/127/24 81/124/24
f 68/106/25 69/107/25 73/113/25
f 69/107/18 53/87/18 52/86/18
f 67/105/24 63/100/24 65/102/24
f 74/114/19 52/90/19 55/89/19
f 84/130/4 110/172/4 82/128/4
f 110/172/4 111/173/4 82/128/4
f 111/173/4 112/174/4 82/128/4
f 82/128/4 113/175/4 83/129/4
f 83/129/4 114/176/4 84/130/4
f 85/131/25 107/161/25 86/132/25
f 88/134/24 107/160/24 85/135/24
f 90/137/23 88/134/23 89/136/23
f 92/139/22 90/157/22 91/140/22
f 94/142/21 92/139/21 93/141/21
f 96/144/20 94/154/20 95/145/20
f 98/147/19 100/152/19 96/144/19
f 86/132/18 100/150/18 98/148/18
f 99/149/18 101/165/18 100/150/18
f 101/151/19 102/153/19 96/144/19
f 102/153/20 103/164/20 94/154/20
f 103/155/21 104/156/21 92/139/21
f 104/156/22 105/163/22 90/157/22
f 105/158/23 106/159/23 88/134/23
f 106/159/24 108/162/24 107/160/24
f 107/161/25 108/166/25 99/149/25
f 106/159/24 80/122/24 81/124/24
f 105/158/23 79/123/23 80/122/23
f 104/156/22 78/119/22 79/121/22
f 104/156/21 103/155/21 77/120/21
f 103/164/20 102/153/20 75/115/20
f 102/153/19 101/151/19 72/116/19
f 99/149/18 73/113/18 72/112/18
f 108/166/25 81/125/25 73/113/25
