# Blender v2.90.1 OBJ File: 'orbePasoNivel.blend'
# www.blender.org
mtllib orbePasoNivel.mtl
o Espada_1.002_Cube.001
v -0.065325 -0.038573 0.022285
v -0.065325 -0.038573 -0.021814
v 0.066973 -0.038573 0.022285
v 0.066973 -0.038573 -0.021814
v 0.033052 -0.004067 -0.018395
v 0.033052 -0.004067 0.018866
v -0.033097 -0.004067 -0.018395
v -0.033097 -0.004067 0.018866
v 0.023306 0.016781 0.015617
v -0.045321 0.016781 -0.008552
v -0.023351 0.016781 0.015617
v -0.045321 0.016781 0.015617
v 0.046968 0.016781 0.015617
v 0.046968 0.016781 -0.015146
v 0.023306 0.016781 -0.015146
v -0.045321 0.016781 -0.015146
v -0.023351 0.016781 -0.015146
v -0.022629 0.150435 0.001459
v -0.022629 0.150435 -0.000988
v -0.085109 0.016781 0.022285
v -0.085109 0.016781 -0.021814
v -0.015290 0.150435 0.001459
v -0.015290 0.150435 -0.000988
v 0.047190 0.016781 0.022285
v 0.047190 0.016781 -0.021814
v 0.014547 0.037899 -0.018524
v 0.014547 0.037899 0.018994
v -0.051603 0.037899 -0.018524
v -0.051603 0.037899 0.018994
v -0.027259 0.089974 -0.010409
v -0.025199 0.094381 0.010193
v -0.009797 0.089974 -0.010409
v -0.011857 0.094381 0.010193
v 0.016506 0.150435 0.001459
v 0.016506 0.150435 -0.000988
v -0.045973 0.016781 0.022285
v -0.045973 0.016781 -0.021814
v 0.023846 0.150435 0.001459
v 0.023846 0.150435 -0.000988
v 0.086325 0.016781 0.022285
v 0.086325 0.016781 -0.021814
v 0.055249 0.037899 -0.018524
v 0.055249 0.037899 0.018994
v -0.010900 0.037899 -0.018524
v -0.010900 0.037899 0.018994
v 0.013444 0.089974 -0.010409
v 0.015504 0.094381 0.010193
v 0.030906 0.089974 -0.010409
v 0.028845 0.094381 0.010193
v 0.105964 -0.366190 0.000000
v 0.170127 -0.195750 0.105144
v 0.000507 -0.301712 0.170128
v -0.104326 -0.367202 0.000000
v 0.000507 -0.301712 -0.170128
v 0.170127 -0.195750 -0.105144
v -0.000507 -0.091423 0.170128
v -0.170127 -0.197385 0.105144
v -0.170127 -0.197385 -0.105144
v -0.000507 -0.091423 -0.170128
v 0.104326 -0.025934 0.000000
v -0.105964 -0.026946 0.000000
vt 0.375000 0.250000
vt 0.625000 0.250000
vt 0.625000 0.500000
vt 0.375000 0.500000
vt 0.625000 0.580045
vt 0.375000 0.580045
vt 0.125000 0.500000
vt 0.319880 0.541048
vt 0.176365 0.541048
vt 0.680120 0.541048
vt 0.695287 0.580045
vt 0.521933 0.500000
vt 0.536015 0.500000
vt 0.536015 0.250000
vt 0.521933 0.250000
vt 0.875000 0.500000
vt 0.823635 0.541048
vt 0.571620 0.172006
vt 0.559994 0.172006
vt 0.375000 0.169955
vt 0.573951 0.169955
vt 0.625000 0.169955
vt 0.559994 0.577994
vt 0.571620 0.577994
vt 0.191421 0.580045
vt 0.125000 0.580045
vt 0.303492 0.580045
vt 0.875000 0.580045
vt 0.809702 0.580045
vt 0.375000 0.000000
vt 0.625000 0.000000
vt 0.625000 0.250000
vt 0.375000 0.250000
vt 0.625000 0.500000
vt 0.375000 0.500000
vt 0.625000 0.750000
vt 0.375000 0.750000
vt 0.625000 1.000000
vt 0.375000 1.000000
vt 0.125000 0.500000
vt 0.322182 0.539501
vt 0.179717 0.539501
vt 0.677818 0.539501
vt 0.713308 0.636908
vt 0.783250 0.636908
vt 0.820283 0.539501
vt 0.875000 0.500000
vt 0.875000 0.750000
vt 0.625000 0.711302
vt 0.625000 0.694815
vt 0.536063 0.500000
vt 0.521884 0.500000
vt 0.536063 0.250000
vt 0.521884 0.250000
vt 0.625000 0.055185
vt 0.625000 0.038698
vt 0.223113 0.645152
vt 0.280592 0.645152
vt 0.125000 0.750000
vt 0.875000 0.711302
vt 0.875000 0.694815
vt 0.375000 0.000000
vt 0.625000 0.000000
vt 0.625000 0.250000
vt 0.375000 0.250000
vt 0.625000 0.500000
vt 0.375000 0.500000
vt 0.625000 0.750000
vt 0.375000 0.750000
vt 0.625000 1.000000
vt 0.375000 1.000000
vt 0.125000 0.500000
vt 0.325641 0.539501
vt 0.183155 0.539501
vt 0.674359 0.539501
vt 0.707071 0.636908
vt 0.776991 0.636908
vt 0.816845 0.539501
vt 0.875000 0.500000
vt 0.875000 0.750000
vt 0.625000 0.711302
vt 0.625000 0.694815
vt 0.536063 0.500000
vt 0.521884 0.500000
vt 0.536063 0.250000
vt 0.521884 0.250000
vt 0.625000 0.055185
vt 0.625000 0.038698
vt 0.229852 0.645152
vt 0.287305 0.645152
vt 0.125000 0.750000
vt 0.875000 0.711302
vt 0.875000 0.694815
vt 0.818181 0.000000
vt 0.727272 0.157461
vt 0.909090 0.157461
vt 0.636363 0.000000
vt 0.545454 0.157461
vt 0.090909 0.000000
vt 0.000000 0.157461
vt 0.181818 0.157461
vt 0.272727 0.000000
vt 0.363636 0.157461
vt 0.454545 0.000000
vt 0.636363 0.314921
vt 0.818181 0.314921
vt 0.090909 0.314921
vt 0.272727 0.314921
vt 0.454545 0.314921
vt 1.000000 0.314921
vt 0.727272 0.472382
vt 0.909090 0.472382
vt 0.181818 0.472382
vt 0.363636 0.472382
vt 0.545454 0.472382
vn 0.0000 -1.0000 0.0000
vn 0.9405 0.3399 0.0000
vn 0.0000 0.0986 0.9951
vn 0.0240 0.1382 -0.9901
vn 0.0000 1.0000 0.0000
vn 0.0000 0.0986 -0.9951
vn 0.9059 -0.4235 0.0000
vn -0.9405 0.3399 0.0000
vn -0.9059 -0.4235 0.0000
vn -0.0260 0.1390 0.9900
vn 0.0240 0.1382 0.9901
vn -0.0260 0.1390 -0.9900
vn -0.9059 0.4235 -0.0000
vn 0.9059 0.4235 -0.0000
vn 0.0000 0.1540 0.9881
vn 0.0000 0.1540 -0.9881
vn 0.0000 -0.9779 0.2092
vn 0.5801 -0.5746 0.5774
vn 0.9359 -0.3523 0.0000
vn 0.0045 -0.9342 0.3568
vn 0.0045 -0.9342 -0.3568
vn 0.5801 -0.5746 -0.5774
vn 0.9324 0.3613 0.0000
vn 0.3568 0.0017 0.9342
vn -0.5746 -0.5801 0.5774
vn -0.5746 -0.5801 -0.5774
vn 0.3568 0.0017 -0.9342
vn 0.5746 0.5801 0.5774
vn -0.3568 -0.0017 0.9342
vn -0.9324 -0.3613 0.0000
vn -0.3568 -0.0017 -0.9342
vn 0.5746 0.5801 -0.5774
vn -0.0045 0.9342 0.3568
vn -0.5801 0.5746 0.5774
vn -0.9359 0.3523 0.0000
vn -0.5801 0.5746 -0.5774
vn -0.0045 0.9342 -0.3568
usemtl Material.002
s off
f 1/1/1 2/2/1 4/3/1 3/4/1
f 3/4/2 4/3/2 14/5/2 13/6/2
f 1/7/3 3/4/3 6/8/3 8/9/3
f 4/3/4 5/10/4 15/11/4 14/5/4
f 6/12/5 5/13/5 7/14/5 8/15/5
f 2/16/6 7/17/6 5/10/6 4/3/6
f 8/15/7 7/14/7 17/18/7 11/19/7
f 12/20/8 10/21/8 16/22/8 2/2/8 1/1/8
f 9/23/9 15/24/9 5/13/9 6/12/9
f 11/25/10 12/26/10 1/7/10 8/9/10
f 13/6/11 9/27/11 6/8/11 3/4/11
f 16/28/12 17/29/12 7/17/12 2/16/12
f 18/30/13 19/31/13 21/32/13 20/33/13
f 20/33/1 21/32/1 25/34/1 24/35/1
f 24/35/14 25/34/14 23/36/14 22/37/14
f 22/37/5 23/36/5 19/38/5 18/39/5
f 20/40/15 24/35/15 27/41/15 29/42/15
f 25/34/16 26/43/16 32/44/16 30/45/16 28/46/16 21/47/16 19/48/16 23/36/16
f 33/49/9 32/50/9 26/51/9 27/52/9
f 27/52/5 26/51/5 28/53/5 29/54/5
f 21/47/16 28/46/16 26/43/16 25/34/16
f 29/54/7 28/53/7 30/55/7 31/56/7
f 31/57/15 33/58/15 27/41/15 24/35/15 22/37/15 18/59/15 20/40/15 29/42/15
f 32/50/17 33/49/17 31/60/17 30/61/17
f 34/62/13 35/63/13 37/64/13 36/65/13
f 36/65/1 37/64/1 41/66/1 40/67/1
f 40/67/14 41/66/14 39/68/14 38/69/14
f 38/69/5 39/68/5 35/70/5 34/71/5
f 36/72/15 40/67/15 43/73/15 45/74/15
f 41/66/16 42/75/16 48/76/16 46/77/16 44/78/16 37/79/16 35/80/16 39/68/16
f 49/81/9 48/82/9 42/83/9 43/84/9
f 43/84/5 42/83/5 44/85/5 45/86/5
f 37/79/16 44/78/16 42/75/16 41/66/16
f 45/86/7 44/85/7 46/87/7 47/88/7
f 47/89/15 49/90/15 43/73/15 40/67/15 38/69/15 34/91/15 36/72/15 45/74/15
f 48/82/17 49/81/17 47/92/17 46/93/17
usemtl Material.001
f 50/94/18 51/95/18 52/96/18
f 51/95/19 50/97/19 55/98/19
f 50/99/20 52/100/20 53/101/20
f 50/102/21 53/101/21 54/103/21
f 50/104/22 54/103/22 55/98/22
f 51/95/23 55/98/23 60/105/23
f 52/96/24 51/95/24 56/106/24
f 53/101/25 52/100/25 57/107/25
f 54/103/26 53/101/26 58/108/26
f 55/98/27 54/103/27 59/109/27
f 51/95/28 60/105/28 56/106/28
f 52/96/29 56/106/29 57/110/29
f 53/101/30 57/107/30 58/108/30
f 54/103/31 58/108/31 59/109/31
f 55/98/32 59/109/32 60/105/32
f 56/106/33 60/105/33 61/111/33
f 57/110/34 56/106/34 61/112/34
f 58/108/35 57/107/35 61/113/35
f 59/109/36 58/108/36 61/114/36
f 60/105/37 59/109/37 61/115/37
