# Blender v2.92.0 OBJ File: ''
# www.blender.org
o Pino_Cylinder.001
v 0.000000 -1.888442 -0.400000
v 0.386234 -2.550942 -0.386234
v 0.000000 -2.550942 -0.546218
v 0.400000 -1.888442 -0.000000
v 0.546218 -2.550942 -0.000000
v 0.386234 -2.550942 0.386234
v 0.000000 -1.888442 0.400000
v 0.000000 -2.550942 0.546218
v -0.386234 -2.550942 0.386234
v -0.400000 -1.888442 -0.000000
v -0.546218 -2.550942 -0.000000
v -0.386234 -2.550942 -0.386234
v -0.500843 -2.688442 -0.000000
v -0.354150 -2.688442 -0.354150
v 0.354150 -2.688442 0.354150
v 0.000000 -2.688442 -0.500843
v -0.354150 -2.688442 0.354150
v 0.000000 -2.688442 0.500843
v 0.500843 -2.688442 -0.000000
v 0.354150 -2.688442 -0.354150
v 0.282843 -1.888442 -0.282843
v 0.282843 -1.888442 0.282843
v -0.282843 -1.888442 0.282843
v -0.282843 -1.888442 -0.282843
v 0.000000 3.711557 -0.003441
v 0.276347 2.601587 -0.276347
v 0.000000 2.530191 -0.390814
v 0.003441 3.711557 0.000000
v 0.390814 2.530191 0.000000
v 0.276347 2.601587 0.276347
v 0.000000 3.711557 0.003441
v 0.000000 2.530191 0.390814
v -0.276347 2.601587 0.276347
v -0.003441 3.711557 0.000000
v -0.390814 2.530191 0.000000
v 0.002433 3.711557 0.002433
v -0.276347 2.601587 -0.276347
v 0.853766 -1.888442 0.853766
v -0.853766 -1.888442 0.853766
v -0.853766 -1.888442 -0.853766
v -0.992206 -1.866334 -0.992206
v 0.000000 -0.768442 -0.974121
v 0.000000 -1.937729 -1.403191
v -0.812835 -0.751432 -0.812835
v 0.000000 0.351558 -0.740835
v 0.000000 -0.822827 -1.149522
v -0.626459 0.366183 -0.626459
v 0.000000 1.471558 -0.507548
v 0.000000 0.294788 -0.885947
v -0.450590 1.486965 -0.450590
v 0.000000 2.591557 -0.274261
v 0.000000 1.415569 -0.637230
v -0.974121 -0.768442 -0.000000
v -1.403191 -1.937729 -0.000000
v -0.740834 0.351558 0.000000
v -1.149522 -0.822827 -0.000000
v -0.507548 1.471558 0.000000
v -0.885947 0.294788 0.000000
v -0.274261 2.591557 0.000000
v -0.637230 1.415569 0.000000
v -0.992206 -1.866334 0.992206
v -0.812835 -0.751432 0.812835
v -0.626459 0.366183 0.626459
v -0.450590 1.486965 0.450589
v 0.000000 -0.768442 0.974121
v 0.000000 -1.937729 1.403191
v 0.000000 0.351558 0.740835
v 0.000000 -0.822827 1.149522
v 0.000000 1.471558 0.507548
v 0.000000 0.294788 0.885947
v 0.000000 2.591557 0.274261
v 0.000000 1.415569 0.637230
v 0.992206 -1.866334 0.992206
v 0.812835 -0.751432 0.812835
v 0.626459 0.366183 0.626459
v 0.450590 1.486965 0.450590
v 0.974121 -0.768442 -0.000000
v 1.403191 -1.937729 -0.000000
v 0.740835 0.351558 0.000000
v 1.149522 -0.822827 -0.000000
v 0.507548 1.471558 0.000000
v 0.885947 0.294788 0.000000
v 0.274261 2.591557 0.000000
v 0.637230 1.415569 0.000000
v 0.992206 -1.866334 -0.992206
v 0.812835 -0.751432 -0.812835
v 0.626459 0.366183 -0.626459
v 0.450590 1.486965 -0.450590
v -0.193932 2.591557 -0.193932
v -0.193932 2.591557 0.193932
v 0.193932 2.591557 0.193932
v 0.193932 2.591557 -0.193932
v 0.358891 1.471558 -0.358891
v 0.358891 1.471558 0.358891
v -0.358891 1.471558 0.358891
v -0.358891 1.471558 -0.358891
v 0.523849 0.351558 -0.523849
v 0.523849 0.351558 0.523849
v -0.523849 0.351558 0.523849
v -0.523849 0.351558 -0.523849
v 0.688808 -0.768442 -0.688808
v 0.688808 -0.768442 0.688808
v -0.688808 -0.768442 0.688807
v -0.688808 -0.768442 -0.688808
v 0.853766 -1.888442 -0.853766
v 0.000000 -1.888442 -1.207408
v 1.207408 -1.888442 -0.000000
v 0.000000 -1.888442 1.207408
v -1.207408 -1.888442 -0.000000
v 0.002433 3.711557 -0.002433
v -0.002433 3.711557 0.002433
v -0.002433 3.711557 -0.002433
vt 0.509988 0.263099
vt 0.447813 0.057146
vt 0.509988 0.057146
vt 0.199114 0.057146
vt 0.136940 0.263099
vt 0.136940 0.057146
vt 0.074765 0.057146
vt 0.012590 0.263099
vt 0.012590 0.057146
vt 0.449756 0.263099
vt 0.387581 0.057146
vt 0.449756 0.057146
vt 0.325406 0.263099
vt 0.325406 0.057146
vt 0.249246 0.394531
vt 0.363281 0.280496
vt 0.477317 0.394531
vt 0.263232 0.057146
vt 0.201057 0.263099
vt 0.201057 0.057146
vt 0.248506 0.394531
vt 0.282123 0.475690
vt 0.444440 0.313373
vt 0.201057 0.014400
vt 0.263232 0.014400
vt 0.325406 0.014400
vt 0.387581 0.014400
vt 0.449756 0.014400
vt 0.012590 0.014400
vt 0.074765 0.014400
vt 0.136940 0.014400
vt 0.199114 0.014400
vt 0.509988 0.014400
vt 0.447813 0.014400
vt 0.447813 0.263099
vt 0.199114 0.263099
vt 0.074765 0.263099
vt 0.387581 0.263099
vt 0.443917 0.475167
vt 0.363281 0.508567
vt 0.282646 0.475167
vt 0.282646 0.313896
vt 0.443917 0.313896
vt 0.263232 0.263099
vt 0.363281 0.509306
vt 0.444440 0.475690
vt 0.478056 0.394531
vt 0.363281 0.279756
vt 0.282123 0.313373
vt 0.119429 0.985152
vt 0.072224 0.788458
vt 0.122221 0.771328
vt 0.162868 0.794835
vt 0.120585 0.990016
vt 0.123377 0.776191
vt 0.073379 0.793322
vt 0.160466 0.795711
vt 0.118183 0.990891
vt 0.120975 0.777067
vt 0.070977 0.794198
vt 0.163079 0.792175
vt 0.120796 0.987356
vt 0.123588 0.773531
vt 0.119503 0.986429
vt 0.119050 0.986429
vt 0.119503 0.985336
vt 0.073591 0.790662
vt 0.161712 0.789972
vt 0.916167 0.099458
vt 0.599458 0.099458
vt 0.599458 0.416166
vt 0.498378 0.576049
vt 0.376356 0.707169
vt 0.391741 0.540014
vt 0.469127 0.802702
vt 0.376897 0.945215
vt 0.379779 0.777618
vt 0.207717 0.301223
vt 0.129235 0.468951
vt 0.128128 0.277835
vt 0.187418 0.540465
vt 0.107345 0.725824
vt 0.124905 0.512373
vt 0.378236 0.706755
vt 0.249305 0.554534
vt 0.393622 0.539600
vt 0.378812 0.946031
vt 0.264755 0.800430
vt 0.381694 0.778434
vt 0.128560 0.470483
vt 0.024647 0.302754
vt 0.127453 0.279367
vt 0.106575 0.725727
vt 0.039577 0.526825
vt 0.124134 0.512276
vt 0.500258 0.575635
vt 0.471043 0.803518
vt 0.207042 0.302754
vt 0.186647 0.540368
vt 0.376076 0.710494
vt 0.247145 0.558272
vt 0.391462 0.543338
vt 0.377616 0.945225
vt 0.263559 0.799625
vt 0.380498 0.777628
vt 0.127916 0.468951
vt 0.024004 0.301223
vt 0.126809 0.277835
vt 0.105634 0.729412
vt 0.038636 0.530509
vt 0.123193 0.515961
vt 0.498098 0.579374
vt 0.469847 0.802713
vt 0.206398 0.301223
vt 0.185706 0.544053
vt 0.374296 0.706996
vt 0.245364 0.554774
vt 0.389682 0.539841
vt 0.375776 0.946104
vt 0.261718 0.800503
vt 0.378658 0.778507
vt 0.130543 0.472043
vt 0.026631 0.304314
vt 0.129436 0.280926
vt 0.107779 0.723982
vt 0.040781 0.525080
vt 0.125338 0.510531
vt 0.496318 0.575876
vt 0.468007 0.803591
vt 0.209025 0.304314
vt 0.187851 0.538623
vt 0.247424 0.554947
vt 0.262839 0.799614
vt 0.025323 0.301223
vt 0.040348 0.526922
vt 0.705922 0.768262
vt 0.691406 0.733952
vt 0.705922 0.739965
vt 0.719918 0.802786
vt 0.725931 0.788271
vt 0.754228 0.788271
vt 0.788753 0.774274
vt 0.774237 0.768262
vt 0.774237 0.739965
vt 0.760241 0.705440
vt 0.754228 0.719956
vt 0.725931 0.719956
vt 0.778023 0.661063
vt 0.812495 0.721487
vt 0.770422 0.679414
vt 0.830847 0.788589
vt 0.812495 0.780988
vt 0.770422 0.823061
vt 0.703320 0.841413
vt 0.710922 0.823061
vt 0.668848 0.780988
vt 0.650497 0.713886
vt 0.668848 0.721488
vt 0.710921 0.679414
vt 0.612966 0.699505
vt 0.694169 0.647079
vt 0.633314 0.707933
vt 0.788658 0.626731
vt 0.780229 0.647079
vt 0.841084 0.707933
vt 0.861432 0.802423
vt 0.841084 0.793994
vt 0.780229 0.854849
vt 0.685740 0.875197
vt 0.694168 0.854848
vt 0.633314 0.793994
vt 0.559854 0.678771
vt 0.672230 0.603760
vt 0.586275 0.689715
vt 0.804732 0.577339
vt 0.793788 0.603760
vt 0.879744 0.689715
vt 0.906165 0.822217
vt 0.879743 0.811273
vt 0.793788 0.897228
vt 0.661286 0.923650
vt 0.672230 0.897228
vt 0.586275 0.811274
vt 0.498352 0.647730
vt 0.649593 0.542859
vt 0.531140 0.661312
vt 0.830692 0.510070
vt 0.817111 0.542859
vt 0.935563 0.661312
vt 0.968352 0.842411
vt 0.935563 0.828829
vt 0.817111 0.947282
vt 0.636012 0.980071
vt 0.649593 0.947282
vt 0.531141 0.828829
vt 0.118979 0.985201
vt 0.120923 0.990078
vt 0.120135 0.990064
vt 0.118521 0.990953
vt 0.117733 0.990940
vt 0.121134 0.987417
vt 0.118730 0.986109
vt 0.118730 0.985656
vt 0.119051 0.985336
vt 0.119824 0.985656
vt 0.119824 0.986109
vt 0.120346 0.987404
vt 0.119767 0.985214
vt 0.757812 0.481758
vt 0.916167 0.416166
vt 0.981758 0.257812
vt 0.757812 0.033867
vt 0.533867 0.257812
vt 0.450191 0.725823
vt 0.433893 0.955500
vt 0.174143 0.476363
vt 0.134136 0.732819
vt 0.277855 0.710759
vt 0.302861 0.954326
vt 0.068976 0.477894
vt 0.070067 0.726893
vt 0.452071 0.725409
vt 0.435808 0.956316
vt 0.173468 0.477894
vt 0.133365 0.732722
vt 0.275695 0.714498
vt 0.301665 0.953521
vt 0.068332 0.476363
vt 0.069126 0.730578
vt 0.449911 0.729147
vt 0.434612 0.955511
vt 0.172824 0.476363
vt 0.132424 0.736407
vt 0.273914 0.711000
vt 0.299825 0.954399
vt 0.070959 0.479454
vt 0.071271 0.725148
vt 0.448131 0.725649
vt 0.432772 0.956389
vt 0.175451 0.479454
vt 0.134569 0.730977
vt 0.275974 0.711173
vt 0.300946 0.953510
vt 0.069651 0.476363
vt 0.070838 0.726990
vt 0.691406 0.774274
vt 0.760241 0.802786
vt 0.788753 0.733952
vt 0.719918 0.705440
vt 0.830847 0.713886
vt 0.778024 0.841413
vt 0.650497 0.788589
vt 0.703320 0.661063
vt 0.685740 0.626731
vt 0.861432 0.699505
vt 0.788658 0.875197
vt 0.612966 0.802423
vt 0.661286 0.577339
vt 0.906165 0.678771
vt 0.804733 0.923650
vt 0.559854 0.822218
vt 0.636012 0.510070
vt 0.968352 0.647730
vt 0.830692 0.980071
vt 0.498352 0.842411
vn 0.3750 0.1998 -0.9053
vn 0.9053 0.1998 -0.3750
vn 0.9053 0.1998 0.3750
vn 0.3750 0.1998 0.9053
vn -0.3750 0.1998 0.9053
vn -0.9053 0.1998 0.3750
vn 0.0000 1.0000 -0.0000
vn -0.9053 0.1998 -0.3750
vn -0.3750 0.1998 -0.9053
vn 0.0000 -1.0000 0.0000
vn -0.3660 -0.2916 -0.8837
vn -0.3661 -0.2916 -0.8837
vn -0.8837 -0.2916 -0.3660
vn -0.8837 -0.2916 0.3660
vn -0.3661 -0.2916 0.8837
vn -0.3660 -0.2916 0.8837
vn 0.3660 -0.2916 0.8837
vn 0.3661 -0.2916 0.8837
vn 0.8837 -0.2916 0.3660
vn 0.8837 -0.2916 -0.3660
vn 0.3661 -0.2916 -0.8837
vn 0.3660 -0.2916 -0.8837
vn -0.8837 -0.2916 -0.3661
vn -0.8837 -0.2916 0.3661
vn 0.8837 -0.2916 0.3661
vn 0.8837 -0.2916 -0.3661
vn 0.3548 0.3056 -0.8836
vn 0.2989 0.2974 -0.9068
vn 0.2988 0.2973 -0.9068
vn 0.9068 0.2974 -0.2989
vn 0.8836 0.3056 -0.3547
vn 0.9068 0.2973 -0.2988
vn 0.8836 0.3056 0.3547
vn 0.9068 0.2974 0.2989
vn 0.9068 0.2973 0.2988
vn 0.2989 0.2974 0.9068
vn 0.3548 0.3056 0.8836
vn 0.2988 0.2973 0.9068
vn -0.3548 0.3056 0.8836
vn -0.2989 0.2974 0.9068
vn -0.2988 0.2973 0.9068
vn -0.9068 0.2974 0.2989
vn -0.8836 0.3056 0.3547
vn -0.9068 0.2973 0.2988
vn -0.8836 0.3056 -0.3548
vn -0.9068 0.2974 -0.2989
vn -0.9068 0.2973 -0.2988
vn -0.2989 0.2974 -0.9068
vn -0.3548 0.3056 -0.8836
vn -0.2988 0.2973 -0.9068
vn -0.3484 0.3293 -0.8776
vn -0.3517 0.3322 -0.8752
vn -0.3421 0.3237 -0.8821
vn -0.3467 0.3132 -0.8842
vn -0.3535 0.3179 -0.8797
vn -0.3407 0.3090 -0.8880
vn -0.3436 0.2908 -0.8930
vn -0.3563 0.2972 -0.8859
vn -0.3383 0.2881 -0.8959
vn -0.3336 0.2798 -0.9002
vn -0.3574 0.2876 -0.8886
vn -0.3296 0.2784 -0.9021
vn -0.8752 0.3322 -0.3517
vn -0.8776 0.3293 -0.3484
vn -0.8821 0.3237 -0.3421
vn -0.8797 0.3179 -0.3535
vn -0.8842 0.3132 -0.3467
vn -0.8880 0.3090 -0.3407
vn -0.8859 0.2972 -0.3563
vn -0.8930 0.2908 -0.3436
vn -0.8959 0.2881 -0.3383
vn -0.8886 0.2876 -0.3574
vn -0.9002 0.2798 -0.3336
vn -0.9021 0.2784 -0.3296
vn -0.8776 0.3293 0.3484
vn -0.8752 0.3322 0.3517
vn -0.8821 0.3237 0.3421
vn -0.8842 0.3132 0.3467
vn -0.8797 0.3179 0.3535
vn -0.8880 0.3090 0.3407
vn -0.8930 0.2908 0.3436
vn -0.8859 0.2972 0.3563
vn -0.8959 0.2881 0.3383
vn -0.9002 0.2798 0.3336
vn -0.8886 0.2876 0.3574
vn -0.9021 0.2784 0.3296
vn -0.3517 0.3322 0.8752
vn -0.3484 0.3293 0.8776
vn -0.3421 0.3237 0.8821
vn -0.3535 0.3179 0.8797
vn -0.3467 0.3132 0.8842
vn -0.3407 0.3090 0.8880
vn -0.3563 0.2972 0.8859
vn -0.3436 0.2908 0.8930
vn -0.3383 0.2881 0.8959
vn -0.3574 0.2876 0.8886
vn -0.3336 0.2798 0.9002
vn -0.3296 0.2784 0.9021
vn 0.3484 0.3293 0.8776
vn 0.3517 0.3322 0.8752
vn 0.3421 0.3237 0.8821
vn 0.3467 0.3132 0.8842
vn 0.3535 0.3179 0.8797
vn 0.3407 0.3090 0.8880
vn 0.3436 0.2908 0.8930
vn 0.3563 0.2972 0.8859
vn 0.3383 0.2881 0.8959
vn 0.3336 0.2798 0.9002
vn 0.3574 0.2876 0.8886
vn 0.3296 0.2784 0.9021
vn 0.8752 0.3322 0.3517
vn 0.8776 0.3293 0.3484
vn 0.8821 0.3237 0.3421
vn 0.8797 0.3179 0.3535
vn 0.8842 0.3132 0.3467
vn 0.8880 0.3090 0.3407
vn 0.8859 0.2972 0.3563
vn 0.8930 0.2908 0.3436
vn 0.8959 0.2881 0.3383
vn 0.8886 0.2876 0.3574
vn 0.9002 0.2798 0.3336
vn 0.9021 0.2784 0.3296
vn 0.8776 0.3293 -0.3484
vn 0.8752 0.3322 -0.3517
vn 0.8821 0.3237 -0.3421
vn 0.8842 0.3132 -0.3467
vn 0.8797 0.3179 -0.3535
vn 0.8880 0.3090 -0.3407
vn 0.8930 0.2908 -0.3436
vn 0.8859 0.2972 -0.3563
vn 0.8959 0.2881 -0.3383
vn 0.9002 0.2798 -0.3336
vn 0.8886 0.2876 -0.3574
vn 0.9021 0.2784 -0.3296
vn 0.3517 0.3322 -0.8752
vn 0.3484 0.3293 -0.8776
vn 0.3421 0.3237 -0.8821
vn 0.3535 0.3179 -0.8797
vn 0.3467 0.3132 -0.8842
vn 0.3407 0.3090 -0.8880
vn 0.3563 0.2972 -0.8859
vn 0.3436 0.2908 -0.8930
vn 0.3383 0.2881 -0.8959
vn 0.3574 0.2876 -0.8886
vn 0.3336 0.2798 -0.9002
vn 0.3296 0.2784 -0.9021
vn -0.1263 -0.9756 0.1797
vn 0.0565 -0.9360 0.3474
vn 0.1895 -0.8688 0.4574
vn 0.3474 -0.9360 0.0565
vn 0.1797 -0.9756 -0.1263
vn 0.4574 -0.8688 0.1895
vn 0.1797 -0.9756 0.1263
vn 0.3474 -0.9360 -0.0565
vn 0.4574 -0.8688 -0.1895
vn 0.0565 -0.9360 -0.3474
vn -0.1263 -0.9756 -0.1797
vn 0.1895 -0.8688 -0.4574
vn 0.1263 -0.9756 -0.1797
vn -0.0565 -0.9360 -0.3474
vn -0.1895 -0.8688 -0.4574
vn -0.3474 -0.9360 -0.0565
vn -0.1797 -0.9756 0.1263
vn -0.4574 -0.8688 -0.1895
vn -0.1797 -0.9756 -0.1263
vn -0.3474 -0.9360 0.0565
vn -0.4574 -0.8688 0.1895
vn -0.0565 -0.9360 0.3474
vn 0.1263 -0.9756 0.1797
vn -0.1895 -0.8688 0.4574
vn -0.0922 -0.9465 0.3092
vn 0.1141 -0.9921 0.0525
vn -0.1620 -0.9060 0.3911
vn -0.0525 -0.9921 -0.1141
vn -0.3092 -0.9465 0.0922
vn -0.3911 -0.9060 0.1620
vn -0.3092 -0.9465 -0.0922
vn -0.0525 -0.9921 0.1141
vn -0.3911 -0.9060 -0.1620
vn 0.1141 -0.9921 -0.0524
vn -0.0922 -0.9465 -0.3092
vn -0.1620 -0.9060 -0.3911
vn 0.0922 -0.9465 -0.3092
vn -0.1141 -0.9921 -0.0525
vn 0.1620 -0.9060 -0.3911
vn 0.0525 -0.9921 0.1141
vn 0.3092 -0.9465 -0.0922
vn 0.3911 -0.9060 -0.1620
vn 0.3092 -0.9465 0.0922
vn 0.0525 -0.9921 -0.1141
vn 0.3911 -0.9060 0.1620
vn -0.1141 -0.9921 0.0524
vn 0.0922 -0.9465 0.3092
vn 0.1620 -0.9060 0.3911
vn -0.1027 -0.9492 0.2974
vn 0.0912 -0.9955 0.0242
vn -0.1492 -0.9208 0.3602
vn -0.0242 -0.9955 -0.0912
vn -0.2974 -0.9492 0.1027
vn -0.3602 -0.9208 0.1492
vn -0.2974 -0.9492 -0.1027
vn -0.0242 -0.9955 0.0912
vn -0.3602 -0.9208 -0.1492
vn 0.0912 -0.9955 -0.0242
vn -0.1027 -0.9492 -0.2974
vn -0.1492 -0.9208 -0.3602
vn 0.1027 -0.9492 -0.2974
vn -0.0912 -0.9955 -0.0242
vn 0.1492 -0.9208 -0.3602
vn 0.0242 -0.9955 0.0912
vn 0.2974 -0.9492 -0.1027
vn 0.3602 -0.9208 -0.1492
vn 0.2974 -0.9492 0.1027
vn 0.0242 -0.9955 -0.0912
vn 0.3602 -0.9208 0.1492
vn -0.0912 -0.9955 0.0242
vn 0.1027 -0.9492 0.2974
vn 0.1492 -0.9208 0.3602
vn -0.0000 -0.9700 0.2430
vn 0.0789 -0.9969 -0.0002
vn 0.0000 -0.9551 0.2962
vn 0.0002 -0.9969 -0.0789
vn -0.2430 -0.9700 -0.0000
vn -0.2962 -0.9551 0.0000
vn 0.0002 -0.9969 0.0789
vn 0.0789 -0.9969 0.0002
vn 0.0000 -0.9700 -0.2430
vn 0.0000 -0.9551 -0.2962
vn -0.0789 -0.9969 0.0002
vn -0.0002 -0.9969 0.0789
vn 0.2430 -0.9700 -0.0000
vn 0.2962 -0.9551 -0.0000
vn -0.0002 -0.9969 -0.0789
vn -0.0789 -0.9969 -0.0002
vn 0.0000 -0.9800 0.1989
vn 0.0789 -0.9963 -0.0332
vn 0.0000 -0.9697 0.2441
vn 0.0332 -0.9963 -0.0789
vn -0.1989 -0.9800 -0.0000
vn -0.2441 -0.9697 -0.0000
vn 0.0332 -0.9963 0.0789
vn 0.0789 -0.9963 0.0332
vn 0.0000 -0.9800 -0.1989
vn 0.0000 -0.9697 -0.2441
vn -0.0789 -0.9963 0.0332
vn -0.0332 -0.9963 0.0789
vn 0.1989 -0.9800 0.0000
vn 0.2441 -0.9697 0.0000
vn -0.0332 -0.9963 -0.0789
vn -0.0789 -0.9963 -0.0332
vn 0.3643 0.3069 -0.8793
vn 0.8793 0.3069 -0.3643
vn 0.8793 0.3069 0.3643
vn 0.3643 0.3069 0.8793
vn -0.3643 0.3069 0.8793
vn -0.8793 0.3069 0.3643
vn -0.8793 0.3069 -0.3643
vn -0.3643 0.3069 -0.8793
vn -0.3599 0.3396 -0.8690
vn -0.3621 0.3239 -0.8741
vn -0.3649 0.3015 -0.8809
vn -0.3662 0.2905 -0.8840
vn -0.8690 0.3396 -0.3599
vn -0.8741 0.3239 -0.3621
vn -0.8809 0.3015 -0.3649
vn -0.8840 0.2905 -0.3662
vn -0.8690 0.3396 0.3599
vn -0.8741 0.3239 0.3621
vn -0.8809 0.3015 0.3649
vn -0.8840 0.2905 0.3662
vn -0.3599 0.3396 0.8690
vn -0.3621 0.3239 0.8741
vn -0.3649 0.3015 0.8809
vn -0.3662 0.2905 0.8840
vn 0.3599 0.3396 0.8690
vn 0.3621 0.3239 0.8741
vn 0.3649 0.3015 0.8809
vn 0.3662 0.2905 0.8840
vn 0.8690 0.3396 0.3599
vn 0.8741 0.3239 0.3621
vn 0.8809 0.3015 0.3649
vn 0.8840 0.2905 0.3662
vn 0.8690 0.3396 -0.3599
vn 0.8741 0.3239 -0.3621
vn 0.8809 0.3015 -0.3649
vn 0.8840 0.2905 -0.3662
vn 0.3599 0.3396 -0.8690
vn 0.3621 0.3239 -0.8741
vn 0.3649 0.3015 -0.8809
vn 0.3662 0.2905 -0.8840
vn -0.2124 -0.9727 0.0940
vn 0.0940 -0.9727 -0.2124
vn 0.0940 -0.9727 0.2124
vn -0.2124 -0.9727 -0.0940
vn 0.2124 -0.9727 -0.0940
vn -0.0940 -0.9727 0.2124
vn -0.0940 -0.9727 -0.2124
vn 0.2124 -0.9727 0.0940
vn 0.1592 -0.9872 -0.0067
vn 0.0067 -0.9872 -0.1592
vn 0.0067 -0.9872 0.1592
vn 0.1592 -0.9872 0.0067
vn -0.1592 -0.9872 0.0067
vn -0.0067 -0.9872 0.1592
vn -0.0067 -0.9872 -0.1592
vn -0.1592 -0.9872 -0.0067
vn 0.1214 -0.9924 -0.0200
vn 0.0200 -0.9924 -0.1214
vn 0.0200 -0.9924 0.1214
vn 0.1214 -0.9924 0.0200
vn -0.1214 -0.9924 0.0200
vn -0.0200 -0.9924 0.1214
vn -0.0200 -0.9924 -0.1214
vn -0.1214 -0.9924 -0.0200
vn 0.1017 -0.9942 -0.0347
vn 0.0347 -0.9942 -0.1017
vn 0.0347 -0.9942 0.1017
vn 0.1017 -0.9942 0.0347
vn -0.1017 -0.9942 0.0347
vn -0.0347 -0.9942 0.1017
vn -0.0347 -0.9942 -0.1017
vn -0.1017 -0.9942 -0.0347
vn 0.0970 -0.9934 -0.0616
vn 0.0616 -0.9934 -0.0970
vn 0.0616 -0.9934 0.0970
vn 0.0970 -0.9934 0.0616
vn -0.0970 -0.9934 0.0616
vn -0.0616 -0.9934 0.0970
vn -0.0616 -0.9934 -0.0970
vn -0.0970 -0.9934 -0.0616
s 1
f 1/1/1 2/2/1 3/3/1
f 2/4/2 4/5/2 5/6/2
f 4/5/3 6/7/3 5/6/3
f 6/7/4 7/8/4 8/9/4
f 7/10/5 9/11/5 8/12/5
f 9/11/6 10/13/6 11/14/6
f 10/15/7 7/16/7 4/17/7
f 10/13/8 12/18/8 11/14/8
f 12/18/9 1/19/9 3/20/9
f 13/21/10 14/22/10 15/23/10
f 12/18/11 16/24/12 14/25/11
f 13/26/13 12/18/13 14/25/13
f 9/11/14 13/26/14 17/27/14
f 18/28/15 9/11/16 17/27/16
f 6/7/17 18/29/18 15/30/17
f 19/31/19 6/7/19 15/30/19
f 2/4/20 19/31/20 20/32/20
f 16/33/21 2/2/22 20/34/22
f 1/1/1 21/35/1 2/2/1
f 2/4/2 21/36/2 4/5/2
f 4/5/3 22/37/3 6/7/3
f 6/7/4 22/37/4 7/8/4
f 7/10/5 23/38/5 9/11/5
f 9/11/6 23/38/6 10/13/6
f 4/17/7 21/39/7 1/40/7
f 1/40/7 24/41/7 10/15/7
f 10/15/7 23/42/7 7/16/7
f 7/16/7 22/43/7 4/17/7
f 4/17/7 1/40/7 10/15/7
f 10/13/8 24/44/8 12/18/8
f 12/18/9 24/44/9 1/19/9
f 14/22/10 16/45/10 20/46/10
f 20/46/10 19/47/10 14/22/10
f 19/47/10 15/23/10 14/22/10
f 15/23/10 18/48/10 17/49/10
f 17/49/10 13/21/10 15/23/10
f 12/18/11 3/20/12 16/24/12
f 13/26/13 11/14/23 12/18/13
f 9/11/14 11/14/24 13/26/14
f 18/28/15 8/12/15 9/11/16
f 6/7/17 8/9/18 18/29/18
f 19/31/19 5/6/25 6/7/19
f 2/4/20 5/6/26 19/31/20
f 16/33/21 3/3/21 2/2/22
f 25/50/27 26/51/28 27/52/29
f 26/53/30 28/54/31 29/55/32
f 28/54/33 30/56/34 29/55/35
f 30/57/36 31/58/37 32/59/38
f 31/58/39 33/60/40 32/59/41
f 33/61/42 34/62/43 35/63/44
f 36/64/7 28/65/7 34/66/7
f 34/62/45 37/67/46 35/63/47
f 37/68/48 25/50/49 27/52/50
f 38/69/10 39/70/10 40/71/10
f 41/72/51 42/73/52 43/74/53
f 44/75/54 45/76/55 46/77/56
f 47/78/57 48/79/58 49/80/59
f 50/81/60 51/82/61 52/83/62
f 53/84/63 41/85/64 54/86/65
f 55/87/66 44/88/67 56/89/68
f 57/90/69 47/91/70 58/92/71
f 59/93/72 50/94/73 60/95/74
f 61/96/75 53/84/76 54/86/77
f 62/97/78 55/87/79 56/89/80
f 63/98/81 57/90/82 58/92/83
f 64/99/84 59/93/85 60/95/86
f 65/100/87 61/101/88 66/102/89
f 67/103/90 62/104/91 68/105/92
f 69/106/93 63/107/94 70/108/95
f 71/109/96 64/110/97 72/111/98
f 73/112/99 65/100/100 66/102/101
f 74/113/102 67/103/103 68/105/104
f 75/114/105 69/106/106 70/108/107
f 76/115/108 71/109/109 72/111/110
f 77/116/111 73/117/112 78/118/113
f 79/119/114 74/120/115 80/121/116
f 81/122/117 75/123/118 82/124/119
f 83/125/120 76/126/121 84/127/122
f 85/128/123 77/116/124 78/118/125
f 86/129/126 79/119/127 80/121/128
f 87/130/129 81/122/130 82/124/131
f 88/131/132 83/125/133 84/127/134
f 42/73/135 85/132/136 43/74/137
f 45/76/138 86/133/139 46/77/140
f 48/79/141 87/134/142 49/80/143
f 51/82/144 88/135/145 52/83/146
f 89/136/147 27/137/148 51/138/149
f 35/139/150 89/136/151 59/140/152
f 90/141/153 35/139/154 59/140/155
f 32/142/156 90/141/157 71/143/158
f 91/144/159 32/142/160 71/143/161
f 29/145/162 91/144/163 83/146/164
f 92/147/165 29/145/166 83/146/167
f 27/137/168 92/147/169 51/138/170
f 52/148/171 93/149/172 48/150/173
f 93/149/174 84/151/175 81/152/176
f 84/151/177 94/153/178 81/152/179
f 94/153/180 72/154/181 69/155/182
f 72/154/183 95/156/184 69/155/185
f 95/156/186 60/157/187 57/158/188
f 60/157/189 96/159/190 57/158/191
f 96/159/192 52/148/193 48/150/194
f 49/160/195 97/161/196 45/162/197
f 97/161/198 82/163/199 79/164/200
f 82/163/201 98/165/202 79/164/203
f 98/165/204 70/166/205 67/167/206
f 70/166/207 99/168/208 67/167/209
f 99/168/210 58/169/211 55/170/212
f 58/169/213 100/171/214 55/170/215
f 100/171/216 49/160/217 45/162/218
f 46/172/219 101/173/220 42/174/221
f 101/173/222 80/175/223 77/176/224
f 80/175/223 102/177/225 77/176/224
f 102/177/226 68/178/227 65/179/228
f 68/178/227 103/180/229 65/179/228
f 103/180/230 56/181/231 53/182/232
f 56/181/231 104/183/233 53/182/232
f 104/183/234 46/172/219 42/174/221
f 43/184/235 105/185/236 106/186/237
f 105/185/238 78/187/239 107/188/240
f 78/187/239 38/189/241 107/188/240
f 38/189/242 66/190/243 108/191/244
f 66/190/243 39/192/245 108/191/244
f 39/192/246 54/193/247 109/194/248
f 54/193/247 40/195/249 109/194/248
f 40/195/250 43/184/235 106/186/237
f 25/50/27 110/196/251 26/51/28
f 26/53/30 110/197/252 28/54/31
f 28/54/33 36/198/253 30/56/34
f 30/57/36 36/199/254 31/58/37
f 31/58/39 111/200/255 33/60/40
f 33/61/42 111/201/256 34/62/43
f 28/65/7 110/202/7 25/203/7
f 25/203/7 112/204/7 28/65/7
f 112/204/7 34/66/7 28/65/7
f 34/66/7 111/205/7 31/206/7
f 31/206/7 36/64/7 34/66/7
f 34/62/45 112/207/257 37/67/46
f 37/68/48 112/208/258 25/50/49
f 40/71/10 106/209/10 105/210/10
f 105/210/10 107/211/10 38/69/10
f 38/69/10 108/212/10 39/70/10
f 39/70/10 109/213/10 40/71/10
f 40/71/10 105/210/10 38/69/10
f 41/72/51 104/214/259 42/73/52
f 44/75/54 100/215/260 45/76/55
f 47/78/57 96/216/261 48/79/58
f 50/81/60 89/217/262 51/82/61
f 53/84/63 104/218/263 41/85/64
f 55/87/66 100/219/264 44/88/67
f 57/90/69 96/220/265 47/91/70
f 59/93/72 89/221/266 50/94/73
f 61/96/75 103/222/267 53/84/76
f 62/97/78 99/223/268 55/87/79
f 63/98/81 95/224/269 57/90/82
f 64/99/84 90/225/270 59/93/85
f 65/100/87 103/226/271 61/101/88
f 67/103/90 99/227/272 62/104/91
f 69/106/93 95/228/273 63/107/94
f 71/109/96 90/229/274 64/110/97
f 73/112/99 102/230/275 65/100/100
f 74/113/102 98/231/276 67/103/103
f 75/114/105 94/232/277 69/106/106
f 76/115/108 91/233/278 71/109/109
f 77/116/111 102/234/279 73/117/112
f 79/119/114 98/235/280 74/120/115
f 81/122/117 94/236/281 75/123/118
f 83/125/120 91/237/282 76/126/121
f 85/128/123 101/238/283 77/116/124
f 86/129/126 97/239/284 79/119/127
f 87/130/129 93/240/285 81/122/130
f 88/131/132 92/241/286 83/125/133
f 42/73/135 101/242/287 85/132/136
f 45/76/138 97/243/288 86/133/139
f 48/79/141 93/244/289 87/134/142
f 51/82/144 92/245/290 88/135/145
f 89/136/147 37/246/291 27/137/148
f 35/139/150 37/246/292 89/136/151
f 90/141/153 33/247/293 35/139/154
f 32/142/156 33/247/294 90/141/157
f 91/144/159 30/248/295 32/142/160
f 29/145/162 30/248/296 91/144/163
f 92/147/165 26/249/297 29/145/166
f 27/137/168 26/249/298 92/147/169
f 52/148/171 88/250/299 93/149/172
f 93/149/174 88/250/300 84/151/175
f 84/151/177 76/251/301 94/153/178
f 94/153/180 76/251/302 72/154/181
f 72/154/183 64/252/303 95/156/184
f 95/156/186 64/252/304 60/157/187
f 60/157/189 50/253/305 96/159/190
f 96/159/192 50/253/306 52/148/193
f 49/160/195 87/254/307 97/161/196
f 97/161/198 87/254/308 82/163/199
f 82/163/201 75/255/309 98/165/202
f 98/165/204 75/255/310 70/166/205
f 70/166/207 63/256/311 99/168/208
f 99/168/210 63/256/312 58/169/211
f 58/169/213 47/257/313 100/171/214
f 100/171/216 47/257/314 49/160/217
f 46/172/219 86/258/315 101/173/220
f 101/173/222 86/258/316 80/175/223
f 80/175/223 74/259/317 102/177/225
f 102/177/226 74/259/318 68/178/227
f 68/178/227 62/260/319 103/180/229
f 103/180/230 62/260/320 56/181/231
f 56/181/231 44/261/321 104/183/233
f 104/183/234 44/261/322 46/172/219
f 43/184/235 85/262/323 105/185/236
f 105/185/238 85/262/324 78/187/239
f 78/187/239 73/263/325 38/189/241
f 38/189/242 73/263/326 66/190/243
f 66/190/243 61/264/327 39/192/245
f 39/192/246 61/264/328 54/193/247
f 54/193/247 41/265/329 40/195/249
f 40/195/250 41/265/330 43/184/235
