# Blender v2.92.0 OBJ File: ''
# www.blender.org
o PuertaValla_Cylinder.001
v 0.458733 0.707569 -0.190270
v 0.458733 0.907570 -0.190270
v 0.458733 0.907570 -0.090270
v 0.458733 0.707569 -0.090270
v -1.141268 0.907570 -0.090270
v -1.141268 0.707569 -0.090270
v -1.141268 0.907570 -0.190270
v -1.141268 0.707569 -0.190270
v 1.141268 -0.754444 -0.190270
v 1.141268 -0.554444 -0.190270
v 1.141268 -0.554444 -0.090270
v 1.141268 -0.754444 -0.090270
v -0.458732 -0.554444 -0.090270
v -0.458732 -0.754444 -0.090270
v -0.458732 -0.554444 -0.190270
v -0.458732 -0.754444 -0.190270
v -0.951056 -1.567295 0.218703
v -0.951056 1.628930 0.218703
v -1.068614 1.628930 0.180506
v -1.068614 -1.567295 0.180506
v -1.141268 1.628930 0.080506
v -1.141268 -1.567295 0.080506
v -1.141268 1.628930 -0.043100
v -1.141268 -1.567295 -0.043100
v -1.068614 1.628930 -0.143100
v -1.068614 -1.567295 -0.143100
v -0.951056 1.628930 -0.181297
v -0.951056 -1.567295 -0.181297
v -0.833499 1.628930 -0.143101
v -0.833499 -1.567295 -0.143101
v -0.760845 1.628930 -0.043101
v -0.760845 -1.567295 -0.043101
v -0.760845 1.628930 0.080506
v -0.760845 -1.567295 0.080506
v -0.833499 1.628930 0.180506
v -0.833499 -1.567295 0.180506
v 0.951057 -1.567295 0.218703
v 0.951057 1.628930 0.218703
v 0.833499 1.628930 0.180506
v 0.833499 -1.567295 0.180506
v 0.760845 1.628930 0.080506
v 0.760845 -1.567295 0.080506
v 0.760845 1.628930 -0.043101
v 0.760845 -1.567295 -0.043101
v 0.833499 1.628930 -0.143101
v 0.833499 -1.567295 -0.143101
v 0.951057 1.628930 -0.181297
v 0.951057 -1.567295 -0.181297
v 1.068613 1.628930 -0.143101
v 1.068613 -1.567295 -0.143101
v 1.141268 1.628930 -0.043101
v 1.141268 -1.567295 -0.043101
v 1.141268 1.628930 0.080506
v 1.141268 -1.567295 0.080506
v 1.068613 1.628930 0.180506
v 1.068613 -1.567295 0.180506
v 0.570634 -1.567295 0.218703
v 0.570634 1.628930 0.218703
v 0.453077 1.628930 0.180506
v 0.453077 -1.567295 0.180506
v 0.380423 1.628930 0.080506
v 0.380423 -1.567295 0.080506
v 0.380423 1.628930 -0.043101
v 0.380423 -1.567295 -0.043101
v 0.453077 1.628930 -0.143101
v 0.453077 -1.567295 -0.143101
v 0.570634 1.628930 -0.181297
v 0.570634 -1.567295 -0.181297
v 0.688191 1.628930 -0.143101
v 0.688191 -1.567295 -0.143101
v 0.760845 1.628930 -0.043101
v 0.760845 -1.567295 -0.043101
v 0.760845 1.628930 0.080506
v 0.760845 -1.567295 0.080506
v 0.688191 1.628930 0.180506
v 0.688191 -1.567295 0.180506
v 0.190211 -1.567295 0.218703
v 0.190211 1.628930 0.218703
v 0.072654 1.628930 0.180506
v 0.072654 -1.567295 0.180506
v 0.000000 1.628930 0.080506
v 0.000000 -1.567295 0.080506
v 0.000000 1.628930 -0.043101
v 0.000000 -1.567295 -0.043101
v 0.072654 1.628930 -0.143101
v 0.072654 -1.567295 -0.143101
v 0.190211 1.628930 -0.181297
v 0.190211 -1.567295 -0.181297
v 0.307768 1.628930 -0.143101
v 0.307768 -1.567295 -0.143101
v 0.380423 1.628930 -0.043101
v 0.380423 -1.567295 -0.043101
v 0.380423 1.628930 0.080506
v 0.380423 -1.567295 0.080506
v 0.307768 1.628930 0.180506
v 0.307768 -1.567295 0.180506
v -0.190211 -1.567295 0.218703
v -0.190211 1.628930 0.218703
v -0.307768 1.628930 0.180506
v -0.307768 -1.567295 0.180506
v -0.380423 1.628930 0.080506
v -0.380423 -1.567295 0.080506
v -0.380423 1.628930 -0.043101
v -0.380423 -1.567295 -0.043101
v -0.307768 1.628930 -0.143101
v -0.307768 -1.567295 -0.143101
v -0.190211 1.628930 -0.181297
v -0.190211 -1.567295 -0.181297
v -0.072654 1.628930 -0.143101
v -0.072654 -1.567295 -0.143101
v 0.000000 1.628930 -0.043101
v 0.000000 -1.567295 -0.043101
v 0.000000 1.628930 0.080506
v 0.000000 -1.567295 0.080506
v -0.072654 1.628930 0.180506
v -0.072654 -1.567295 0.180506
v -0.570634 -1.567295 0.218703
v -0.570634 1.628930 0.218703
v -0.688191 1.628930 0.180506
v -0.688191 -1.567295 0.180506
v -0.760845 1.628930 0.080506
v -0.760845 -1.567295 0.080506
v -0.760845 1.628930 -0.043101
v -0.760845 -1.567295 -0.043101
v -0.688191 1.628930 -0.143101
v -0.688191 -1.567295 -0.143101
v -0.570634 1.628930 -0.181297
v -0.570634 -1.567295 -0.181297
v -0.453077 1.628930 -0.143101
v -0.453077 -1.567295 -0.143101
v -0.380423 1.628930 -0.043101
v -0.380423 -1.567295 -0.043101
v -0.380423 1.628930 0.080506
v -0.380423 -1.567295 0.080506
v -0.453077 1.628930 0.180506
v -0.453077 -1.567295 0.180506
vt 0.969527 0.766765
vt 0.907027 0.641765
vt 0.969527 0.641765
vt 0.029965 0.127716
vt 0.970607 0.249596
vt 0.029436 0.245363
vt 0.907027 0.516764
vt 0.969527 0.641765
vt 0.907027 0.641765
vt 0.030494 0.010069
vt 0.971136 0.131949
vt 0.029965 0.127716
vt 0.950948 0.277337
vt 0.064189 0.328968
vt 0.064425 0.273560
vt 0.950712 0.332744
vt 0.063953 0.384376
vt 0.064189 0.328968
vt 0.969527 0.640766
vt 0.907027 0.515766
vt 0.969527 0.515766
vt 0.029973 0.125863
vt 0.970615 0.247742
vt 0.029444 0.243509
vt 0.907027 0.640766
vt 0.969527 0.765765
vt 0.907027 0.765765
vt 0.030502 0.008216
vt 0.971144 0.130096
vt 0.029973 0.125863
vt 0.950697 0.336366
vt 0.063938 0.387997
vt 0.064174 0.332589
vt 0.950933 0.280958
vt 0.064174 0.332589
vt 0.064410 0.277182
vt 0.907027 0.766765
vt 0.971136 0.131949
vt 0.969527 0.516764
vt 0.971665 0.014302
vt 0.950712 0.332744
vt 0.950476 0.388152
vt 0.907027 0.640766
vt 0.971144 0.130096
vt 0.969527 0.640766
vt 0.971673 0.012449
vt 0.950461 0.391773
vt 0.950697 0.336366
vt 0.851573 0.982050
vt 0.768237 0.412537
vt 0.851573 0.412537
vt 0.768237 0.982050
vt 0.684901 0.412537
vt 0.684901 0.982050
vt 0.601564 0.412537
vt 0.601564 0.982050
vt 0.518228 0.412537
vt 0.518228 0.982050
vt 0.434892 0.412537
vt 0.434892 0.982050
vt 0.351555 0.412537
vt 0.351555 0.982050
vt 0.268219 0.412537
vt 0.268219 0.982050
vt 0.184883 0.412537
vt 0.862752 0.938918
vt 0.958531 0.869331
vt 0.981141 0.938918
vt 0.184883 0.982050
vt 0.101547 0.412537
vt 0.101547 0.982050
vt 0.018210 0.412537
vt 0.921360 0.857444
vt 0.862165 0.900451
vt 0.884776 0.970039
vt 0.851573 0.982050
vt 0.768237 0.412537
vt 0.851573 0.412537
vt 0.768237 0.982050
vt 0.684901 0.412537
vt 0.684901 0.982050
vt 0.601564 0.412537
vt 0.601564 0.982050
vt 0.518228 0.412537
vt 0.518228 0.982050
vt 0.434892 0.412537
vt 0.434892 0.982050
vt 0.351555 0.412537
vt 0.351555 0.982050
vt 0.268219 0.412537
vt 0.268219 0.982050
vt 0.184883 0.412537
vt 0.981141 0.900451
vt 0.981141 0.938918
vt 0.862752 0.938918
vt 0.184883 0.982050
vt 0.101547 0.412537
vt 0.101547 0.982050
vt 0.018210 0.412537
vt 0.921360 0.857444
vt 0.862165 0.900451
vt 0.884776 0.970039
vt 0.851573 0.982050
vt 0.768237 0.412537
vt 0.851573 0.412537
vt 0.768237 0.982050
vt 0.684901 0.412537
vt 0.684901 0.982050
vt 0.601564 0.412537
vt 0.601564 0.982050
vt 0.518228 0.412537
vt 0.518228 0.982050
vt 0.434892 0.412537
vt 0.434892 0.982050
vt 0.351555 0.412537
vt 0.351555 0.982050
vt 0.268219 0.412537
vt 0.268219 0.982050
vt 0.184883 0.412537
vt 0.981141 0.900451
vt 0.981141 0.938918
vt 0.862752 0.938918
vt 0.184883 0.982050
vt 0.101547 0.412537
vt 0.101547 0.982050
vt 0.018210 0.412537
vt 0.980554 0.900451
vt 0.921360 0.857444
vt 0.862165 0.900451
vt 0.851573 0.982050
vt 0.768237 0.412537
vt 0.851573 0.412537
vt 0.768237 0.982050
vt 0.684901 0.412537
vt 0.684901 0.982050
vt 0.601564 0.412537
vt 0.601564 0.982050
vt 0.518228 0.412537
vt 0.518228 0.982050
vt 0.434892 0.412537
vt 0.434892 0.982050
vt 0.351555 0.412537
vt 0.351555 0.982050
vt 0.268219 0.412537
vt 0.268219 0.982050
vt 0.184883 0.412537
vt 0.981141 0.900451
vt 0.981141 0.938918
vt 0.862752 0.938918
vt 0.184883 0.982050
vt 0.101547 0.412537
vt 0.101547 0.982050
vt 0.018210 0.412537
vt 0.921360 0.857444
vt 0.862165 0.900451
vt 0.884776 0.970039
vt 0.851573 0.982050
vt 0.768237 0.412537
vt 0.851573 0.412537
vt 0.768237 0.982050
vt 0.684901 0.412537
vt 0.684901 0.982050
vt 0.601564 0.412537
vt 0.601564 0.982050
vt 0.518228 0.412537
vt 0.518228 0.982050
vt 0.434892 0.412537
vt 0.434892 0.982050
vt 0.351555 0.412537
vt 0.351555 0.982050
vt 0.268219 0.412537
vt 0.268219 0.982050
vt 0.184883 0.412537
vt 0.862752 0.938918
vt 0.958531 0.869331
vt 0.981141 0.938918
vt 0.184883 0.982050
vt 0.101547 0.412537
vt 0.101547 0.982050
vt 0.018210 0.412537
vt 0.921360 0.857444
vt 0.862165 0.900451
vt 0.884776 0.970039
vt 0.851573 0.982050
vt 0.768237 0.412537
vt 0.851573 0.412537
vt 0.768237 0.982050
vt 0.684901 0.412537
vt 0.684901 0.982050
vt 0.601564 0.412537
vt 0.601564 0.982050
vt 0.518228 0.412537
vt 0.518228 0.982050
vt 0.434892 0.412537
vt 0.434892 0.982050
vt 0.351555 0.412537
vt 0.351555 0.982050
vt 0.268219 0.412537
vt 0.268219 0.982050
vt 0.184883 0.412537
vt 0.981141 0.900451
vt 0.981141 0.938918
vt 0.862752 0.938918
vt 0.184883 0.982050
vt 0.101547 0.412537
vt 0.101547 0.982050
vt 0.018210 0.412537
vt 0.980554 0.900451
vt 0.921360 0.857444
vt 0.862165 0.900451
vt 0.958531 0.970039
vt 0.921947 0.981925
vt 0.885363 0.970039
vt 0.862752 0.900451
vt 0.885363 0.869331
vt 0.921947 0.857444
vt 0.981141 0.900451
vt 0.018210 0.982050
vt 0.921360 0.981925
vt 0.957944 0.970039
vt 0.980554 0.938918
vt 0.980554 0.900451
vt 0.957944 0.869331
vt 0.884776 0.869331
vt 0.862165 0.938918
vt 0.958531 0.970039
vt 0.921947 0.981925
vt 0.885363 0.970039
vt 0.862752 0.900451
vt 0.885363 0.869331
vt 0.921947 0.857444
vt 0.958531 0.869331
vt 0.018210 0.982050
vt 0.921360 0.981925
vt 0.957944 0.970039
vt 0.980554 0.938918
vt 0.980554 0.900451
vt 0.957944 0.869331
vt 0.884776 0.869331
vt 0.862165 0.938918
vt 0.958531 0.970039
vt 0.921947 0.981925
vt 0.885363 0.970039
vt 0.862752 0.900451
vt 0.885363 0.869331
vt 0.921947 0.857444
vt 0.958531 0.869331
vt 0.018210 0.982050
vt 0.884776 0.970039
vt 0.921360 0.981925
vt 0.957944 0.970039
vt 0.980554 0.938918
vt 0.957944 0.869331
vt 0.884776 0.869331
vt 0.862165 0.938918
vt 0.958531 0.970039
vt 0.921947 0.981925
vt 0.885363 0.970039
vt 0.862752 0.900451
vt 0.885363 0.869331
vt 0.921947 0.857444
vt 0.958531 0.869331
vt 0.018210 0.982050
vt 0.921360 0.981925
vt 0.957944 0.970039
vt 0.980554 0.938918
vt 0.980554 0.900451
vt 0.957944 0.869331
vt 0.884776 0.869331
vt 0.862165 0.938918
vt 0.958531 0.970039
vt 0.921947 0.981925
vt 0.885363 0.970039
vt 0.862752 0.900451
vt 0.885363 0.869331
vt 0.921947 0.857444
vt 0.981141 0.900451
vt 0.018210 0.982050
vt 0.921360 0.981925
vt 0.957944 0.970039
vt 0.980554 0.938918
vt 0.980554 0.900451
vt 0.957944 0.869331
vt 0.884776 0.869331
vt 0.862165 0.938918
vt 0.958531 0.970039
vt 0.921947 0.981925
vt 0.885363 0.970039
vt 0.862752 0.900451
vt 0.885363 0.869331
vt 0.921947 0.857444
vt 0.958531 0.869331
vt 0.018210 0.982050
vt 0.884776 0.970039
vt 0.921360 0.981925
vt 0.957944 0.970039
vt 0.980554 0.938918
vt 0.957944 0.869331
vt 0.884776 0.869331
vt 0.862165 0.938918
vn 1.0000 -0.0000 0.0000
vn 0.0000 -0.0000 1.0000
vn -1.0000 0.0000 0.0000
vn 0.0000 0.0000 -1.0000
vn 0.0000 -1.0000 0.0000
vn 0.0000 1.0000 0.0000
vn -0.3090 -0.0000 0.9511
vn -0.8090 -0.0000 0.5878
vn -0.8090 0.0000 -0.5878
vn -0.3090 0.0000 -0.9511
vn 0.3090 0.0000 -0.9511
vn 0.8090 0.0000 -0.5878
vn 0.8090 -0.0000 0.5878
vn 0.3090 -0.0000 0.9511
s 1
f 2/1/1 4/2/1 1/3/1
f 3/4/2 6/5/2 4/6/2
f 5/7/3 8/8/3 6/9/3
f 7/10/4 1/11/4 8/12/4
f 6/13/5 1/14/5 4/15/5
f 3/16/6 7/17/6 5/18/6
f 10/19/1 12/20/1 9/21/1
f 11/22/2 14/23/2 12/24/2
f 13/25/3 16/26/3 14/27/3
f 15/28/4 9/29/4 16/30/4
f 14/31/5 9/32/5 12/33/5
f 11/34/6 15/35/6 13/36/6
f 2/1/1 3/37/1 4/2/1
f 3/4/2 5/38/2 6/5/2
f 5/7/3 7/39/3 8/8/3
f 7/10/4 2/40/4 1/11/4
f 6/13/5 8/41/5 1/14/5
f 3/16/6 2/42/6 7/17/6
f 10/19/1 11/43/1 12/20/1
f 11/22/2 13/44/2 14/23/2
f 13/25/3 15/45/3 16/26/3
f 15/28/4 10/46/4 9/29/4
f 14/31/5 16/47/5 9/32/5
f 11/34/6 10/48/6 15/35/6
f 18/49/7 20/50/7 17/51/7
f 19/52/8 22/53/8 20/50/8
f 21/54/3 24/55/3 22/53/3
f 23/56/9 26/57/9 24/55/9
f 25/58/10 28/59/10 26/57/10
f 27/60/11 30/61/11 28/59/11
f 29/62/12 32/63/12 30/61/12
f 31/64/1 34/65/1 32/63/1
f 33/66/6 25/67/6 21/68/6
f 33/69/13 36/70/13 34/65/13
f 35/71/14 17/72/14 36/70/14
f 28/73/5 32/74/5 36/75/5
f 38/76/7 40/77/7 37/78/7
f 39/79/8 42/80/8 40/77/8
f 41/81/3 44/82/3 42/80/3
f 43/83/9 46/84/9 44/82/9
f 45/85/10 48/86/10 46/84/10
f 47/87/11 50/88/11 48/86/11
f 49/89/12 52/90/12 50/88/12
f 51/91/1 54/92/1 52/90/1
f 43/93/6 41/94/6 53/95/6
f 53/96/13 56/97/13 54/92/13
f 55/98/14 37/99/14 56/97/14
f 48/100/5 52/101/5 56/102/5
f 58/103/7 60/104/7 57/105/7
f 59/106/8 62/107/8 60/104/8
f 61/108/3 64/109/3 62/107/3
f 63/110/9 66/111/9 64/109/9
f 65/112/10 68/113/10 66/111/10
f 67/114/11 70/115/11 68/113/11
f 69/116/12 72/117/12 70/115/12
f 71/118/1 74/119/1 72/117/1
f 63/120/6 61/121/6 73/122/6
f 73/123/13 76/124/13 74/119/13
f 75/125/14 57/126/14 76/124/14
f 64/127/5 68/128/5 72/129/5
f 78/130/7 80/131/7 77/132/7
f 79/133/8 82/134/8 80/131/8
f 81/135/3 84/136/3 82/134/3
f 83/137/9 86/138/9 84/136/9
f 85/139/10 88/140/10 86/138/10
f 87/141/11 90/142/11 88/140/11
f 89/143/12 92/144/12 90/142/12
f 91/145/1 94/146/1 92/144/1
f 83/147/6 81/148/6 93/149/6
f 93/150/13 96/151/13 94/146/13
f 95/152/14 77/153/14 96/151/14
f 88/154/5 92/155/5 96/156/5
f 98/157/7 100/158/7 97/159/7
f 99/160/8 102/161/8 100/158/8
f 101/162/3 104/163/3 102/161/3
f 103/164/9 106/165/9 104/163/9
f 105/166/10 108/167/10 106/165/10
f 107/168/11 110/169/11 108/167/11
f 109/170/12 112/171/12 110/169/12
f 111/172/1 114/173/1 112/171/1
f 113/174/6 105/175/6 101/176/6
f 113/177/13 116/178/13 114/173/13
f 115/179/14 97/180/14 116/178/14
f 108/181/5 112/182/5 116/183/5
f 118/184/7 120/185/7 117/186/7
f 119/187/8 122/188/8 120/185/8
f 121/189/3 124/190/3 122/188/3
f 123/191/9 126/192/9 124/190/9
f 125/193/10 128/194/10 126/192/10
f 127/195/11 130/196/11 128/194/11
f 129/197/12 132/198/12 130/196/12
f 131/199/1 134/200/1 132/198/1
f 123/201/6 121/202/6 133/203/6
f 133/204/13 136/205/13 134/200/13
f 135/206/14 117/207/14 136/205/14
f 124/208/5 128/209/5 132/210/5
f 18/49/7 19/52/7 20/50/7
f 19/52/8 21/54/8 22/53/8
f 21/54/3 23/56/3 24/55/3
f 23/56/9 25/58/9 26/57/9
f 25/58/10 27/60/10 28/59/10
f 27/60/11 29/62/11 30/61/11
f 29/62/12 31/64/12 32/63/12
f 31/64/1 33/69/1 34/65/1
f 21/68/6 19/211/6 18/212/6
f 18/212/6 35/213/6 21/68/6
f 35/213/6 33/66/6 21/68/6
f 33/66/6 31/214/6 29/215/6
f 29/215/6 27/216/6 33/66/6
f 27/216/6 25/67/6 33/66/6
f 25/67/6 23/217/6 21/68/6
f 33/69/13 35/71/13 36/70/13
f 35/71/14 18/218/14 17/72/14
f 36/75/5 17/219/5 20/220/5
f 20/220/5 22/221/5 24/222/5
f 24/222/5 26/223/5 28/73/5
f 28/73/5 30/224/5 32/74/5
f 32/74/5 34/225/5 36/75/5
f 36/75/5 20/220/5 24/222/5
f 24/222/5 28/73/5 36/75/5
f 38/76/7 39/79/7 40/77/7
f 39/79/8 41/81/8 42/80/8
f 41/81/3 43/83/3 44/82/3
f 43/83/9 45/85/9 46/84/9
f 45/85/10 47/87/10 48/86/10
f 47/87/11 49/89/11 50/88/11
f 49/89/12 51/91/12 52/90/12
f 51/91/1 53/96/1 54/92/1
f 41/94/6 39/226/6 38/227/6
f 38/227/6 55/228/6 41/94/6
f 55/228/6 53/95/6 41/94/6
f 53/95/6 51/229/6 49/230/6
f 49/230/6 47/231/6 53/95/6
f 47/231/6 45/232/6 53/95/6
f 45/232/6 43/93/6 53/95/6
f 53/96/13 55/98/13 56/97/13
f 55/98/14 38/233/14 37/99/14
f 56/102/5 37/234/5 40/235/5
f 40/235/5 42/236/5 56/102/5
f 42/236/5 44/237/5 56/102/5
f 44/237/5 46/238/5 48/100/5
f 48/100/5 50/239/5 52/101/5
f 52/101/5 54/240/5 56/102/5
f 44/237/5 48/100/5 56/102/5
f 58/103/7 59/106/7 60/104/7
f 59/106/8 61/108/8 62/107/8
f 61/108/3 63/110/3 64/109/3
f 63/110/9 65/112/9 66/111/9
f 65/112/10 67/114/10 68/113/10
f 67/114/11 69/116/11 70/115/11
f 69/116/12 71/118/12 72/117/12
f 71/118/1 73/123/1 74/119/1
f 61/121/6 59/241/6 58/242/6
f 58/242/6 75/243/6 61/121/6
f 75/243/6 73/122/6 61/121/6
f 73/122/6 71/244/6 69/245/6
f 69/245/6 67/246/6 73/122/6
f 67/246/6 65/247/6 73/122/6
f 65/247/6 63/120/6 73/122/6
f 73/123/13 75/125/13 76/124/13
f 75/125/14 58/248/14 57/126/14
f 76/249/5 57/250/5 60/251/5
f 60/251/5 62/252/5 76/249/5
f 62/252/5 64/127/5 76/249/5
f 64/127/5 66/253/5 68/128/5
f 68/128/5 70/254/5 72/129/5
f 72/129/5 74/255/5 64/127/5
f 74/255/5 76/249/5 64/127/5
f 78/130/7 79/133/7 80/131/7
f 79/133/8 81/135/8 82/134/8
f 81/135/3 83/137/3 84/136/3
f 83/137/9 85/139/9 86/138/9
f 85/139/10 87/141/10 88/140/10
f 87/141/11 89/143/11 90/142/11
f 89/143/12 91/145/12 92/144/12
f 91/145/1 93/150/1 94/146/1
f 81/148/6 79/256/6 78/257/6
f 78/257/6 95/258/6 81/148/6
f 95/258/6 93/149/6 81/148/6
f 93/149/6 91/259/6 89/260/6
f 89/260/6 87/261/6 93/149/6
f 87/261/6 85/262/6 93/149/6
f 85/262/6 83/147/6 93/149/6
f 93/150/13 95/152/13 96/151/13
f 95/152/14 78/263/14 77/153/14
f 96/156/5 77/264/5 80/265/5
f 80/265/5 82/266/5 96/156/5
f 82/266/5 84/267/5 96/156/5
f 84/267/5 86/268/5 88/154/5
f 88/154/5 90/269/5 92/155/5
f 92/155/5 94/270/5 96/156/5
f 84/267/5 88/154/5 96/156/5
f 98/157/7 99/160/7 100/158/7
f 99/160/8 101/162/8 102/161/8
f 101/162/3 103/164/3 104/163/3
f 103/164/9 105/166/9 106/165/9
f 105/166/10 107/168/10 108/167/10
f 107/168/11 109/170/11 110/169/11
f 109/170/12 111/172/12 112/171/12
f 111/172/1 113/177/1 114/173/1
f 101/176/6 99/271/6 113/174/6
f 99/271/6 98/272/6 113/174/6
f 98/272/6 115/273/6 113/174/6
f 113/174/6 111/274/6 109/275/6
f 109/275/6 107/276/6 113/174/6
f 107/276/6 105/175/6 113/174/6
f 105/175/6 103/277/6 101/176/6
f 113/177/13 115/179/13 116/178/13
f 115/179/14 98/278/14 97/180/14
f 116/183/5 97/279/5 100/280/5
f 100/280/5 102/281/5 104/282/5
f 104/282/5 106/283/5 108/181/5
f 108/181/5 110/284/5 112/182/5
f 112/182/5 114/285/5 116/183/5
f 116/183/5 100/280/5 104/282/5
f 104/282/5 108/181/5 116/183/5
f 118/184/7 119/187/7 120/185/7
f 119/187/8 121/189/8 122/188/8
f 121/189/3 123/191/3 124/190/3
f 123/191/9 125/193/9 126/192/9
f 125/193/10 127/195/10 128/194/10
f 127/195/11 129/197/11 130/196/11
f 129/197/12 131/199/12 132/198/12
f 131/199/1 133/204/1 134/200/1
f 121/202/6 119/286/6 133/203/6
f 119/286/6 118/287/6 133/203/6
f 118/287/6 135/288/6 133/203/6
f 133/203/6 131/289/6 129/290/6
f 129/290/6 127/291/6 133/203/6
f 127/291/6 125/292/6 133/203/6
f 125/292/6 123/201/6 133/203/6
f 133/204/13 135/206/13 136/205/13
f 135/206/14 118/293/14 117/207/14
f 136/294/5 117/295/5 120/296/5
f 120/296/5 122/297/5 136/294/5
f 122/297/5 124/208/5 136/294/5
f 124/208/5 126/298/5 128/209/5
f 128/209/5 130/299/5 132/210/5
f 132/210/5 134/300/5 124/208/5
f 134/300/5 136/294/5 124/208/5
