# Blender v2.91.2 OBJ File: ''
# www.blender.org
mtllib runaTutorial.mtl
o Cube.001
v 0.099414 0.055482 -0.391568
v -0.116225 0.051714 -0.398589
v -0.116244 0.215103 -0.350659
v 0.099443 0.211767 -0.330215
v 0.187187 -0.330472 -0.328099
v 0.153023 0.050580 -0.339248
v 0.132875 0.175297 -0.273240
v 0.102521 0.296658 -0.215453
v 0.086812 0.362344 -0.048819
v 0.057429 0.354265 0.032464
v 0.065846 0.302501 0.116036
v 0.082663 0.245771 0.219023
v 0.103176 0.025298 0.310041
v 0.187113 -0.330512 0.319309
v -0.189152 -0.329500 0.328098
v -0.163922 0.043411 0.334903
v -0.120386 0.195001 0.300016
v -0.143396 0.289118 0.211376
v -0.142199 0.339402 0.087702
v -0.118284 0.349502 -0.083366
v -0.148448 0.274056 -0.205499
v -0.148448 0.183463 -0.296091
v -0.169940 0.055372 -0.350982
v -0.189209 -0.325085 -0.297379
v 0.025744 0.415172 0.058290
v -0.100577 0.404959 0.085708
v -0.100552 0.337563 0.238486
v 0.026040 0.347799 0.170968
v -0.163567 -0.393146 -0.354400
v 0.162236 -0.391568 -0.391568
v 0.162061 -0.391567 0.391568
v -0.163563 -0.391568 0.391568
v -0.116879 0.051990 0.386692
v 0.083953 0.070298 0.340807
v 0.025840 0.251247 0.273459
v -0.116362 0.220958 0.314834
v 0.025822 0.410423 -0.059575
v -0.116229 0.377570 -0.077974
v -0.116186 0.330899 -0.234857
v 0.099298 0.327566 -0.214432
v 0.135982 0.062982 -0.120590
v 0.159410 -0.078209 0.013004
v 0.147421 -0.078729 0.014557
v 0.123993 0.062462 -0.119037
v 0.138171 -0.074231 0.020932
v 0.114743 0.066959 -0.112662
v 0.135194 -0.066435 0.029693
v 0.111766 0.074755 -0.103900
v 0.139626 -0.058317 0.037495
v 0.116199 0.082873 -0.096098
v 0.149775 -0.052978 0.041357
v 0.126348 0.088211 -0.092236
v 0.165977 -0.226617 0.045529
v 0.109019 0.160790 0.045530
v 0.101983 0.159755 0.035740
v 0.158941 -0.227652 0.035740
v 0.101983 0.159754 0.023640
v 0.158941 -0.227652 0.023640
v 0.109020 0.160788 0.013851
v 0.165977 -0.226617 0.013851
v 0.120406 0.162462 0.010111
v 0.177363 -0.224944 0.010111
v 0.109118 0.162200 -0.120232
v 0.132545 0.021011 0.013361
v 0.123296 0.025509 0.019737
v 0.099869 0.166697 -0.113857
v 0.120318 0.033306 0.028498
v 0.096892 0.174494 -0.105096
v 0.124750 0.041424 0.036300
v 0.101324 0.182611 -0.097294
v 0.134899 0.046762 0.040162
v 0.111473 0.187949 -0.093432
v 0.121107 0.162720 -0.121785
v 0.144534 0.021531 0.011808
v 0.132545 0.021011 0.013361
v 0.109118 0.162200 -0.120232
v 0.126348 0.088211 -0.092236
v 0.149775 -0.052978 0.041357
v 0.161764 -0.052459 0.039804
v 0.138337 0.088731 -0.093789
v 0.171014 -0.056956 0.033429
v 0.147586 0.084234 -0.100164
v 0.176208 -0.066827 0.026761
v 0.150563 0.076438 -0.108926
v 0.169559 -0.072871 0.016866
v 0.146130 0.068320 -0.116728
v 0.159410 -0.078209 0.013004
v 0.135982 0.062982 -0.120590
v 0.139626 -0.058317 0.037495
v 0.135194 -0.066435 0.029693
v 0.138171 -0.074231 0.020932
v 0.147421 -0.078729 0.014557
v 0.123993 0.062462 -0.119037
v 0.114743 0.066959 -0.112662
v 0.111766 0.074755 -0.103900
v 0.116199 0.082873 -0.096098
v 0.177363 -0.224944 0.010111
v 0.120406 0.162462 0.010111
v 0.131791 0.164135 0.013851
v 0.188749 -0.223270 0.013851
v 0.138828 0.165170 0.023640
v 0.195785 -0.222235 0.023640
v 0.138828 0.165171 0.035740
v 0.195785 -0.222235 0.035740
v 0.131790 0.164137 0.045530
v 0.188749 -0.223270 0.045529
v 0.120404 0.162464 0.049269
v 0.177363 -0.224944 0.049268
v 0.109019 0.160790 0.045530
v 0.165977 -0.226617 0.045529
v 0.109020 0.160788 0.013851
v 0.101983 0.159754 0.023640
v 0.101983 0.159755 0.035740
v 0.158941 -0.227652 0.035740
v 0.158941 -0.227652 0.023640
v 0.165977 -0.226617 0.013851
v 0.111473 0.187949 -0.093432
v 0.134899 0.046762 0.040162
v 0.146888 0.047281 0.038609
v 0.123462 0.188469 -0.094984
v 0.156138 0.042783 0.032234
v 0.132711 0.183972 -0.101360
v 0.160225 0.033933 0.024525
v 0.135688 0.176176 -0.110121
v 0.154683 0.026869 0.015670
v 0.131256 0.168058 -0.117923
v 0.144534 0.021531 0.011808
v 0.121107 0.162720 -0.121785
v 0.124750 0.041424 0.036300
v 0.120318 0.033306 0.028498
v 0.123296 0.025509 0.019737
v 0.132545 0.021011 0.013361
v 0.109118 0.162200 -0.120232
v 0.099869 0.166697 -0.113857
v 0.096892 0.174494 -0.105096
v 0.101324 0.182611 -0.097294
vt 0.517711 0.470264
vt 0.517711 0.278636
vt 0.567437 0.278619
vt 0.567437 0.470290
vt 0.394337 0.520607
vt 0.512862 0.516924
vt 0.555372 0.538567
vt 0.600279 0.557559
vt 0.612540 0.617130
vt 0.607523 0.639745
vt 0.589198 0.675194
vt 0.565240 0.711624
vt 0.511515 0.742565
vt 0.394347 0.728882
vt 0.394855 0.020274
vt 0.512735 0.018378
vt 0.564556 0.030394
vt 0.589422 0.066733
vt 0.606154 0.105567
vt 0.620454 0.143766
vt 0.587470 0.183594
vt 0.557859 0.213316
vt 0.515533 0.233729
vt 0.394866 0.229712
vt 0.625000 0.791828
vt 0.625000 0.958588
vt 0.603484 0.958555
vt 0.603484 0.791436
vt 0.145569 0.500000
vt 0.353581 0.500000
vt 0.353470 0.750000
vt 0.145572 0.750000
vt 0.516412 0.971521
vt 0.516412 0.779938
vt 0.568356 0.788344
vt 0.568356 0.961036
vt 0.663381 0.607289
vt 0.835876 0.607289
vt 0.833588 0.641412
vt 0.666828 0.641412
vt 0.604403 0.278670
vt 0.604403 0.470161
vt 0.625000 0.289124
vt 0.625000 0.461619
vt 0.375000 0.771530
vt 0.375000 0.979428
vt 0.375000 0.250000
vt 0.375000 0.000000
vt 0.625000 0.142711
vt 0.604768 0.191555
vt 0.608013 0.566278
vt 0.625000 0.607289
vt 0.517711 0.500000
vt 0.567220 0.520507
vt 0.567437 0.229403
vt 0.517711 0.250000
vt 0.604403 0.192437
vt 0.567845 0.228995
vt 0.567437 0.520597
vt 0.603978 0.557138
vt 0.375000 0.270569
vt 0.375000 0.478581
vt 0.623748 0.644436
vt 0.603484 0.693356
vt 0.605493 0.061493
vt 0.625000 0.108588
vt 0.517183 0.000319
vt 0.568356 0.021516
vt 0.568356 0.728485
vt 0.523601 0.747022
vt 0.599951 0.696889
vt 0.574516 0.027676
vt 0.603484 0.056644
vt 0.625000 0.139474
vt 0.379204 0.000000
vt 0.516412 0.000000
vt 0.500000 0.500000
vt 0.500000 1.000000
vt 0.400000 1.000000
vt 0.400000 0.500000
vt 0.300000 1.000000
vt 0.300000 0.500000
vt 0.200000 1.000000
vt 0.200000 0.500000
vt 0.100000 1.000000
vt 0.100000 0.500000
vt -0.000000 1.000000
vt -0.000000 0.500000
vt 0.400000 0.500000
vt 0.400000 1.000000
vt 0.300000 1.000000
vt 0.300000 0.500000
vt 0.200000 1.000000
vt 0.200000 0.500000
vt 0.100000 1.000000
vt 0.100000 0.500000
vt -0.000000 1.000000
vt -0.000000 0.500000
vt 0.400000 0.500000
vt 0.400000 1.000000
vt 0.300000 1.000000
vt 0.300000 0.500000
vt 0.200000 1.000000
vt 0.200000 0.500000
vt 0.100000 1.000000
vt 0.100000 0.500000
vt -0.000000 1.000000
vt -0.000000 0.500000
vt 0.500000 0.500000
vt 0.500000 1.000000
vt 0.400000 1.000000
vt 0.400000 0.500000
vt 1.000000 0.500000
vt 1.000000 1.000000
vt 0.900000 1.000000
vt 0.900000 0.500000
vt 0.800000 1.000000
vt 0.800000 0.500000
vt 0.700000 1.000000
vt 0.700000 0.500000
vt 0.600000 1.000000
vt 0.600000 0.500000
vt 0.500000 1.000000
vt 0.500000 0.500000
vt 0.391068 0.444164
vt 0.250000 0.490000
vt 0.108932 0.444164
vt 0.021746 0.324164
vt 0.021746 0.175836
vt 0.108932 0.055836
vt 0.250000 0.010000
vt 0.391068 0.055836
vt 0.478254 0.175836
vt 0.478254 0.324164
vt 0.750000 0.490000
vt 0.891068 0.444164
vt 0.978254 0.324164
vt 0.978254 0.175836
vt 0.891068 0.055836
vt 0.750000 0.010000
vt 0.608932 0.055836
vt 0.521746 0.175836
vt 0.521746 0.324164
vt 0.608932 0.444164
vt 1.000000 0.500000
vt 1.000000 1.000000
vt 0.900000 1.000000
vt 0.900000 0.500000
vt 0.800000 1.000000
vt 0.800000 0.500000
vt 0.700000 1.000000
vt 0.700000 0.500000
vt 0.600000 1.000000
vt 0.600000 0.500000
vt 0.500000 1.000000
vt 0.500000 0.500000
vt 0.400000 1.000000
vt 0.400000 0.500000
vt 0.391068 0.444164
vt 0.250000 0.490000
vt 0.108932 0.444164
vt 0.021746 0.324164
vt 0.021746 0.175836
vt 0.108932 0.055836
vt 0.250000 0.010000
vt 0.391068 0.055836
vt 0.478254 0.175836
vt 0.478254 0.324164
vt 0.750000 0.490000
vt 0.891068 0.444164
vt 0.978254 0.324164
vt 0.978254 0.175836
vt 0.891068 0.055836
vt 0.750000 0.010000
vt 0.608932 0.055836
vt 0.521746 0.175836
vt 0.521746 0.324164
vt 0.608932 0.444164
vt 1.000000 0.500000
vt 1.000000 1.000000
vt 0.900000 1.000000
vt 0.900000 0.500000
vt 0.800000 1.000000
vt 0.800000 0.500000
vt 0.700000 1.000000
vt 0.700000 0.500000
vt 0.600000 1.000000
vt 0.600000 0.500000
vt 0.500000 1.000000
vt 0.500000 0.500000
vt 0.391068 0.444164
vt 0.250000 0.490000
vt 0.108932 0.444164
vt 0.021746 0.324164
vt 0.021746 0.175836
vt 0.108932 0.055836
vt 0.250000 0.010000
vt 0.391068 0.055836
vt 0.478254 0.175836
vt 0.478254 0.324164
vt 0.750000 0.490000
vt 0.891068 0.444164
vt 0.978254 0.324164
vt 0.978254 0.175836
vt 0.891068 0.055836
vt 0.750000 0.010000
vt 0.608932 0.055836
vt 0.521746 0.175836
vt 0.521746 0.324164
vt 0.608932 0.444164
vn 0.0598 0.3229 -0.9445
vn 0.9855 0.1593 0.0586
vn -0.9963 0.0846 0.0118
vn 0.0973 0.8875 0.4504
vn 0.0025 -1.0000 0.0010
vn 0.1750 0.3887 0.9046
vn -0.1610 0.9816 -0.1031
vn 0.0777 0.7050 -0.7050
vn -0.0336 0.9201 -0.3902
vn 0.2131 0.6185 0.7563
vn 0.0844 0.0640 0.9944
vn -0.9305 -0.3664 -0.0007
vn 0.9255 -0.3788 0.0002
vn -0.9311 0.3602 -0.0571
vn 0.7783 0.6238 -0.0723
vn 0.7987 0.2949 -0.5245
vn -0.7729 0.2610 -0.5784
vn -0.8840 0.3307 -0.3304
vn 0.9225 0.2981 -0.2453
vn -0.7990 -0.0068 -0.6013
vn 0.8045 0.0863 -0.5877
vn 0.8784 0.4248 0.2189
vn -0.8056 0.5464 0.2292
vn -0.8265 0.2768 0.4902
vn 0.7922 0.3519 0.4986
vn 0.7643 0.6328 0.1237
vn 0.7257 0.5783 0.3727
vn 0.8870 0.2061 0.4133
vn -0.8552 0.3010 0.4218
vn -0.9047 0.4237 -0.0442
vn -0.8285 0.0717 0.5554
vn -0.0550 -0.0504 -0.9972
vn -0.0632 -0.6914 -0.7197
vn -0.6335 -0.5846 -0.5068
vn -0.9618 -0.2545 -0.1003
vn -0.9228 0.1728 0.3444
vn -0.5312 0.5341 0.6577
vn -0.8004 -0.1177 0.5877
vn -0.9894 -0.1455 0.0000
vn -0.8004 -0.1177 -0.5878
vn -0.3058 -0.0450 -0.9510
vn -0.6336 -0.5846 -0.5067
vn -0.9618 -0.2545 -0.1004
vn 0.0633 0.6914 0.7197
vn 0.6335 0.5846 0.5068
vn 0.9407 0.3042 0.1499
vn 0.8958 -0.2142 -0.3895
vn 0.5312 -0.5341 -0.6577
vn 0.0879 -0.7221 0.6861
vn -0.1197 0.7212 -0.6823
vn 0.3058 0.0450 -0.9510
vn 0.8004 0.1177 -0.5878
vn 0.9894 0.1455 -0.0000
vn 0.8004 0.1177 0.5878
vn 0.3057 0.0449 0.9511
vn -0.3057 -0.0450 0.9511
vn -0.1454 0.9894 -0.0001
vn 0.1454 -0.9894 -0.0000
vn 0.0632 0.6914 0.7197
vn 0.6336 0.5846 0.5068
vn 0.9518 0.2798 0.1255
vn 0.9095 -0.1941 -0.3677
vn 0.1035 -0.7218 0.6844
vn -0.1197 0.7212 -0.6824
usemtl Material.011
s 1
f 1/1/1 2/2/1 3/3/1 4/4/1
f 5/5/2 6/6/2 7/7/2 8/8/2 9/9/2 10/10/2 11/11/2 12/12/2 13/13/2 14/14/2
f 15/15/3 16/16/3 17/17/3 18/18/3 19/19/3 20/20/3 21/21/3 22/22/3 23/23/3 24/24/3
f 25/25/4 26/26/4 27/27/4 28/28/4
f 29/29/5 30/30/5 31/31/5 32/32/5
f 33/33/6 34/34/6 35/35/6 36/36/6
f 37/37/7 38/38/7 26/39/7 25/40/7
f 39/41/8 40/42/8 4/4/8 3/3/8
f 38/43/9 37/44/9 40/42/9 39/41/9
f 28/28/10 27/27/10 36/36/10 35/35/10
f 31/45/11 34/34/11 33/33/11 32/46/11
f 29/47/12 32/48/12 15/15/12 24/24/12
f 31/31/13 30/30/13 5/5/13 14/14/13
f 21/21/14 20/20/14 38/49/14 39/50/14
f 9/9/15 8/8/15 40/51/15 37/52/15
f 7/7/16 6/6/16 1/53/16 4/54/16
f 23/23/17 22/22/17 3/55/17 2/56/17
f 22/22/18 21/21/18 39/57/18 3/58/18
f 8/8/19 7/7/19 4/59/19 40/60/19
f 24/24/20 23/23/20 2/2/20 29/61/20
f 6/6/21 5/5/21 30/62/21 1/1/21
f 11/11/22 10/10/22 25/63/22 28/64/22
f 19/19/23 18/18/23 27/65/23 26/66/23
f 17/17/24 16/16/24 33/67/24 36/68/24
f 13/13/25 12/12/25 35/69/25 34/70/25
f 37/37/26 25/40/26 10/10/26 9/9/26
f 28/71/27 35/69/27 12/12/27 11/11/27
f 34/34/28 31/45/28 14/14/28 13/13/28
f 18/18/29 17/17/29 36/72/29 27/73/29
f 20/20/30 19/19/30 26/66/30 38/74/30
f 16/16/31 15/15/31 32/75/31 33/76/31
f 29/61/32 2/2/32 1/1/32 30/62/32
f 41/77/33 42/78/33 43/79/33 44/80/33
f 44/80/34 43/79/34 45/81/34 46/82/34
f 46/82/35 45/81/35 47/83/35 48/84/35
f 48/84/36 47/83/36 49/85/36 50/86/36
f 50/86/37 49/85/37 51/87/37 52/88/37
f 53/89/38 54/90/38 55/91/38 56/92/38
f 56/92/39 55/91/39 57/93/39 58/94/39
f 58/94/40 57/93/40 59/95/40 60/96/40
f 60/96/41 59/95/41 61/97/41 62/98/41
f 63/99/42 64/100/42 65/101/42 66/102/42
f 66/102/43 65/101/43 67/103/43 68/104/43
f 68/104/36 67/103/36 69/105/36 70/106/36
f 70/106/37 69/105/37 71/107/37 72/108/37
f 73/109/33 74/110/33 75/111/33 76/112/33
usemtl Material.012
f 77/113/44 78/114/44 79/115/44 80/116/44
f 80/116/45 79/115/45 81/117/45 82/118/45
f 82/118/46 81/117/46 83/119/46 84/120/46
f 84/120/47 83/119/47 85/121/47 86/122/47
f 86/122/48 85/121/48 87/123/48 88/124/48
f 79/125/49 78/126/49 89/127/49 90/128/49 91/129/49 92/130/49 87/131/49 85/132/49 83/133/49 81/134/49
f 77/135/50 80/136/50 82/137/50 84/138/50 86/139/50 88/140/50 93/141/50 94/142/50 95/143/50 96/144/50
f 97/145/51 98/146/51 99/147/51 100/148/51
f 100/148/52 99/147/52 101/149/52 102/150/52
f 102/150/53 101/149/53 103/151/53 104/152/53
f 104/152/54 103/151/54 105/153/54 106/154/54
f 106/154/55 105/153/55 107/155/55 108/156/55
f 108/156/56 107/155/56 109/157/56 110/158/56
f 99/159/57 98/160/57 111/161/57 112/162/57 113/163/57 109/164/57 107/165/57 105/166/57 103/167/57 101/168/57
f 97/169/58 100/170/58 102/171/58 104/172/58 106/173/58 108/174/58 110/175/58 114/176/58 115/177/58 116/178/58
f 117/179/59 118/180/59 119/181/59 120/182/59
f 120/182/60 119/181/60 121/183/60 122/184/60
f 122/184/61 121/183/61 123/185/61 124/186/61
f 124/186/62 123/185/62 125/187/62 126/188/62
f 126/188/48 125/187/48 127/189/48 128/190/48
f 119/191/63 118/192/63 129/193/63 130/194/63 131/195/63 132/196/63 127/197/63 125/198/63 123/199/63 121/200/63
f 117/201/64 120/202/64 122/203/64 124/204/64 126/205/64 128/206/64 133/207/64 134/208/64 135/209/64 136/210/64
