# Blender v2.92.0 OBJ File: ''
# www.blender.org
o Cube.002
v -0.103538 0.057783 0.407809
v 0.121046 0.053859 0.415122
v 0.121066 0.224025 0.365204
v -0.103568 0.220550 0.343912
v -0.194951 -0.344180 0.341708
v -0.159370 0.052678 0.353320
v -0.138387 0.182568 0.284573
v -0.106773 0.308963 0.224390
v -0.090413 0.377373 0.050844
v -0.059811 0.368959 -0.033810
v -0.068578 0.315048 -0.120849
v -0.086092 0.255966 -0.228107
v -0.107456 0.026348 -0.322901
v -0.194874 -0.344221 -0.332553
v 0.196997 -0.343167 -0.341707
v 0.170721 0.045212 -0.348794
v 0.125379 0.203090 -0.312460
v 0.149344 0.301110 -0.220143
v 0.148097 0.353480 -0.091340
v 0.123190 0.363999 0.086824
v 0.154606 0.285423 0.214022
v 0.154606 0.191073 0.308373
v 0.176988 0.057669 0.365541
v 0.197058 -0.338569 0.309714
v -0.026812 0.432392 -0.060707
v 0.104749 0.421756 -0.089263
v 0.104723 0.351564 -0.248378
v -0.027120 0.362226 -0.178060
v 0.170351 -0.409454 0.369100
v -0.168966 -0.407809 0.407809
v -0.168783 -0.407809 -0.407809
v 0.170347 -0.407809 -0.407809
v 0.121727 0.054146 -0.402732
v -0.087435 0.073214 -0.354943
v -0.026912 0.261668 -0.284801
v 0.121188 0.230123 -0.327893
v -0.026893 0.427447 0.062046
v 0.121050 0.393230 0.081208
v 0.121006 0.344625 0.244598
v -0.103417 0.341153 0.223326
v -0.141622 0.065594 0.125592
v -0.166022 -0.081453 -0.013543
v -0.153536 -0.081994 -0.015160
v -0.129136 0.065053 0.123974
v -0.143902 -0.077310 -0.021800
v -0.119503 0.069736 0.117335
v -0.140802 -0.069190 -0.030925
v -0.116402 0.077856 0.108210
v -0.145418 -0.060735 -0.039051
v -0.121019 0.086310 0.100084
v -0.155988 -0.055176 -0.043073
v -0.131589 0.091870 0.096062
v -0.172862 -0.236017 -0.047418
v -0.113541 0.167459 -0.047418
v -0.106213 0.166381 -0.037223
v -0.165533 -0.237095 -0.037222
v -0.106213 0.166380 -0.024621
v -0.165533 -0.237095 -0.024620
v -0.113542 0.167458 -0.014425
v -0.172862 -0.236017 -0.014425
v -0.125400 0.169200 -0.010531
v -0.184720 -0.234274 -0.010531
v -0.113644 0.168928 0.125219
v -0.138043 0.021883 -0.013916
v -0.128410 0.026567 -0.020555
v -0.104011 0.173611 0.118580
v -0.125309 0.034687 -0.029680
v -0.100911 0.181731 0.109455
v -0.129925 0.043142 -0.037806
v -0.105527 0.190186 0.101329
v -0.140494 0.048701 -0.041828
v -0.116097 0.195745 0.097307
v -0.126130 0.169469 0.126837
v -0.150529 0.022424 -0.012298
v -0.138043 0.021883 -0.013916
v -0.113644 0.168928 0.125219
v -0.131589 0.091870 0.096062
v -0.155988 -0.055176 -0.043073
v -0.168474 -0.054635 -0.041455
v -0.144075 0.092412 0.097680
v -0.178107 -0.059319 -0.034816
v -0.153708 0.087728 0.104319
v -0.183517 -0.069599 -0.027871
v -0.156808 0.079608 0.113444
v -0.176592 -0.075893 -0.017565
v -0.152192 0.071154 0.121570
v -0.166022 -0.081453 -0.013543
v -0.141622 0.065594 0.125592
v -0.145418 -0.060735 -0.039051
v -0.140802 -0.069190 -0.030925
v -0.143902 -0.077310 -0.021800
v -0.153536 -0.081994 -0.015160
v -0.129136 0.065053 0.123974
v -0.119503 0.069736 0.117335
v -0.116402 0.077856 0.108210
v -0.121019 0.086310 0.100084
v -0.184720 -0.234274 -0.010531
v -0.125400 0.169200 -0.010531
v -0.137258 0.170943 -0.014425
v -0.196578 -0.232531 -0.014425
v -0.144586 0.172021 -0.024621
v -0.203906 -0.231453 -0.024620
v -0.144586 0.172022 -0.037223
v -0.203906 -0.231453 -0.037222
v -0.137257 0.170945 -0.047418
v -0.196578 -0.232530 -0.047418
v -0.125399 0.169203 -0.051312
v -0.184720 -0.234274 -0.051312
v -0.113541 0.167459 -0.047418
v -0.172862 -0.236017 -0.047418
v -0.113542 0.167458 -0.014425
v -0.106213 0.166380 -0.024621
v -0.106213 0.166381 -0.037223
v -0.165533 -0.237095 -0.037222
v -0.165533 -0.237095 -0.024620
v -0.172862 -0.236017 -0.014425
v -0.116097 0.195745 0.097307
v -0.140494 0.048701 -0.041828
v -0.152981 0.049242 -0.040210
v -0.128583 0.196287 0.098924
v -0.162615 0.044558 -0.033571
v -0.138216 0.191603 0.105564
v -0.166871 0.035341 -0.025542
v -0.141317 0.183484 0.114689
v -0.161099 0.027983 -0.016320
v -0.136700 0.175029 0.122815
v -0.150529 0.022424 -0.012298
v -0.126130 0.169469 0.126837
v -0.129925 0.043142 -0.037806
v -0.125309 0.034687 -0.029680
v -0.128410 0.026567 -0.020555
v -0.138043 0.021883 -0.013916
v -0.113644 0.168928 0.125219
v -0.104011 0.173611 0.118580
v -0.100911 0.181731 0.109455
v -0.105527 0.190186 0.101329
vt 0.789307 0.716472
vt 0.728206 0.797383
vt 0.728156 0.716594
vt 0.914903 0.359332
vt 0.768943 0.472263
vt 0.664247 0.431292
vt 0.306758 0.458194
vt 0.120423 0.421984
vt 0.462051 0.268354
vt 0.679963 0.630551
vt 0.639704 0.553318
vt 0.698620 0.550090
vt 0.343947 0.978488
vt 0.623859 0.850201
vt 0.626096 0.973361
vt 0.789571 0.936663
vt 0.727961 0.865465
vt 0.795519 0.859610
vt 0.772096 0.551540
vt 0.889002 0.648645
vt 0.972303 0.520993
vt 0.978678 0.657650
vt 0.784855 0.643955
vt 0.679449 0.876654
vt 0.716693 0.920684
vt 0.672942 0.927263
vt 0.963847 0.957879
vt 0.956449 0.837230
vt 0.024887 0.011777
vt 0.456036 0.034975
vt 0.059415 0.048370
vt 0.997387 0.003729
vt 0.544327 0.037490
vt 0.498552 -0.003674
vt 0.199818 0.471320
vt 0.103888 0.462822
vt 0.875064 0.452722
vt 0.774122 0.498349
vt 0.958763 0.282472
vt 0.950161 0.380516
vt 0.026745 0.286426
vt 0.030428 0.393594
vt 0.000000 0.293957
vt 0.062958 0.367832
vt 0.876133 0.433400
vt 0.956706 0.043630
vt 0.991053 0.282154
vt 0.698990 0.500237
vt 0.628004 0.456544
vt 0.405040 0.461439
vt 0.308176 0.505484
vt 0.442753 0.369423
vt 0.497908 0.280596
vt 0.452413 0.385801
vt 0.599613 0.395635
vt 0.524100 0.283493
vt 0.544570 0.256700
vt 0.716726 0.464236
vt 0.385092 0.424964
vt 0.203376 0.488828
vt 0.954013 0.814408
vt 0.955026 0.692433
vt 0.036204 0.759325
vt 0.261619 0.809015
vt 0.035318 0.804586
vt 0.034432 0.849846
vt 0.259847 0.899536
vt 0.033546 0.895106
vt 0.032660 0.940366
vt 0.258075 0.990056
vt 0.031774 0.985626
vt 0.035318 0.804586
vt 0.260733 0.854276
vt 0.034432 0.849846
vt 0.259847 0.899536
vt 0.033546 0.895106
vt 0.032660 0.940366
vt 0.258075 0.990056
vt 0.031774 0.985626
vt 0.261619 0.809015
vt 0.034432 0.849846
vt 0.035318 0.804586
vt 0.259847 0.899536
vt 0.033546 0.895106
vt 0.258961 0.944796
vt 0.032660 0.940366
vt 0.031774 0.985626
vt 0.262505 0.763755
vt 0.035318 0.804586
vt 0.036204 0.759325
vt 0.791292 0.797225
vt 0.596300 0.633551
vt 0.327652 0.855513
vt 0.882633 0.512118
vt 0.497908 0.000000
vt 0.563838 0.394438
vt 0.262505 0.763755
vt 0.260733 0.854276
vt 0.258961 0.944796
vt 0.261619 0.809015
vt 0.258961 0.944796
vt 0.260733 0.854276
vt 0.258075 0.990056
vt 0.261619 0.809015
vt 0.040634 0.533024
vt 0.266049 0.582715
vt 0.039748 0.578285
vt 0.038862 0.623545
vt 0.265163 0.627975
vt 0.037976 0.668805
vt 0.263391 0.718495
vt 0.037090 0.714065
vt 0.036204 0.759325
vt 0.355460 0.708825
vt 0.515879 0.592274
vt 0.553749 0.708825
vt 0.554112 0.644398
vt 0.355823 0.644398
vt 0.393693 0.760949
vt 0.040634 0.533024
vt 0.266049 0.582715
vt 0.039748 0.578285
vt 0.038862 0.623545
vt 0.265163 0.627975
vt 0.037976 0.668805
vt 0.264277 0.673235
vt 0.037090 0.714065
vt 0.263391 0.718495
vt 0.036204 0.759325
vt 0.261619 0.809015
vt 0.035318 0.804586
vt 0.355460 0.708825
vt 0.515879 0.592274
vt 0.553749 0.708825
vt 0.457031 0.571520
vt 0.357872 0.643563
vt 0.395748 0.760131
vt 0.040634 0.533024
vt 0.266049 0.582715
vt 0.039748 0.578285
vt 0.038862 0.623545
vt 0.265163 0.627975
vt 0.037976 0.668805
vt 0.263391 0.718495
vt 0.037090 0.714065
vt 0.036204 0.759325
vt 0.355460 0.708825
vt 0.515879 0.592274
vt 0.553749 0.708825
vt 0.355823 0.708825
vt 0.393693 0.760949
vt 0.554112 0.644398
vt 0.266935 0.537454
vt 0.264277 0.673235
vt 0.262505 0.763755
vt 0.515879 0.760949
vt 0.454604 0.780858
vt 0.393330 0.760949
vt 0.355460 0.644398
vt 0.393330 0.592274
vt 0.454604 0.572365
vt 0.553749 0.644398
vt 0.454968 0.780858
vt 0.516242 0.760949
vt 0.554112 0.708825
vt 0.516242 0.592274
vt 0.454968 0.572365
vt 0.393693 0.592274
vt 0.355823 0.708825
vt 0.266935 0.537454
vt 0.262505 0.763755
vt 0.515879 0.760949
vt 0.454604 0.780858
vt 0.393330 0.760949
vt 0.355460 0.644398
vt 0.393330 0.592274
vt 0.454604 0.572365
vt 0.553749 0.644398
vt 0.457031 0.780043
vt 0.556190 0.643563
vt 0.518314 0.760131
vt 0.556190 0.708000
vt 0.518314 0.591432
vt 0.395748 0.591432
vt 0.357872 0.708000
vt 0.266935 0.537454
vt 0.264277 0.673235
vt 0.262505 0.763755
vt 0.515879 0.760949
vt 0.454604 0.780858
vt 0.393330 0.760949
vt 0.355460 0.644398
vt 0.393330 0.592274
vt 0.454604 0.572365
vt 0.553749 0.644398
vt 0.454968 0.780858
vt 0.516242 0.760949
vt 0.554112 0.708825
vt 0.516242 0.592274
vt 0.454968 0.572365
vt 0.393693 0.592274
vt 0.355823 0.644398
vn -0.0652 0.3294 0.9419
vn -0.0546 0.3165 0.9470
vn -0.0935 0.3638 0.9268
vn -0.9863 0.1439 -0.0810
vn -0.9753 0.1572 -0.1549
vn -0.9762 0.1930 -0.0985
vn 0.9917 0.1284 0.0021
vn 0.9952 0.0942 0.0245
vn 0.9926 0.1029 -0.0642
vn -0.0911 0.8845 -0.4576
vn -0.0974 0.8875 -0.4504
vn -0.0419 0.8576 -0.5126
vn -0.0037 -1.0000 -0.0005
vn -0.0013 -1.0000 -0.0016
vn 0.0000 -1.0000 -0.0021
vn -0.1750 0.3887 -0.9046
vn -0.1754 0.3891 -0.9044
vn -0.1721 0.3851 -0.9067
vn 0.1571 0.9825 0.0998
vn 0.1553 0.9830 0.0981
vn 0.0892 0.9952 0.0402
vn -0.0777 0.7050 0.7050
vn 0.0432 0.9225 0.3835
vn 0.0467 0.9233 0.3811
vn 0.1817 0.9425 0.2804
vn -0.2107 0.6161 -0.7590
vn -0.2169 0.6223 -0.7521
vn -0.2935 0.6955 -0.6558
vn -0.0600 0.0487 -0.9970
vn -0.1313 0.0934 -0.9869
vn 0.0000 0.0110 -0.9999
vn 0.9352 -0.3541 0.0020
vn 0.9254 -0.3791 -0.0007
vn 0.9364 -0.3508 0.0024
vn -0.9257 -0.3783 -0.0001
vn -0.9253 -0.3793 -0.0002
vn -0.9252 -0.3794 -0.0002
vn 0.9868 0.1586 0.0331
vn 0.9039 0.4229 0.0644
vn 0.8825 0.4651 0.0693
vn -0.6798 0.7264 0.1013
vn -0.9706 0.2397 -0.0228
vn -0.6274 0.7703 0.1144
vn -0.7512 0.2831 0.5963
vn -0.8435 0.3052 0.4420
vn -0.8927 0.3148 0.3223
vn 0.7120 0.2407 0.6596
vn 0.8311 0.2803 0.4804
vn 0.6393 0.2164 0.7379
vn 0.8840 0.3308 0.3305
vn 0.8841 0.3305 0.3304
vn 0.8842 0.3303 0.3303
vn -0.9772 0.1575 0.1427
vn -0.9026 0.3342 0.2714
vn -0.9887 0.1066 0.1053
vn 0.8746 0.0396 0.4833
vn 0.6968 -0.0571 0.7150
vn 0.8877 0.0490 0.4577
vn -0.8660 0.1170 0.4861
vn -0.7264 0.0525 0.6853
vn -0.6998 0.0419 0.7131
vn -0.8743 0.4283 -0.2284
vn -0.8850 0.4190 -0.2029
vn -0.8596 0.4395 -0.2605
vn 0.8112 0.5374 -0.2306
vn 0.7985 0.5574 -0.2273
vn 0.8179 0.5264 -0.2323
vn 0.9652 0.1179 -0.2336
vn 0.7616 0.3222 -0.5624
vn 0.9863 0.0670 -0.1505
vn -0.7011 0.4101 -0.5834
vn -0.9041 0.2481 -0.3478
vn -0.9363 0.2049 -0.2853
vn -0.7250 0.6700 -0.1598
vn -0.7928 0.6021 -0.0951
vn -0.5631 0.7772 -0.2808
vn -0.7664 0.5673 -0.3013
vn -0.6811 0.5852 -0.4400
vn -0.8294 0.5354 -0.1595
vn -0.8626 0.2117 -0.4595
vn -0.9286 0.1931 -0.3168
vn -0.9334 0.1912 -0.3036
vn 0.8117 0.3674 -0.4541
vn 0.9421 0.1081 -0.3174
vn 0.7736 0.4172 -0.4770
vn 0.8709 0.4909 0.0234
vn 0.9733 0.2037 0.1056
vn 0.9864 0.0976 0.1321
vn 0.8770 0.0938 -0.4713
vn 0.7644 0.0460 -0.6431
vn 0.7428 0.0381 -0.6684
vn 0.0706 -0.0412 0.9967
vn 0.0243 -0.0684 0.9974
vn 0.1133 -0.0159 0.9934
vn 0.0633 -0.6914 0.7197
vn 0.0632 -0.6914 0.7197
vn 0.6335 -0.5846 0.5068
vn 0.6335 -0.5847 0.5068
vn 0.9618 -0.2546 0.1003
vn 0.9619 -0.2545 0.1003
vn 0.9228 0.1728 -0.3444
vn 0.9227 0.1728 -0.3445
vn 0.5312 0.5341 -0.6577
vn 0.5312 0.5342 -0.6577
vn 0.8004 -0.1177 -0.5878
vn 0.9894 -0.1455 -0.0000
vn 0.8004 -0.1177 0.5878
vn 0.3057 -0.0449 0.9511
vn 0.9618 -0.2545 0.1003
vn -0.0263 0.2814 0.9592
vn -0.9733 0.2296 -0.0001
vn -0.9892 0.1365 -0.0541
vn -0.9844 0.1719 -0.0373
vn -0.9915 0.1024 -0.0801
vn -0.9695 0.2450 0.0052
vn -0.9891 0.0328 0.1434
vn -0.7084 0.6297 -0.3187
vn 0.9984 0.0568 -0.0068
vn 0.9977 0.0675 -0.0006
vn 0.7519 0.3452 -0.5617
vn 0.9852 0.1353 -0.1053
vn 0.8646 0.4941 0.0917
vn 0.9940 0.1097 0.0000
vn 0.9948 0.1017 -0.0105
vn -0.1399 0.9059 -0.3996
vn -0.0048 -1.0000 -0.0000
vn -0.1787 0.3931 -0.9020
vn 0.2055 0.9682 0.1424
vn -0.0564 0.8912 0.4501
vn -0.1307 0.5306 -0.8375
vn -0.2082 0.1416 -0.9678
vn 0.9248 -0.3804 -0.0008
vn -0.9257 -0.3781 -0.0001
vn 0.9967 0.0774 0.0233
vn -0.9934 0.1018 -0.0535
vn -0.6856 0.2659 0.6776
vn 0.8876 0.2991 0.3504
vn 0.8839 0.3310 0.3305
vn -0.8868 0.3599 0.2900
vn 0.6643 -0.0712 0.7441
vn -0.8774 0.1233 0.4636
vn -0.9018 0.4021 -0.1582
vn 0.7889 0.5719 -0.2249
vn 0.7224 0.3453 -0.5990
vn -0.6430 0.4399 -0.6270
vn -0.8838 0.4675 0.0183
vn -0.5884 0.5880 -0.5551
vn -0.8530 0.2136 -0.4762
vn 0.9668 0.0041 -0.2554
vn 0.8443 0.5358 0.0089
vn 0.8860 0.0982 -0.4532
vn -0.0342 -0.1024 0.9942
vn 0.9618 -0.2546 0.1004
vn -0.0632 0.6914 -0.7197
vn -0.0633 0.6914 -0.7197
vn -0.6335 0.5846 -0.5068
vn -0.9180 0.3466 -0.1929
vn -0.9604 0.2585 -0.1042
vn -0.9619 0.2545 -0.1003
vn -0.9208 -0.1761 0.3481
vn -0.8696 -0.2488 0.4266
vn -0.9228 -0.1728 0.3444
vn -0.5312 -0.5341 0.6577
vn -0.1197 -0.7211 -0.6824
vn -0.0259 -0.7220 -0.6914
vn -0.0235 -0.7219 -0.6916
vn 0.1197 0.7212 0.6824
vn 0.1197 0.7212 0.6823
vn -0.3057 0.0449 0.9511
vn -0.8004 0.1177 0.5877
vn -0.8004 0.1177 0.5878
vn -0.9894 0.1455 0.0000
vn -0.8004 0.1177 -0.5878
vn -0.8005 0.1177 -0.5877
vn -0.3057 0.0449 -0.9511
vn 0.3057 -0.0449 -0.9511
vn 0.1454 0.9894 0.0000
vn 0.1454 0.9894 0.0001
vn -0.1455 -0.9894 -0.0000
vn -0.6335 0.5847 -0.5068
vn -0.6336 0.5846 -0.5068
vn -0.9417 0.3022 -0.1479
vn -0.9611 0.2566 -0.1023
vn -0.9618 0.2546 -0.1004
vn -0.9217 -0.1745 0.3463
vn -0.8967 -0.2128 0.3880
vn -0.9228 -0.1728 0.3445
vn -0.5312 -0.5342 0.6577
vn -0.1196 -0.7211 -0.6824
vn -0.0691 -0.7224 -0.6880
vn -0.0685 -0.7224 -0.6881
vn 0.1197 0.7211 0.6824
vn -0.9161 0.3497 -0.1961
vn -0.8674 -0.2514 0.4294
vn -0.1196 -0.7212 -0.6824
vn -0.1197 -0.7212 -0.6824
vn 0.3880 -0.6474 -0.6560
vn 0.1196 0.7212 0.6824
vn 0.1195 0.7212 0.6824
vn 0.1455 0.9894 0.0001
vn -0.1454 -0.9894 -0.0000
vn -0.1455 -0.9894 -0.0001
vn -0.1454 -0.9894 -0.0001
vn -0.9408 0.3040 -0.1497
vn -0.8957 -0.2143 0.3896
vn -0.1197 -0.7212 -0.6823
vn 0.2107 -0.6956 -0.6869
s 1
f 1/1/1 3/2/2 4/3/3
f 7/4/4 9/5/5 11/6/6
f 19/7/7 21/8/8 16/9/9
f 26/10/10 28/11/11 25/12/12
f 29/13/13 31/14/14 32/15/15
f 34/16/16 36/17/17 33/18/18
f 37/19/19 26/10/20 25/12/21
f 39/20/22 4/21/22 3/22/22
f 37/19/23 39/20/24 38/23/25
f 27/24/26 35/25/27 28/26/28
f 31/27/29 33/18/30 32/28/31
f 29/29/32 15/30/33 24/31/34
f 30/32/35 14/33/36 31/34/37
f 20/35/38 39/36/39 21/8/40
f 9/5/41 40/37/42 37/38/43
f 6/39/44 4/40/45 7/4/46
f 23/41/47 3/42/48 2/43/49
f 21/8/50 3/42/51 22/44/52
f 8/45/53 4/40/54 40/37/55
f 24/31/56 2/43/57 29/29/58
f 5/46/59 1/47/60 6/39/61
f 11/6/62 25/48/63 28/49/64
f 19/7/65 27/50/66 26/51/67
f 17/52/68 33/53/69 36/54/70
f 12/55/71 34/56/72 13/57/73
f 37/38/74 10/58/75 9/5/76
f 28/49/77 12/55/78 11/6/79
f 31/34/80 13/57/81 34/56/82
f 18/59/83 36/54/84 27/50/85
f 19/7/86 38/60/87 20/35/88
f 15/30/89 33/53/90 16/9/91
f 29/61/92 1/1/93 30/62/94
f 41/63/95 43/64/96 44/65/95
f 43/64/97 46/66/98 44/65/98
f 46/66/99 47/67/100 48/68/99
f 47/67/101 50/69/102 48/68/102
f 50/69/103 51/70/104 52/71/103
f 53/72/105 55/73/105 56/74/105
f 56/74/106 57/75/106 58/76/106
f 57/75/107 60/77/107 58/76/107
f 60/77/108 61/78/108 62/79/108
f 64/80/97 66/81/98 63/82/98
f 66/81/100 67/83/109 68/84/100
f 68/84/101 69/85/101 70/86/101
f 69/85/103 72/87/104 70/86/104
f 74/88/95 76/89/95 73/90/95
f 1/1/1 2/91/110 3/2/2
f 14/33/111 5/46/112 13/57/113
f 5/46/112 6/39/114 13/57/113
f 7/4/4 8/45/115 9/5/5
f 6/39/114 7/4/4 13/57/113
f 12/55/116 13/57/113 11/6/6
f 11/6/6 13/57/113 7/4/4
f 9/5/5 10/58/117 11/6/6
f 24/31/118 15/30/119 16/9/9
f 16/9/9 17/52/120 18/59/121
f 18/59/121 19/7/7 16/9/9
f 19/7/7 20/35/122 21/8/8
f 21/8/8 22/44/123 16/9/9
f 22/44/123 23/41/124 16/9/9
f 23/41/124 24/31/118 16/9/9
f 26/10/10 27/92/125 28/11/11
f 29/13/13 30/93/126 31/14/14
f 34/16/16 35/25/127 36/17/17
f 37/19/19 38/23/128 26/10/20
f 39/20/22 40/94/22 4/21/22
f 37/19/23 40/94/129 39/20/24
f 27/24/26 36/17/130 35/25/27
f 31/27/29 34/16/131 33/18/30
f 29/29/32 32/95/132 15/30/33
f 30/32/35 5/46/133 14/33/36
f 20/35/38 38/60/134 39/36/39
f 9/5/41 8/45/135 40/37/42
f 6/39/44 1/47/136 4/40/45
f 23/41/47 22/44/137 3/42/48
f 21/8/50 39/36/138 3/42/51
f 8/45/53 7/4/139 4/40/54
f 24/31/56 23/41/140 2/43/57
f 5/46/59 30/32/141 1/47/60
f 11/6/62 10/58/142 25/48/63
f 19/7/65 18/59/143 27/50/66
f 17/52/68 16/9/144 33/53/69
f 12/55/71 35/96/145 34/56/72
f 37/38/74 25/48/146 10/58/75
f 28/49/77 35/96/147 12/55/78
f 31/34/80 14/33/148 13/57/81
f 18/59/83 17/52/149 36/54/84
f 19/7/86 26/51/150 38/60/87
f 15/30/89 32/95/151 33/53/90
f 29/61/92 2/91/152 1/1/93
f 41/63/95 42/97/96 43/64/96
f 43/64/97 45/98/97 46/66/98
f 46/66/99 45/98/100 47/67/100
f 47/67/101 49/99/101 50/69/102
f 50/69/103 49/99/104 51/70/104
f 53/72/105 54/100/105 55/73/105
f 56/74/106 55/73/106 57/75/106
f 57/75/107 59/101/107 60/77/107
f 60/77/108 59/101/108 61/78/108
f 64/80/97 65/102/97 66/81/98
f 66/81/100 65/102/153 67/83/109
f 68/84/101 67/83/101 69/85/101
f 69/85/103 71/103/103 72/87/104
f 74/88/95 75/104/95 76/89/95
f 77/105/154 79/106/155 80/107/154
f 79/106/156 82/108/156 80/107/156
f 81/109/157 84/110/158 82/108/159
f 84/110/160 85/111/161 86/112/162
f 85/111/163 88/113/163 86/112/163
f 90/114/164 85/115/165 81/116/166
f 84/117/167 94/118/168 96/119/167
f 97/120/169 99/121/169 100/122/169
f 99/121/170 102/123/171 100/122/171
f 101/124/172 104/125/172 102/123/172
f 103/126/173 106/127/174 104/125/174
f 105/128/175 108/129/175 106/127/175
f 108/129/176 109/130/176 110/131/176
f 112/132/177 105/133/178 101/134/178
f 108/135/179 114/136/179 116/137/179
f 117/138/154 119/139/155 120/140/154
f 119/139/180 122/141/181 120/140/181
f 121/142/182 124/143/183 122/141/184
f 124/143/185 125/144/186 126/145/187
f 125/144/188 128/146/163 126/145/163
f 130/147/189 125/148/190 121/149/191
f 135/150/192 136/151/167 124/152/167
f 77/105/154 78/153/155 79/106/155
f 79/106/156 81/109/156 82/108/156
f 81/109/157 83/154/193 84/110/158
f 84/110/160 83/154/194 85/111/161
f 85/111/163 87/155/163 88/113/163
f 81/116/166 79/156/164 78/157/195
f 78/157/195 89/158/195 81/116/166
f 89/158/195 90/114/164 81/116/166
f 90/114/164 91/159/196 85/115/165
f 91/159/196 92/160/196 85/115/165
f 92/160/196 87/161/189 85/115/165
f 85/115/165 83/162/197 81/116/166
f 96/119/167 77/163/192 84/117/167
f 77/163/192 80/164/192 84/117/167
f 80/164/192 82/165/198 84/117/167
f 84/117/167 86/166/168 88/167/168
f 88/167/168 93/168/168 84/117/167
f 93/168/168 94/118/168 84/117/167
f 94/118/168 95/169/199 96/119/167
f 97/120/169 98/170/169 99/121/169
f 99/121/170 101/124/170 102/123/171
f 101/124/172 103/126/172 104/125/172
f 103/126/173 105/128/173 106/127/174
f 105/128/175 107/171/175 108/129/175
f 108/129/176 107/171/176 109/130/176
f 101/134/178 99/172/178 98/173/178
f 98/173/178 111/174/177 101/134/178
f 111/174/177 112/132/177 101/134/178
f 112/132/177 113/175/178 109/176/200
f 109/176/200 107/177/178 112/132/177
f 107/177/178 105/133/178 112/132/177
f 105/133/178 103/178/200 101/134/178
f 116/137/179 97/179/201 104/180/179
f 97/179/201 100/181/201 104/180/179
f 100/181/201 102/182/179 104/180/179
f 104/180/179 106/183/202 108/135/179
f 108/135/179 110/184/203 114/136/179
f 114/136/179 115/185/179 116/137/179
f 104/180/179 108/135/179 116/137/179
f 117/138/154 118/186/155 119/139/155
f 119/139/180 121/142/180 122/141/181
f 121/142/182 123/187/204 124/143/183
f 124/143/185 123/187/205 125/144/186
f 125/144/188 127/188/188 128/146/163
f 121/149/191 119/189/189 130/147/189
f 119/189/189 118/190/196 130/147/189
f 118/190/196 129/191/189 130/147/189
f 130/147/189 131/192/189 125/148/190
f 131/192/189 132/193/189 125/148/190
f 132/193/189 127/194/206 125/148/190
f 125/148/190 123/195/207 121/149/191
f 136/151/167 117/196/168 120/197/168
f 120/197/168 122/198/168 136/151/167
f 122/198/168 124/152/167 136/151/167
f 124/152/167 126/199/167 128/200/192
f 128/200/192 133/201/167 124/152/167
f 133/201/167 134/202/192 124/152/167
f 134/202/192 135/150/192 124/152/167
