# Blender v2.92.0 OBJ File: ''
# www.blender.org
o Suelo_Cube
v 199.999969 -0.099990 -232.201340
v 199.999969 0.100010 -232.201340
v 200.000031 0.099990 232.201279
v 200.000031 -0.100010 232.201279
v -199.999969 0.099990 232.201340
v -199.999969 -0.100010 232.201340
v -200.000031 0.100010 -232.201279
v -200.000031 -0.099990 -232.201279
vt 0.999251 0.204626
vt 0.999001 0.784551
vt 0.999001 0.204626
vt 0.999750 0.204626
vt 0.999500 0.704122
vt 0.999500 0.204626
vt 0.999251 0.784551
vt 0.999501 0.204626
vt 0.999501 0.784551
vt 1.000000 0.204626
vt 0.999750 0.704122
vt 0.999750 0.204626
vt 0.000000 0.784551
vt 0.499496 0.204626
vt 0.499496 0.784551
vt 0.499496 0.784551
vt 0.998993 0.204626
vt 0.998993 0.784551
vt 0.999251 0.784551
vt 0.999750 0.704122
vt 0.999251 0.204626
vt 1.000000 0.704122
vt 0.000000 0.204626
vt 0.499496 0.204626
vn 1.0000 0.0000 -0.0000
vn 0.0000 0.0000 1.0000
vn -1.0000 0.0000 0.0000
vn -0.0000 0.0000 -1.0000
vn -0.0000 -1.0000 -0.0000
vn 0.0000 1.0000 0.0000
s 1
f 2/1/1 4/2/1 1/3/1
f 3/4/2 6/5/2 4/6/2
f 5/7/3 8/8/3 6/9/3
f 7/10/4 1/11/4 8/12/4
f 6/13/5 1/14/5 4/15/5
f 3/16/6 7/17/6 5/18/6
f 2/1/1 3/19/1 4/2/1
f 3/4/2 5/20/2 6/5/2
f 5/7/3 7/21/3 8/8/3
f 7/10/4 2/22/4 1/11/4
f 6/13/5 8/23/5 1/14/5
f 3/16/6 2/24/6 7/17/6
