# Blender v2.92.0 OBJ File: ''
# www.blender.org
o Puente.001_Cube.001
v -3.500000 -0.200000 3.000000
v -3.500000 0.200000 3.000000
v -3.500000 0.200000 -3.000000
v -3.500000 -0.200000 -3.000000
v 3.500000 0.200000 -3.000000
v 3.500000 -0.200000 -3.000000
v 3.500000 0.200000 3.000000
v 3.500000 -0.200000 3.000000
vt 0.928535 0.862632
vt 0.071465 0.920860
vt 0.928607 0.919775
vt 0.625000 0.250000
vt 0.375000 0.500000
vt 0.375000 0.250000
vt 0.071393 0.863718
vt 0.928607 0.919775
vt 0.071465 0.920860
vt 1.000000 0.993630
vt 0.000000 0.936487
vt 1.000000 0.936487
vt 1.000000 -0.014286
vt 0.000000 0.842857
vt 0.000000 -0.014286
vt 0.000000 -0.014286
vt 1.000000 0.842857
vt 1.000000 -0.014286
vt 0.071393 0.863718
vt 0.625000 0.500000
vt 0.928535 0.862632
vt 0.000000 0.993630
vt 1.000000 0.842857
vt 0.000000 0.842857
vn -1.0000 0.0000 0.0000
vn 0.0000 0.0000 -1.0000
vn 1.0000 0.0000 0.0000
vn 0.0000 0.0000 1.0000
vn 0.0000 -1.0000 -0.0000
vn 0.0000 1.0000 0.0000
s 1
f 2/1/1 4/2/1 1/3/1
f 3/4/2 6/5/2 4/6/2
f 5/7/3 8/8/3 6/9/3
f 7/10/4 1/11/4 8/12/4
f 6/13/5 1/14/5 4/15/5
f 3/16/6 7/17/6 5/18/6
f 2/1/1 3/19/1 4/2/1
f 3/4/2 5/20/2 6/5/2
f 5/7/3 7/21/3 8/8/3
f 7/10/4 2/22/4 1/11/4
f 6/13/5 8/23/5 1/14/5
f 3/16/6 2/24/6 7/17/6
