# Blender v2.92.0 OBJ File: ''
# www.blender.org
o Puente.001_Cube.001
v -3.500000 2.750674 1.213999
v -3.500000 2.887482 0.838122
v -3.500000 -2.750674 -1.213999
v -3.500000 -2.887482 -0.838122
v 3.500000 -2.750674 -1.213999
v 3.500000 -2.887482 -0.838122
v 3.500000 2.887482 0.838122
v 3.500000 2.750674 1.213999
vt 0.930118 0.776772
vt 0.960887 0.315233
vt 0.960887 0.776772
vt 0.956947 0.238730
vt 0.926178 0.777192
vt 0.926178 0.238730
vt 0.960887 0.776772
vt 0.991656 0.315233
vt 0.991656 0.776772
vt 0.987716 0.238730
vt 0.956947 0.777192
vt 0.956947 0.238730
vt 0.464639 0.777192
vt 0.003100 0.238730
vt 0.464639 0.238730
vt 0.926178 0.777192
vt 0.464639 0.238730
vt 0.926178 0.238730
vt 0.930118 0.315233
vt 0.956947 0.777192
vt 0.960887 0.315233
vt 0.987716 0.777192
vt 0.003100 0.777192
vt 0.464639 0.777192
vn -1.0000 -0.0000 0.0000
vn 0.0000 -0.9397 -0.3420
vn 1.0000 -0.0000 0.0000
vn 0.0000 0.9397 0.3420
vn 0.0000 -0.3420 0.9397
vn 0.0000 0.3420 -0.9397
s 1
f 2/1/1 4/2/1 1/3/1
f 3/4/2 6/5/2 4/6/2
f 5/7/3 8/8/3 6/9/3
f 7/10/4 1/11/4 8/12/4
f 6/13/5 1/14/5 4/15/5
f 3/16/6 7/17/6 5/18/6
f 2/1/1 3/19/1 4/2/1
f 3/4/2 5/20/2 6/5/2
f 5/7/3 7/21/3 8/8/3
f 7/10/4 2/22/4 1/11/4
f 6/13/5 8/23/5 1/14/5
f 3/16/6 2/24/6 7/17/6
