# Blender v2.91.2 OBJ File: ''
# www.blender.org
mtllib untitled.mtl
o Cylinder.001
v 0.489731 0.107779 0.000000
v 0.292785 2.013727 0.000000
v 0.252245 2.013727 0.124768
v 0.434242 0.107779 0.170779
v 0.146111 2.013727 0.201880
v 0.288969 0.107779 0.276326
v 0.014921 2.013727 0.201880
v 0.109401 0.107778 0.276326
v -0.091213 2.013727 0.124768
v -0.035872 0.107778 0.170779
v -0.131753 2.013727 0.000000
v -0.091362 0.107778 0.000000
v -0.091213 2.013727 -0.124768
v -0.035872 0.107778 -0.170779
v 0.014921 2.013727 -0.201880
v 0.109401 0.107778 -0.276326
v 0.146111 2.013727 -0.201880
v 0.288969 0.107779 -0.276326
v 0.252245 2.013727 -0.124768
v 0.434242 0.107779 -0.170779
v 0.363973 -1.639745 0.000000
v 0.294460 -1.639745 0.213938
v 0.112474 -1.639745 0.346159
v -0.112473 -1.639745 0.346159
v -0.294460 -1.639745 0.213938
v -0.363973 -1.639745 0.000000
v -0.294460 -1.639745 -0.213938
v -0.112473 -1.639745 -0.346159
v 0.112474 -1.639745 -0.346159
v 0.294460 -1.639745 -0.213938
v 0.235057 -1.091710 -0.170779
v 0.290547 -1.091710 0.000000
v 0.089784 -1.091710 -0.276326
v -0.089784 -1.091710 -0.276326
v -0.235057 -1.091710 -0.170779
v -0.290546 -1.091710 0.000000
v -0.235057 -1.091710 0.170779
v -0.089784 -1.091710 0.276326
v 0.089784 -1.091710 0.276326
v 0.235057 -1.091710 0.170779
v 0.052474 1.114698 0.004366
v -0.306655 1.498259 0.634302
v -0.528614 1.375049 -0.324435
v -1.008200 2.201558 1.267202
v 0.052474 2.064682 1.619136
v 0.052474 1.375054 -0.746627
v 0.633562 1.498259 -0.188804
v 0.411603 1.498259 0.634302
v -0.306657 2.981187 1.813955
v -1.031978 2.201558 -0.513060
v -1.337432 2.064679 0.305502
v -1.559396 2.981187 -0.191846
v -0.200120 2.390778 -1.866735
v -0.624455 1.941472 -1.127281
v -0.559250 3.170400 -1.932551
v 1.480925 2.201558 -0.321214
v 0.808729 2.064682 -1.470667
v 1.269891 3.205529 -0.868963
v 0.752793 2.201559 1.081109
v 1.432535 2.064679 0.305502
v 1.521868 2.981188 0.923259
v -1.337438 2.981187 1.109351
v -1.114779 2.981187 -1.189808
v 0.334176 3.170400 -1.932551
v 1.756522 3.205529 0.000000
v 0.500932 2.981187 1.627863
v -1.385823 3.760816 0.321214
v -0.978299 3.897692 1.226039
v -0.646682 4.464116 0.359345
v -0.785542 3.760816 -1.155813
v -1.114773 3.897695 -0.620349
v -0.306655 4.464115 -0.494304
v 0.688060 4.174370 -1.183195
v -0.200120 4.086905 -1.330840
v 0.411602 4.464115 -0.494304
v 1.480925 3.760817 0.321214
v 1.094720 4.122037 -0.305502
v 0.633561 4.464116 0.188804
v 0.052474 3.760809 1.530017
v 0.633563 3.897692 0.799804
v -0.065594 4.464111 0.781538
v -0.065594 4.724467 0.170542
vt 1.000000 0.739066
vt 1.000000 1.000000
vt 0.900000 1.000000
vt 0.900000 0.739066
vt 0.800000 1.000000
vt 0.800000 0.739066
vt 0.700000 1.000000
vt 0.700000 0.739066
vt 0.600000 1.000000
vt 0.600000 0.739066
vt 0.500000 1.000000
vt 0.500000 0.739066
vt 0.400000 1.000000
vt 0.400000 0.739066
vt 0.300000 1.000000
vt 0.300000 0.739066
vt 0.200000 1.000000
vt 0.200000 0.739066
vt 0.391068 0.444164
vt 0.250000 0.490000
vt 0.108932 0.444164
vt 0.021746 0.324164
vt 0.021746 0.175836
vt 0.108932 0.055836
vt 0.250000 0.010000
vt 0.391068 0.055836
vt 0.478254 0.175836
vt 0.478254 0.324164
vt 0.100000 1.000000
vt 0.100000 0.739066
vt -0.000000 1.000000
vt -0.000000 0.739066
vt 0.750000 0.490000
vt 0.891068 0.444164
vt 0.978254 0.324164
vt 0.978254 0.175836
vt 0.891068 0.055836
vt 0.750000 0.010000
vt 0.608932 0.055836
vt 0.521746 0.175836
vt 0.521746 0.324164
vt 0.608932 0.444164
vt 0.100000 0.500000
vt 0.100000 0.521986
vt -0.000000 0.521986
vt -0.000000 0.500000
vt 0.200000 0.500000
vt 0.200000 0.521986
vt 0.300000 0.500000
vt 0.300000 0.521986
vt 0.400000 0.500000
vt 0.400000 0.521986
vt 0.500000 0.500000
vt 0.500000 0.521986
vt 0.600000 0.500000
vt 0.600000 0.521986
vt 0.700000 0.500000
vt 0.700000 0.521986
vt 0.800000 0.500000
vt 0.800000 0.521986
vt 0.900000 0.500000
vt 0.900000 0.521986
vt 1.000000 0.500000
vt 1.000000 0.521986
vt 0.818181 0.000000
vt 0.772726 0.078731
vt 0.863635 0.078731
vt 0.727272 0.157461
vt 0.681818 0.078731
vt 0.636363 0.157461
vt 0.090909 0.000000
vt 0.045454 0.078731
vt 0.136363 0.078731
vt 0.272727 0.000000
vt 0.227273 0.078731
vt 0.318182 0.078731
vt 0.454545 0.000000
vt 0.409090 0.078731
vt 0.500000 0.078731
vt 0.681818 0.236191
vt 0.909090 0.157461
vt 0.818181 0.157461
vt 0.863635 0.236191
vt 0.181818 0.157461
vt 0.090909 0.157461
vt 0.136363 0.236191
vt 0.363636 0.157461
vt 0.272727 0.157461
vt 0.318182 0.236191
vt 0.545454 0.157461
vt 0.454545 0.157461
vt 0.500000 0.236191
vt 0.772726 0.236191
vt 0.954545 0.236191
vt 0.227273 0.236191
vt 0.409090 0.236191
vt 0.590909 0.236191
vt 0.818181 0.314921
vt 0.727272 0.314921
vt 0.772726 0.393651
vt 1.000000 0.314921
vt 0.909091 0.314921
vt 0.954545 0.393651
vt 0.272727 0.314921
vt 0.181818 0.314921
vt 0.227273 0.393651
vt 0.454545 0.314921
vt 0.363636 0.314921
vt 0.409090 0.393651
vt 0.636363 0.314921
vt 0.545454 0.314921
vt 0.590909 0.393651
vt 0.500000 0.393651
vt 0.545454 0.472382
vt 0.318182 0.393651
vt 0.363636 0.472382
vt 0.136363 0.393651
vt 0.181818 0.472382
vt 0.090909 0.314921
vt 0.863635 0.393651
vt 0.909090 0.472382
vt 0.681818 0.393651
vt 0.727272 0.472382
vt 0.045454 0.236191
vt 0.000000 0.157461
vt 0.590909 0.078731
vt 0.636363 0.000000
vn 0.9465 0.0978 0.3075
vn 0.5861 0.0754 0.8067
vn 0.0000 0.0390 0.9992
vn -0.5878 0.0025 0.8090
vn -0.9509 -0.0202 0.3090
vn -0.9509 -0.0202 -0.3090
vn -0.5878 0.0025 -0.8090
vn 0.0000 0.0390 -0.9992
vn 0.0000 1.0000 0.0000
vn 0.5861 0.0754 -0.8067
vn 0.9465 0.0978 -0.3075
vn 0.0000 -1.0000 -0.0000
vn 0.9434 0.1264 -0.3065
vn 0.5831 0.1264 -0.8025
vn 0.0000 0.1264 -0.9920
vn -0.5831 0.1264 -0.8025
vn -0.9434 0.1264 -0.3065
vn -0.9434 0.1264 0.3065
vn -0.5831 0.1264 0.8025
vn 0.0000 0.1264 0.9920
vn 0.5831 0.1264 0.8025
vn 0.9434 0.1264 0.3065
vn 0.9394 -0.1560 -0.3052
vn 0.5850 -0.0971 -0.8052
vn -0.0000 0.0000 -1.0000
vn -0.5850 0.0971 -0.8052
vn -0.9394 0.1560 -0.3052
vn -0.9394 0.1560 0.3052
vn -0.5850 0.0971 0.8052
vn -0.0000 0.0000 1.0000
vn 0.5850 -0.0971 0.8052
vn 0.9394 -0.1560 0.3052
vn -0.5010 -0.8361 0.2234
vn -0.2847 -0.7824 0.5538
vn -0.2315 -0.9192 -0.3187
vn 0.4577 -0.8401 -0.2912
vn 0.5798 -0.7996 0.1563
vn -0.3353 -0.3198 0.8862
vn -0.8336 -0.4072 -0.3733
vn -0.8316 -0.4067 -0.3783
vn -0.8315 -0.4070 -0.3781
vn -0.6904 -0.3705 -0.6213
vn -0.6907 -0.3703 -0.6211
vn -0.6909 -0.3702 -0.6209
vn 0.8693 -0.0834 -0.4872
vn 0.8644 -0.0884 -0.4950
vn 0.8696 -0.0839 -0.4866
vn 0.6156 -0.4808 0.6244
vn -0.5629 -0.0710 0.8235
vn -0.8298 -0.4134 -0.3750
vn 0.0000 -0.0841 -0.9965
vn 0.8695 -0.0829 -0.4869
vn 0.5285 -0.3663 0.7658
vn -0.6808 0.7046 0.2000
vn -0.4551 0.7546 -0.4727
vn -0.0246 0.9179 -0.3959
vn 0.6325 0.7725 0.0555
vn 0.5216 0.6613 0.5391
vn 0.3154 0.8730 0.3720
vn 0.4994 0.6354 0.5890
vn 0.4490 0.6553 0.6075
vn 0.3493 0.9301 -0.1135
vn 0.4762 0.8656 -0.1547
vn 0.4784 0.8614 -0.1703
vn 0.0000 0.9312 -0.3646
vn 0.0000 0.9116 -0.4111
vn -0.5344 0.7430 -0.4031
vn -0.4502 0.8747 -0.1793
vn -0.5380 0.8153 -0.2143
vn -0.6839 0.7238 -0.0917
vn -0.2739 0.8848 0.3770
vn -0.3141 0.8453 0.4323
vn -0.1083 0.7159 0.6898
vn 0.6545 0.4525 0.6057
vn 0.4738 0.5517 0.6865
vn 0.4746 0.5523 0.6853
vn 0.4756 0.5531 0.6840
vn 0.8247 0.5274 -0.2042
vn 0.7905 0.4232 -0.4427
vn 0.8449 0.3879 -0.3683
vn 0.0780 0.5785 -0.8119
vn 0.0000 0.5488 -0.8359
vn -0.5172 0.6020 -0.6083
vn -0.7580 0.3443 -0.5540
vn -0.8856 0.2451 -0.3945
vn -0.9145 0.3439 -0.2132
vn -0.8855 0.3020 0.3531
vn -0.5606 0.1153 0.8201
vn -0.2057 0.4172 0.8853
vn 0.9122 0.2794 0.2997
vn 0.9567 -0.2210 0.1895
vn 0.9629 -0.2693 0.0155
vn 0.7275 0.2269 -0.6475
vn 0.7493 0.0456 -0.6607
vn 0.2761 -0.2672 -0.9232
vn -0.7897 0.3553 -0.5001
vn -0.6980 -0.3662 -0.6154
vn -0.8295 -0.4137 -0.3752
vn -0.9800 0.1082 0.1672
vn -0.9752 -0.1459 0.1664
vn -0.8871 -0.3044 0.3470
vn 0.2178 0.2439 0.9450
vn 0.2230 -0.1183 0.9676
vn 0.6167 -0.3086 0.7242
vn 0.5307 -0.6227 0.5750
vn 0.5142 -0.8464 0.1387
vn 0.6227 -0.7730 -0.1208
vn 0.5934 -0.7631 -0.2561
vn 0.4671 -0.8306 -0.3032
vn 0.0265 -0.7375 -0.6748
vn -0.2777 -0.7420 -0.6102
vn -0.3679 -0.7799 -0.5063
vn -0.7862 -0.5452 -0.2908
vn 0.5501 -0.6213 0.5580
vn 0.0000 -0.8669 0.4986
vn 0.0000 -0.8541 0.5201
vn -0.7528 -0.5433 -0.3717
vn -0.5236 -0.8212 0.2268
vn -0.5307 -0.7946 0.2948
usemtl Material.001
s 1
f 1/1/1 2/2/1 3/3/1 4/4/1
f 4/4/2 3/3/2 5/5/2 6/6/2
f 6/6/3 5/5/3 7/7/3 8/8/3
f 8/8/4 7/7/4 9/9/4 10/10/4
f 10/10/5 9/9/5 11/11/5 12/12/5
f 12/12/6 11/11/6 13/13/6 14/14/6
f 14/14/7 13/13/7 15/15/7 16/16/7
f 16/16/8 15/15/8 17/17/8 18/18/8
f 3/19/9 2/20/9 19/21/9 17/22/9 15/23/9 13/24/9 11/25/9 9/26/9 7/27/9 5/28/9
f 18/18/10 17/17/10 19/29/10 20/30/10
f 20/30/11 19/29/11 2/31/11 1/32/11
f 21/33/12 22/34/12 23/35/12 24/36/12 25/37/12 26/38/12 27/39/12 28/40/12 29/41/12 30/42/12
f 30/43/13 31/44/13 32/45/13 21/46/13
f 29/47/14 33/48/14 31/44/14 30/43/14
f 28/49/15 34/50/15 33/48/15 29/47/15
f 27/51/16 35/52/16 34/50/16 28/49/16
f 26/53/17 36/54/17 35/52/17 27/51/17
f 25/55/18 37/56/18 36/54/18 26/53/18
f 24/57/19 38/58/19 37/56/19 25/55/19
f 23/59/20 39/60/20 38/58/20 24/57/20
f 22/61/21 40/62/21 39/60/21 23/59/21
f 21/63/22 32/64/22 40/62/22 22/61/22
f 31/44/23 20/30/23 1/32/23 32/45/23
f 33/48/24 18/18/24 20/30/24 31/44/24
f 34/50/25 16/16/25 18/18/25 33/48/25
f 35/52/26 14/14/26 16/16/26 34/50/26
f 36/54/27 12/12/27 14/14/27 35/52/27
f 37/56/28 10/10/28 12/12/28 36/54/28
f 38/58/29 8/8/29 10/10/29 37/56/29
f 39/60/30 6/6/30 8/8/30 38/58/30
f 40/62/31 4/4/31 6/6/31 39/60/31
f 32/64/32 1/1/32 4/4/32 40/62/32
usemtl Material.002
f 41/65/33 42/66/33 43/67/33
f 44/68/34 42/69/34 45/70/34
f 41/71/35 43/72/35 46/73/35
f 41/74/36 46/75/36 47/76/36
f 41/77/37 47/78/37 48/79/37
f 44/68/38 45/70/38 49/80/38
f 50/81/39 51/82/40 52/83/41
f 53/84/42 54/85/43 55/86/44
f 56/87/45 57/88/46 58/89/47
f 59/90/48 60/91/48 61/92/48
f 44/68/49 49/80/49 62/93/49
f 50/81/39 52/83/41 63/94/50
f 53/84/51 55/86/51 64/95/51
f 56/87/45 58/89/47 65/96/52
f 59/90/53 61/92/53 66/97/53
f 67/98/54 68/99/54 69/100/54
f 70/101/55 71/102/55 72/103/55
f 73/104/56 74/105/56 75/106/56
f 76/107/57 77/108/57 78/109/57
f 79/110/58 80/111/58 81/112/58
f 81/112/59 78/113/59 82/114/59
f 81/112/60 80/111/60 78/113/60
f 80/111/61 76/107/61 78/113/61
f 78/109/62 75/115/62 82/116/62
f 78/109/63 77/108/63 75/115/63
f 77/108/64 73/104/64 75/115/64
f 75/106/65 72/117/65 82/118/65
f 75/106/66 74/105/66 72/117/66
f 74/105/67 70/119/67 72/117/67
f 72/103/68 69/120/68 82/121/68
f 72/103/69 71/102/69 69/120/69
f 71/102/70 67/98/70 69/120/70
f 69/100/71 81/122/71 82/123/71
f 69/100/72 68/99/72 81/122/72
f 68/99/73 79/110/73 81/122/73
f 66/97/74 80/111/74 79/110/74
f 66/97/75 61/92/76 80/111/76
f 61/92/76 76/107/77 80/111/76
f 65/96/78 77/108/78 76/107/78
f 65/96/79 58/89/79 77/108/79
f 58/89/80 73/104/80 77/108/80
f 64/95/81 74/105/81 73/104/81
f 64/95/82 55/86/82 74/105/82
f 55/86/83 70/119/83 74/105/83
f 63/94/84 71/102/84 70/101/84
f 63/94/85 52/83/85 71/102/85
f 52/83/86 67/98/86 71/102/86
f 62/93/87 68/99/87 67/98/87
f 62/93/88 49/80/88 68/99/88
f 49/80/89 79/110/89 68/99/89
f 61/92/90 65/96/90 76/107/90
f 61/92/91 60/91/91 65/96/91
f 60/91/92 56/87/92 65/96/92
f 58/89/93 64/95/93 73/104/93
f 58/89/94 57/88/94 64/95/94
f 57/88/95 53/84/95 64/95/95
f 55/86/96 63/124/96 70/119/96
f 55/86/44 54/85/43 63/124/97
f 54/85/98 50/125/39 63/124/50
f 52/83/99 62/93/99 67/98/99
f 52/83/100 51/82/100 62/93/100
f 51/82/101 44/68/101 62/93/101
f 49/80/102 66/97/102 79/110/102
f 49/80/103 45/70/103 66/97/103
f 45/70/104 59/90/104 66/97/104
f 48/79/105 60/91/105 59/90/105
f 48/79/106 47/78/106 60/91/106
f 47/78/107 56/87/107 60/91/107
f 47/76/108 57/88/108 56/87/108
f 47/76/109 46/75/109 57/88/109
f 46/75/110 53/84/110 57/88/110
f 46/73/111 54/85/111 53/84/111
f 46/73/112 43/72/112 54/85/112
f 43/72/113 50/125/113 54/85/113
f 45/70/114 48/126/114 59/90/114
f 45/70/115 42/69/115 48/126/115
f 42/69/116 41/127/116 48/126/116
f 43/67/117 51/82/117 50/81/117
f 43/67/118 42/66/118 51/82/118
f 42/66/119 44/68/119 51/82/119
